<svg width="1074" height="818" viewBox="0 0 1074 818" fill="none" xmlns="http://www.w3.org/2000/svg">
<rect x="90.6785" width="983" height="598" fill="#FF2D48"/>
<g clip-path="url(#clip0_2181_104)">
<path d="M544.711 59.4768C533.358 60.5887 523.583 65.442 516.292 73.3593C512.138 77.9553 506.367 88.0119 507.326 89.0366C508.189 89.9588 518.805 86.8275 525.286 83.6912C536.052 78.563 544.307 71.4704 550.35 62.321C551.274 60.844 551.703 59.4544 551.315 59.2445C550.926 59.0346 547.969 59.1595 544.711 59.4768Z" fill="white"/>
<path d="M555.498 65.1524C553.955 67.714 552.817 69.8858 553.011 69.9908C553.107 70.0933 556.703 71.9852 560.884 74.0921C569.828 78.6208 577.032 85.8061 581.817 95.1307L585.202 101.419L586.382 97.6474C587.126 95.4657 587.687 92.779 587.715 91.6794C587.743 90.5797 588.263 89.4926 588.858 89.3077C590.943 88.6604 585.103 78.2087 579.633 72.5679C574.257 67.1296 566.793 62.4385 561.31 61.1988C558.468 60.6264 558.067 60.9163 555.498 65.1524Z" fill="white"/>
<path d="M401.658 69.7461C355.321 75.6709 313.762 95.1214 278.678 127.141C269.905 135.22 254.699 152.339 250.897 158.545C250.486 159.235 252.986 161.599 256.854 164.398L263.528 169.169L269.431 161.617C277.783 150.725 300.076 129.885 311.703 121.878C341.466 101.627 371.497 90.1865 405.276 86.2434C417.916 84.864 440.859 84.9469 453.13 86.4591C461.866 87.5814 461.564 87.8738 462.338 76.7899L462.687 70.7969L457.784 69.972C447.388 68.3074 413.909 68.1569 401.658 69.7461Z" fill="white"/>
<path d="M473.247 73.766C472.033 75.0355 470.791 77.4048 470.455 78.9968C469.465 83.0729 471.617 103.034 474.27 114.905C477.192 127.784 481.21 136.288 489.047 145.691C496.885 154.993 497.887 158.219 496.782 170.695C494.873 191.553 490.521 203.947 482.141 212.037C472.652 221.198 459.844 225.274 441.933 224.819C431.403 224.552 430.913 224.439 430.379 222.225C429.224 217.294 429.63 216.804 435.651 216.257C443.252 215.55 450.427 212.231 455.086 207.148C461.158 200.7 462.118 197.823 461.067 188.794L460.079 181.166L463.817 177.46C469.17 172.194 468.966 168.588 463.115 162.437C460.524 159.771 456.634 153.97 454.293 149.209C446.804 133.914 431.602 119.823 417.252 114.857C411.59 112.912 408.156 112.425 396.641 112.132C384.536 111.825 382.068 112.062 376.406 114.019C362.796 118.675 354.023 126.754 345.953 142.054C343.573 146.595 341.117 150.234 340.329 150.214C339.64 150.197 338.141 151.059 337.132 152.033C335.214 153.885 335.115 153.883 330.455 151.264C326.279 148.957 324.906 148.722 316.337 148.804C307.669 148.884 306.182 149.246 299.008 152.565C292.628 155.604 289.115 158.216 280.13 166.89C268.222 178.191 264.121 180.688 254.926 182.155C232.875 185.696 200.904 168.878 186.223 145.898C185.182 144.271 183.632 143.231 182.156 143.194C173.594 142.976 173.784 166.488 182.565 185.218C195.456 212.754 219.314 231.066 250.566 237.462C273.099 242.036 293.283 238.347 312.203 226.224C323.615 218.912 335.967 205.621 338.931 197.494L339.996 194.32L343.248 198.104C346.786 202.295 359.402 209.618 369.548 213.377L376.28 215.849L376.162 228.249L376.142 240.653L371.135 243.927C363.826 248.643 355.621 257.637 351.786 265.142C347.127 274.127 347.055 280.827 351.268 301.041C357.246 329.302 358.286 342.632 355.196 351.857C352.952 358.802 342.696 374.847 336.947 380.202C330.491 386.24 319.321 391.758 297.754 399.513C276.587 407.078 273.003 408.587 267.395 412.246C264.99 413.885 262.696 415.027 262.31 414.717C260.663 413.675 249.61 395.188 245.024 385.769C231.831 358.525 225.29 333.051 223.708 302.3C222.994 287.778 223.953 273.297 226.802 254.164L227.411 249.578L221.731 248.333C218.501 247.551 214.976 246.761 213.899 246.533C211.941 246.083 211.633 246.576 210.504 252.249C206.089 274.844 205.905 305.349 209.993 330.461C221.428 399.774 264.324 459.483 325.931 492.059C347.408 503.308 368.301 510.441 393.3 514.877C406.535 517.214 440.692 517.782 454.824 515.841C538.221 504.756 962.91 479.336 990.825 400.02C1010.99 342.913 1007.85 280.514 982.24 226.346C976.821 214.804 963.115 192.249 961.069 191.396C959.315 190.652 947.466 199.654 948.314 201.176C948.692 201.785 950.968 205.244 953.435 208.908C970.133 233.84 981.822 266.048 986.207 298.87C988.097 313.622 987.309 344.612 984.574 359.248C976.234 404.55 941.429 472.088 924.449 473.757C907.468 475.426 496.452 493.691 450.815 499.233C432.047 501.457 406.273 500.402 387.954 496.636C381.489 495.271 376.104 494.034 375.912 493.829C375.72 493.624 379.408 488.016 384.01 481.331C388.709 474.648 395.769 464.224 399.76 458.323C403.753 452.323 409.757 444.673 412.998 441.154C421.602 431.97 428.619 423.245 435.065 413.706C442.128 403.182 445.545 396.566 451.738 381.519L456.673 369.44L464.365 365.134C474.056 359.679 481.83 352.174 485.972 344.176C488.663 339.043 489.423 336.262 489.889 329.571C490.63 319.787 489.033 312.844 484.22 304.619C482.52 301.775 481.407 299.046 481.811 298.656C482.212 298.366 494.081 292.466 508.239 285.623C536.953 271.748 542.848 268.397 550.006 261.877C556.356 256.136 558.206 253.082 561.604 243.365C567.03 227.498 579.671 175.702 579.856 168.405C579.943 165.006 583.575 161.597 591.35 157.893C594.141 156.564 597.24 154.742 598.346 153.87C603.782 149.206 607.15 136.788 608.329 117.512C609.157 104.328 609.016 102.124 607.52 98.9852C606.491 96.8584 604.954 95.3188 603.68 95.0864C601.424 94.7289 601.424 94.7289 601.071 108.624C600.703 123.12 598.586 136.67 595.65 143.698C594.186 147.062 592.876 148.229 586.991 151.18C578.811 155.274 573.479 159.74 572.799 163.224C572.471 164.516 571.433 170.491 570.294 176.565C567.871 190.507 558.566 227.283 554.403 239.981C549.182 255.554 544.46 259.235 508.468 276.626C496.503 282.424 484.137 288.512 480.945 290.131L475.254 293.188L471.325 288.887L467.296 284.683L478.261 279.46C490.224 273.762 503.614 266.1 509.941 261.259C521.187 252.742 530.602 238.776 536.131 222.712C537.411 218.843 540.026 212.807 541.988 209.256C549.846 194.551 557.115 172.028 557.386 161.332C557.475 157.833 557.379 157.73 553.738 157.638L549.998 157.543L548.695 166.212C547.283 175.28 543.084 189.377 541.903 189.347C541.509 189.337 540.871 187.321 540.639 184.814C540.309 182.305 537.26 174.425 533.9 167.137C527.83 154.079 527.833 153.979 521.815 150.525C518.616 148.543 515.699 147.068 515.497 147.263C515.295 147.458 518.194 153.534 521.945 160.931C532.361 181.202 533.548 184.834 533.261 196.13C532.848 208.524 529.808 219.65 523.081 232.483C516.561 244.922 510.281 251.764 498.468 259.367C480.246 271.107 456.055 281.396 414.64 295.148C400.438 299.889 388.514 304.088 388.014 304.375C387.206 305.155 388.916 311.5 389.999 311.528C391.376 311.563 435.971 296.691 447.206 292.475C453.371 290.131 458.736 288.267 459.228 288.279C459.819 288.294 463.949 292.4 468.45 297.416C478.602 308.678 481.879 315.363 482.117 325.372C482.453 339.285 474.883 350.397 459.305 358.904C451.115 363.397 449.182 365.849 444.438 378.132C437.051 397.551 425.978 414.775 409.154 433.554C404.388 438.935 398.394 446.185 396.039 449.726C393.586 453.265 386.735 463.194 380.804 471.846C365.569 493.966 368.183 491.832 359.69 488.915C346.806 484.386 326.585 474.069 314.385 465.857C301.701 457.332 281.29 439.007 272.889 428.591C268.115 422.667 267.929 422.263 269.546 420.603C272.078 417.867 281.539 413.706 300.019 407.273C334.302 395.14 344.026 388.385 355.766 368.176C359.368 362.066 362.698 355.048 363.364 352.064C366.016 340.728 364.719 325.89 358.829 298.032C355.311 281.437 355.378 274.937 359.101 267.929C366.238 254.506 388.757 240.273 411.151 234.84C417.293 233.396 423.806 232.861 438.876 232.744C460.055 232.482 464.507 231.695 475.472 226.472C483.25 222.668 492.941 213.311 496.579 205.801C500.211 198.491 503.535 183.971 504.655 170.895C505.808 156.52 504.449 151.884 496.04 141.767C487.056 131.035 483.335 122.438 480.597 106.163C478.709 95.2117 477.682 81.3811 478.593 80.4039C479.603 79.4293 485.958 85.0925 490.825 91.2182C492.825 93.8698 494.836 96.1217 495.131 96.1292C495.525 96.1392 496.076 93.8524 496.543 90.9633C497.356 86.0824 497.266 85.78 493.721 81.8887C485.097 72.4666 477.396 69.37 473.247 73.766ZM408.331 121.032L414.503 122.289L415.075 126.905C415.806 133.026 414.479 146.497 412.315 154.144C407.55 171.128 396.788 183.859 381.341 191.069C372.67 195.15 363.247 197.812 358.228 197.684C354.685 197.594 349.934 194.672 349.212 192.053C348.037 187.922 349.288 161.945 351.048 154.688C357.647 127.547 378.843 114.981 408.331 121.032ZM438.284 139.799C442.401 144.405 446.198 150.003 448.158 154.255C449.934 158.001 453.148 163.284 455.345 165.941L459.455 170.847L455.914 174.558C452.373 178.269 452.269 178.467 452.695 184.98C452.997 188.589 453.39 192.5 453.655 193.707C454.469 196.529 448.674 203.684 443.589 206.155C440.995 207.49 437.038 208.19 432.011 208.362C421.958 208.707 420.746 209.876 421.525 217.999C421.837 221.208 422.16 224.017 422.25 224.319C422.245 224.519 420.163 225.066 417.395 225.496C410.18 226.513 399.468 229.542 392.2 232.658C388.715 234.17 385.434 235.387 385.04 235.377C384.548 235.365 384.264 231.056 384.396 225.858C384.764 211.363 383.818 209.838 372.691 205.954L368.785 204.654L374.942 202.61C392.524 196.655 406.902 185.016 414.053 170.994C419.546 160.23 421.614 152.48 422.767 138.104L423.655 126.423L427.619 129.325C429.842 130.982 434.645 135.705 438.284 139.799ZM328.364 159.913C332.787 164.127 333.682 167.651 333.561 180.152C333.512 189.854 333.285 191.048 330.584 196.581C326.542 204.481 313.628 216.657 303.742 222.008C299.649 224.204 292.681 227.128 288.313 228.518C268.556 234.818 240.516 229.904 219.291 216.461C201.945 205.416 186.677 182.321 184.199 163.552C183.788 160.341 183.562 157.634 183.764 157.439C183.966 157.244 186.178 159.301 188.674 161.865C195.584 168.943 206.108 177.213 212.908 180.887C226.412 188.132 245.511 192.219 256.89 190.107C267.279 188.171 272.874 185.012 282.773 175.26C293.583 164.531 297.494 161.73 305.055 158.721C309.232 157.126 312.792 156.517 317.91 156.647C324.405 156.812 325.286 157.034 328.364 159.913Z" fill="white"/>
<path d="M545.641 77.106C543.107 79.9425 533.992 86.0129 527.415 89.0468C520.437 92.3706 519.72 93.4527 519.507 101.85C519.416 105.449 519.605 105.754 522.164 105.819C525.706 105.909 535.515 103.557 540.79 101.391C548.058 98.2742 560.294 85.681 560.408 81.1824C560.438 79.9828 550.999 75.5416 548.342 75.474C547.555 75.454 546.356 76.1238 545.641 77.106Z" fill="white"/>
<path d="M563.074 88.6527C556.88 99.899 544.165 108.079 528.832 110.79C524.381 111.577 520.621 112.282 520.421 112.377C520.023 112.567 522.522 118.832 523.756 120.664C524.987 122.596 538.957 119.25 548.724 114.697C560.585 109.096 573.134 95.8106 571.502 90.2673C571.232 89.2601 569.802 87.4232 568.353 86.286L565.651 84.1167L563.074 88.6527Z" fill="white"/>
<path d="M507.663 95.1475C504.996 95.4798 504.892 95.6772 504.725 102.275C504.415 114.471 508.196 124.57 516.526 133.885C522.175 140.231 523.437 140.963 523.516 137.864C523.556 136.264 524.255 135.882 527.109 135.955L530.751 136.047L526.8 132.646C517.066 124.296 513.711 116.808 514.038 103.912C514.297 93.7155 514.678 94.2254 507.663 95.1475Z" fill="white"/>
<path d="M573.483 101.421C566.52 111.948 554.597 119.948 539.317 124.461C528.304 127.682 528.297 127.982 537.623 133.021C543.643 136.375 543.84 136.38 549.091 135.113C561.381 132.024 574.118 122.944 579.182 113.57L581.355 109.424L579.428 103.873C578.424 100.747 577.214 98.015 576.825 97.8051C576.439 97.4952 574.92 99.1571 573.483 101.421Z" fill="white"/>
<path d="M588.992 107.317C583.854 119.591 574.125 130.447 563.147 136.17C555.861 139.986 544.278 142.393 534.335 142.24L525.872 142.025L530.151 144.134C553.988 155.544 583.29 141.784 590.547 115.86C591.522 112.383 592.237 107.5 592.106 104.896L591.933 100.09L588.992 107.317Z" fill="white"/>
</g>
<path d="M595.54 284C593.945 284 593.147 283.146 593.147 281.437V237.55C593.147 235.841 593.945 234.986 595.54 234.986H600.598C602.558 234.986 604.039 235.784 605.042 237.379L622.473 265.372H622.713C622.599 264.005 622.542 262.638 622.542 261.271V237.55C622.542 235.841 623.339 234.986 624.934 234.986H630.13C631.725 234.986 632.522 235.841 632.522 237.55V281.437C632.522 283.146 631.725 284 630.13 284H625.413C623.453 284 621.972 283.202 620.969 281.607L603.196 253.102H602.957C603.071 254.469 603.128 255.836 603.128 257.203V281.437C603.128 283.146 602.33 284 600.735 284H595.54ZM642.296 266.056C642.296 260.405 643.709 255.904 646.535 252.555C649.36 249.205 653.405 247.53 658.668 247.53C663.043 247.53 666.666 249.068 669.537 252.145C672.431 255.198 673.878 260.086 673.878 266.808C673.878 267.833 673.411 268.346 672.477 268.346H648.654C649.041 272.743 650.226 275.808 652.208 277.54C654.191 279.249 656.435 280.104 658.942 280.104C661.585 280.104 663.613 279.659 665.026 278.771C666.438 277.882 667.475 277.005 668.136 276.139C668.865 275.182 669.572 274.999 670.255 275.592L672.272 277.335C672.796 277.791 672.796 278.417 672.272 279.215C671.839 279.876 670.597 280.935 668.546 282.394C666.518 283.852 663.317 284.581 658.942 284.581C653.245 284.581 649.041 282.906 646.329 279.557C643.641 276.207 642.296 271.707 642.296 266.056ZM648.517 263.902H667.828C667.737 260.712 666.917 257.921 665.368 255.528C663.818 253.113 661.539 251.905 658.532 251.905C655.888 251.905 653.644 252.794 651.798 254.571C649.952 256.326 648.859 259.436 648.517 263.902ZM681.431 252.623C680.405 252.623 679.893 252.224 679.893 251.427V249.308C679.893 248.51 680.405 248.111 681.431 248.111H685.464V245.035C685.464 244.579 685.578 244.146 685.806 243.736L688.198 239.396C688.631 238.598 688.984 238.199 689.258 238.199H690.454C691.138 238.199 691.479 238.598 691.479 239.396V248.111H698.76C699.785 248.111 700.298 248.51 700.298 249.308V251.427C700.298 252.224 699.785 252.623 698.76 252.623H691.479V274.396C691.479 276.788 691.833 278.349 692.539 279.078C693.268 279.785 694.134 280.138 695.137 280.138C695.911 280.138 696.834 279.91 697.905 279.454C698.999 278.998 699.751 278.611 700.161 278.292C700.571 277.973 700.89 278.076 701.118 278.6L702.246 281.231C702.428 281.687 702.292 282.052 701.836 282.325C700.947 282.849 699.648 283.362 697.939 283.863C696.23 284.342 694.521 284.581 692.812 284.581C690.443 284.581 688.62 283.727 687.344 282.018C686.09 280.309 685.464 277.893 685.464 274.771V252.623H681.431ZM712.02 284C710.995 284 710.482 283.487 710.482 282.462V235.089C710.482 234.063 710.995 233.551 712.02 233.551H714.96C715.985 233.551 716.498 234.063 716.498 235.089V250.333C716.498 251.017 716.475 251.7 716.429 252.384H716.566C718.047 250.743 719.642 249.524 721.351 248.727C723.06 247.929 725.191 247.53 727.743 247.53C731.89 247.53 734.863 248.704 736.664 251.051C738.487 253.375 739.398 256.565 739.398 260.621V282.462C739.398 283.487 738.885 284 737.86 284H734.92C733.895 284 733.382 283.487 733.382 282.462V262.262C733.382 257.796 732.642 254.97 731.161 253.785C729.68 252.577 727.8 251.974 725.521 251.974C722.559 251.974 720.314 252.862 718.788 254.64C717.261 256.394 716.498 259.413 716.498 263.697V282.462C716.498 283.487 715.985 284 714.96 284H712.02ZM748.488 266.056C748.488 260.405 749.901 255.904 752.727 252.555C755.552 249.205 759.597 247.53 764.861 247.53C769.236 247.53 772.859 249.068 775.73 252.145C778.624 255.198 780.07 260.086 780.07 266.808C780.07 267.833 779.603 268.346 778.669 268.346H754.846C755.233 272.743 756.418 275.808 758.401 277.54C760.383 279.249 762.627 280.104 765.134 280.104C767.777 280.104 769.805 279.659 771.218 278.771C772.631 277.882 773.667 277.005 774.328 276.139C775.057 275.182 775.764 274.999 776.447 275.592L778.464 277.335C778.988 277.791 778.988 278.417 778.464 279.215C778.031 279.876 776.789 280.935 774.738 282.394C772.71 283.852 769.509 284.581 765.134 284.581C759.437 284.581 755.233 282.906 752.522 279.557C749.833 276.207 748.488 271.707 748.488 266.056ZM754.709 263.902H774.021C773.93 260.712 773.109 257.921 771.56 255.528C770.01 253.113 767.732 251.905 764.724 251.905C762.081 251.905 759.836 252.794 757.99 254.571C756.145 256.326 755.051 259.436 754.709 263.902ZM790.904 284C789.879 284 789.366 283.487 789.366 282.462V249.649C789.366 248.624 789.879 248.111 790.904 248.111H793.775C794.801 248.111 795.313 248.624 795.313 249.649V253.751H795.45C796.544 251.7 797.831 250.151 799.312 249.103C800.793 248.054 802.639 247.53 804.849 247.53C806.308 247.53 807.333 247.656 807.926 247.906C808.45 248.111 808.643 248.453 808.507 248.932L807.72 251.734C807.607 252.145 807.31 252.304 806.832 252.213C806.034 252.053 805.282 251.974 804.576 251.974C801.91 251.974 799.711 253.181 797.979 255.597C796.247 257.989 795.382 261.259 795.382 265.406V282.462C795.382 283.487 794.869 284 793.844 284H790.904ZM816.982 284C815.956 284 815.444 283.487 815.444 282.462V239.806C815.444 239.35 815.558 238.917 815.785 238.507L818.178 234.166C818.611 233.368 818.964 232.97 819.238 232.97H820.434C821.118 232.97 821.459 233.368 821.459 234.166V282.462C821.459 283.487 820.947 284 819.921 284H816.982ZM830.618 274.43C830.618 270.374 832.509 267.4 836.292 265.509C840.097 263.618 845.771 262.512 853.313 262.193V259.869C853.313 257.727 852.824 255.882 851.844 254.332C850.887 252.76 848.973 251.974 846.102 251.974C844.279 251.974 842.82 252.156 841.727 252.521C840.633 252.862 839.63 253.329 838.719 253.922C837.83 254.492 836.976 255.232 836.155 256.144C835.54 256.827 834.959 256.861 834.412 256.246L832.635 254.195C832.133 253.626 832.304 252.942 833.147 252.145C834.355 251.005 835.529 250.151 836.668 249.581C837.807 249.011 839.22 248.533 840.906 248.146C842.615 247.735 844.347 247.53 846.102 247.53C850.864 247.53 854.259 248.761 856.287 251.222C858.315 253.66 859.329 257.009 859.329 261.271V282.462C859.329 283.487 858.816 284 857.791 284H854.715C853.826 284 853.382 283.487 853.382 282.462V280.787H853.313C851.513 282.2 849.747 283.191 848.016 283.761C846.307 284.308 844.393 284.581 842.273 284.581C838.536 284.581 835.654 283.692 833.626 281.915C831.621 280.115 830.618 277.62 830.618 274.43ZM836.839 274.566C836.839 275.979 837.135 277.118 837.727 277.984C838.32 278.827 839.14 279.374 840.188 279.625C841.237 279.853 842.33 279.967 843.47 279.967C845.224 279.967 846.888 279.796 848.46 279.454C850.032 279.112 851.65 278.212 853.313 276.754V266.671C848.711 267.013 845.429 267.434 843.47 267.936C841.51 268.414 839.915 269.257 838.685 270.465C837.454 271.65 836.839 273.017 836.839 274.566ZM872.008 284C870.983 284 870.47 283.487 870.47 282.462V249.649C870.47 248.624 870.983 248.111 872.008 248.111H874.879C875.905 248.111 876.418 248.624 876.418 249.649V252.384H876.554C878.035 250.743 879.63 249.524 881.339 248.727C883.048 247.929 885.179 247.53 887.731 247.53C891.878 247.53 894.852 248.704 896.652 251.051C898.475 253.375 899.386 256.565 899.386 260.621V282.462C899.386 283.487 898.874 284 897.848 284H894.909C893.883 284 893.371 283.487 893.371 282.462V262.262C893.371 257.796 892.63 254.97 891.149 253.785C889.668 252.577 887.788 251.974 885.509 251.974C882.547 251.974 880.303 252.862 878.776 254.64C877.249 256.394 876.486 259.413 876.486 263.697V282.462C876.486 283.487 875.973 284 874.948 284H872.008ZM908.477 266.056C908.477 261.157 909.662 256.85 912.031 253.136C914.401 249.399 917.865 247.53 922.422 247.53C925.042 247.53 927.139 247.963 928.711 248.829C930.283 249.695 931.696 250.88 932.949 252.384H933.018C932.972 251.7 932.949 251.005 932.949 250.299V235.089C932.949 234.063 933.462 233.551 934.487 233.551H937.427C938.452 233.551 938.965 234.063 938.965 235.089V282.462C938.965 283.487 938.452 284 937.427 284H934.556C933.736 284 933.291 283.487 933.223 282.462L933.018 279.728H932.949C931.696 281.231 930.283 282.416 928.711 283.282C927.139 284.148 925.042 284.581 922.422 284.581C917.865 284.581 914.401 282.724 912.031 279.01C909.662 275.273 908.477 270.955 908.477 266.056ZM914.834 266.056C914.834 270.248 915.552 273.644 916.987 276.241C918.446 278.839 920.907 280.138 924.37 280.138C926.831 280.138 928.871 279.306 930.488 277.643C932.129 275.956 932.949 273.404 932.949 269.986V262.125C932.949 258.707 932.129 256.166 930.488 254.503C928.871 252.817 926.831 251.974 924.37 251.974C920.907 251.974 918.446 253.272 916.987 255.87C915.552 258.468 914.834 261.863 914.834 266.056ZM948.705 280.65C947.998 279.99 947.85 279.374 948.26 278.805L949.799 276.651C950.3 275.968 951.04 276.002 952.02 276.754C953.365 277.779 954.857 278.6 956.498 279.215C958.161 279.83 960.052 280.138 962.172 280.138C963.425 280.138 964.541 279.99 965.521 279.693C966.501 279.374 967.356 278.793 968.085 277.95C968.837 277.107 969.213 275.979 969.213 274.566C969.213 273.746 969.03 272.971 968.666 272.242C968.324 271.513 967.777 270.932 967.025 270.499C966.296 270.043 965.578 269.69 964.872 269.439C963.71 269.007 962.548 268.653 961.385 268.38C960.246 268.084 958.742 267.639 956.874 267.047C955.621 266.66 954.436 266.113 953.319 265.406C952.203 264.677 951.223 263.697 950.38 262.467C949.559 261.236 949.149 259.539 949.149 257.374C949.149 255.164 949.821 253.261 951.166 251.666C952.51 250.071 954.196 248.989 956.224 248.419C958.252 247.826 960.223 247.53 962.137 247.53C964.963 247.53 967.23 247.861 968.939 248.521C970.671 249.16 972.163 249.923 973.417 250.812C974.146 251.336 974.248 251.939 973.724 252.623L972.186 254.674C971.708 255.335 970.967 255.312 969.965 254.605C969.122 254.013 967.925 253.455 966.376 252.931C964.826 252.407 963.47 252.145 962.308 252.145C960.873 252.145 959.642 252.304 958.617 252.623C957.592 252.942 956.76 253.489 956.122 254.264C955.484 255.038 955.165 255.95 955.165 256.998C955.165 257.796 955.29 258.513 955.541 259.151C955.791 259.767 956.259 260.336 956.942 260.86C957.626 261.384 958.583 261.806 959.813 262.125C961.727 262.626 963.47 263.082 965.043 263.492C966.638 263.902 968.073 264.404 969.349 264.996C971.013 265.771 972.289 266.625 973.177 267.56C974.089 268.494 974.716 269.508 975.057 270.602C975.399 271.673 975.57 272.869 975.57 274.19C975.57 276.629 974.841 278.691 973.383 280.377C971.947 282.063 970.341 283.191 968.563 283.761C966.786 284.308 964.644 284.581 962.137 284.581C958.742 284.581 955.826 284.103 953.387 283.146C950.972 282.166 949.411 281.334 948.705 280.65ZM590.618 335.493C590.618 327.632 592.612 321.388 596.599 316.763C600.587 312.137 606.341 309.824 613.86 309.824C618.19 309.824 621.858 310.496 624.866 311.841C627.874 313.185 629.993 315.133 631.223 317.686C632.044 319.372 631.907 320.511 630.813 321.104L626.712 323.291C625.276 324.066 624.091 323.633 623.157 321.992C622.565 320.944 621.459 319.998 619.842 319.155C618.247 318.312 616.367 317.891 614.202 317.891C609.417 317.891 606.067 319.406 604.153 322.437C602.239 325.444 601.282 329.797 601.282 335.493C601.282 341.19 602.239 345.553 604.153 348.584C606.067 351.592 609.417 353.096 614.202 353.096C616.777 353.096 618.941 352.515 620.696 351.353C622.473 350.19 623.704 349.085 624.387 348.037C625.504 346.328 626.689 345.895 627.942 346.738L632.044 349.473C633.16 350.225 633.274 351.364 632.385 352.891C631.064 355.169 628.797 357.118 625.584 358.735C622.371 360.353 618.463 361.162 613.86 361.162C606.455 361.162 600.724 358.849 596.668 354.224C592.635 349.598 590.618 343.354 590.618 335.493ZM640.451 350.43C640.451 346.374 642.342 343.4 646.124 341.509C649.93 339.618 655.604 338.512 663.146 338.193V335.869C663.146 333.727 662.656 331.882 661.676 330.332C660.719 328.76 658.805 327.974 655.934 327.974C654.111 327.974 652.653 328.156 651.559 328.521C650.465 328.862 649.463 329.329 648.551 329.922C647.662 330.492 646.808 331.232 645.988 332.144C645.372 332.827 644.791 332.861 644.244 332.246L642.467 330.195C641.966 329.626 642.137 328.942 642.98 328.145C644.188 327.005 645.361 326.151 646.5 325.581C647.64 325.011 649.052 324.533 650.739 324.146C652.448 323.735 654.179 323.53 655.934 323.53C660.696 323.53 664.091 324.761 666.119 327.222C668.147 329.66 669.161 333.009 669.161 337.271V358.462C669.161 359.487 668.649 360 667.623 360H664.547C663.659 360 663.214 359.487 663.214 358.462V356.787H663.146C661.346 358.2 659.58 359.191 657.848 359.761C656.139 360.308 654.225 360.581 652.106 360.581C648.369 360.581 645.486 359.692 643.458 357.915C641.453 356.115 640.451 353.62 640.451 350.43ZM646.671 350.566C646.671 351.979 646.967 353.118 647.56 353.984C648.152 354.827 648.973 355.374 650.021 355.625C651.069 355.853 652.163 355.967 653.302 355.967C655.057 355.967 656.72 355.796 658.292 355.454C659.865 355.112 661.482 354.212 663.146 352.754V342.671C658.543 343.013 655.262 343.434 653.302 343.936C651.342 344.414 649.747 345.257 648.517 346.465C647.286 347.65 646.671 349.017 646.671 350.566ZM678.56 328.623C677.534 328.623 677.021 328.224 677.021 327.427V325.308C677.021 324.51 677.534 324.111 678.56 324.111H682.593V321.035C682.593 320.579 682.707 320.146 682.935 319.736L685.327 315.396C685.76 314.598 686.113 314.199 686.387 314.199H687.583C688.267 314.199 688.608 314.598 688.608 315.396V324.111H695.889C696.914 324.111 697.427 324.51 697.427 325.308V327.427C697.427 328.224 696.914 328.623 695.889 328.623H688.608V350.396C688.608 352.788 688.962 354.349 689.668 355.078C690.397 355.785 691.263 356.138 692.266 356.138C693.04 356.138 693.963 355.91 695.034 355.454C696.128 354.998 696.88 354.611 697.29 354.292C697.7 353.973 698.019 354.076 698.247 354.6L699.375 357.231C699.557 357.687 699.421 358.052 698.965 358.325C698.076 358.849 696.777 359.362 695.068 359.863C693.359 360.342 691.65 360.581 689.941 360.581C687.572 360.581 685.749 359.727 684.473 358.018C683.219 356.309 682.593 353.893 682.593 350.771V328.623H678.56ZM705.663 342.056C705.663 336.701 706.984 332.28 709.627 328.794C712.294 325.285 716.361 323.53 721.83 323.53C725.521 323.53 728.335 324.191 730.272 325.513C732.232 326.812 733.644 328.145 734.51 329.512C734.989 330.264 734.886 330.868 734.203 331.323L732.049 332.725C731.366 333.203 730.682 332.896 729.999 331.802C729.338 330.754 728.404 329.854 727.196 329.102C726.011 328.35 724.222 327.974 721.83 327.974C718.708 327.974 716.293 329.124 714.584 331.426C712.875 333.727 712.02 337.271 712.02 342.056C712.02 346.841 712.875 350.384 714.584 352.686C716.293 354.987 718.708 356.138 721.83 356.138C724.359 356.138 726.296 355.659 727.64 354.702C728.985 353.722 729.964 352.663 730.58 351.523C731.172 350.452 731.844 350.145 732.596 350.601L734.886 351.968C735.57 352.378 735.672 352.993 735.194 353.813C734.624 354.793 733.325 356.172 731.297 357.949C729.292 359.704 726.136 360.581 721.83 360.581C716.361 360.581 712.294 358.838 709.627 355.352C706.984 351.842 705.663 347.41 705.663 342.056ZM745.617 360C744.592 360 744.079 359.487 744.079 358.462V311.089C744.079 310.063 744.592 309.551 745.617 309.551H748.557C749.582 309.551 750.095 310.063 750.095 311.089V326.333C750.095 327.017 750.072 327.7 750.027 328.384H750.163C751.644 326.743 753.239 325.524 754.948 324.727C756.657 323.929 758.788 323.53 761.34 323.53C765.487 323.53 768.461 324.704 770.261 327.051C772.084 329.375 772.995 332.565 772.995 336.621V358.462C772.995 359.487 772.483 360 771.457 360H768.518C767.492 360 766.98 359.487 766.98 358.462V338.262C766.98 333.796 766.239 330.97 764.758 329.785C763.277 328.577 761.397 327.974 759.118 327.974C756.156 327.974 753.912 328.862 752.385 330.64C750.858 332.394 750.095 335.413 750.095 339.697V358.462C750.095 359.487 749.582 360 748.557 360H745.617ZM785.572 360C784.547 360 784.034 359.487 784.034 358.462V311.089C784.034 310.063 784.547 309.551 785.572 309.551H788.511C789.537 309.551 790.05 310.063 790.05 311.089V326.299C790.05 327.005 790.027 327.7 789.981 328.384H790.05C791.303 326.88 792.716 325.695 794.288 324.829C795.86 323.963 797.956 323.53 800.577 323.53C805.134 323.53 808.598 325.399 810.968 329.136C813.337 332.85 814.522 337.157 814.522 342.056C814.522 346.955 813.337 351.273 810.968 355.01C808.598 358.724 805.134 360.581 800.577 360.581C797.956 360.581 795.86 360.148 794.288 359.282C792.716 358.416 791.303 357.231 790.05 355.728H789.981L789.776 358.462C789.708 359.487 789.263 360 788.443 360H785.572ZM790.05 345.986C790.05 349.404 790.858 351.956 792.476 353.643C794.117 355.306 796.168 356.138 798.629 356.138C802.092 356.138 804.542 354.839 805.977 352.241C807.436 349.644 808.165 346.248 808.165 342.056C808.165 337.863 807.436 334.468 805.977 331.87C804.542 329.272 802.092 327.974 798.629 327.974C796.168 327.974 794.117 328.817 792.476 330.503C790.858 332.166 790.05 334.707 790.05 338.125V345.986ZM821.767 350.43C821.767 346.374 823.658 343.4 827.441 341.509C831.246 339.618 836.92 338.512 844.462 338.193V335.869C844.462 333.727 843.972 331.882 842.993 330.332C842.035 328.76 840.121 327.974 837.25 327.974C835.427 327.974 833.969 328.156 832.875 328.521C831.782 328.862 830.779 329.329 829.868 329.922C828.979 330.492 828.124 331.232 827.304 332.144C826.689 332.827 826.108 332.861 825.561 332.246L823.784 330.195C823.282 329.626 823.453 328.942 824.296 328.145C825.504 327.005 826.677 326.151 827.817 325.581C828.956 325.011 830.369 324.533 832.055 324.146C833.764 323.735 835.496 323.53 837.25 323.53C842.013 323.53 845.408 324.761 847.436 327.222C849.464 329.66 850.478 333.009 850.478 337.271V358.462C850.478 359.487 849.965 360 848.94 360H845.864C844.975 360 844.531 359.487 844.531 358.462V356.787H844.462C842.662 358.2 840.896 359.191 839.164 359.761C837.455 360.308 835.541 360.581 833.422 360.581C829.685 360.581 826.803 359.692 824.775 357.915C822.77 356.115 821.767 353.62 821.767 350.43ZM827.988 350.566C827.988 351.979 828.284 353.118 828.876 353.984C829.469 354.827 830.289 355.374 831.337 355.625C832.385 355.853 833.479 355.967 834.618 355.967C836.373 355.967 838.036 355.796 839.609 355.454C841.181 355.112 842.799 354.212 844.462 352.754V342.671C839.859 343.013 836.578 343.434 834.618 343.936C832.659 344.414 831.064 345.257 829.833 346.465C828.603 347.65 827.988 349.017 827.988 350.566ZM863.157 360C862.132 360 861.619 359.487 861.619 358.462V315.806C861.619 315.35 861.733 314.917 861.961 314.507L864.353 310.166C864.786 309.368 865.14 308.97 865.413 308.97H866.609C867.293 308.97 867.635 309.368 867.635 310.166V358.462C867.635 359.487 867.122 360 866.097 360H863.157ZM880.28 360C879.254 360 878.742 359.487 878.742 358.462V315.806C878.742 315.35 878.856 314.917 879.084 314.507L881.476 310.166C881.909 309.368 882.262 308.97 882.536 308.97H883.732C884.416 308.97 884.757 309.368 884.757 310.166V358.462C884.757 359.487 884.245 360 883.219 360H880.28ZM591.609 436C589.969 436 589.433 435.248 590.003 433.744L606.751 389.755C607.457 387.909 608.528 386.986 609.964 386.986H614.749C616.184 386.986 617.255 387.909 617.962 389.755L634.71 433.744C635.279 435.248 634.744 436 633.103 436H627.669C626.165 436 625.117 435.214 624.524 433.642L621.038 424.447H603.675L600.188 433.642C599.596 435.214 598.548 436 597.044 436H591.609ZM606.853 415.971H617.859L613.655 405.102C613.154 403.826 612.846 402.903 612.732 402.333C612.641 401.741 612.538 400.875 612.425 399.735H612.288C612.174 400.875 612.06 401.741 611.946 402.333C611.855 402.903 611.559 403.826 611.057 405.102L606.853 415.971ZM640.177 432.65C639.471 431.99 639.323 431.374 639.733 430.805L641.271 428.651C641.772 427.968 642.513 428.002 643.493 428.754C644.837 429.779 646.329 430.6 647.97 431.215C649.633 431.83 651.525 432.138 653.644 432.138C654.897 432.138 656.014 431.99 656.994 431.693C657.973 431.374 658.828 430.793 659.557 429.95C660.309 429.107 660.685 427.979 660.685 426.566C660.685 425.746 660.503 424.971 660.138 424.242C659.796 423.513 659.249 422.932 658.497 422.499C657.768 422.043 657.05 421.69 656.344 421.439C655.182 421.007 654.02 420.653 652.858 420.38C651.718 420.084 650.215 419.639 648.346 419.047C647.093 418.66 645.908 418.113 644.791 417.406C643.675 416.677 642.695 415.697 641.852 414.467C641.032 413.236 640.621 411.539 640.621 409.374C640.621 407.164 641.294 405.261 642.638 403.666C643.982 402.071 645.669 400.989 647.697 400.419C649.725 399.826 651.696 399.53 653.61 399.53C656.435 399.53 658.702 399.861 660.411 400.521C662.143 401.16 663.636 401.923 664.889 402.812C665.618 403.336 665.721 403.939 665.197 404.623L663.659 406.674C663.18 407.335 662.439 407.312 661.437 406.605C660.594 406.013 659.397 405.455 657.848 404.931C656.299 404.407 654.943 404.145 653.781 404.145C652.345 404.145 651.115 404.304 650.089 404.623C649.064 404.942 648.232 405.489 647.594 406.264C646.956 407.038 646.637 407.95 646.637 408.998C646.637 409.796 646.762 410.513 647.013 411.151C647.264 411.767 647.731 412.336 648.414 412.86C649.098 413.384 650.055 413.806 651.285 414.125C653.2 414.626 654.943 415.082 656.515 415.492C658.11 415.902 659.546 416.404 660.822 416.996C662.485 417.771 663.761 418.625 664.65 419.56C665.561 420.494 666.188 421.508 666.53 422.602C666.871 423.673 667.042 424.869 667.042 426.19C667.042 428.629 666.313 430.691 664.855 432.377C663.419 434.063 661.813 435.191 660.035 435.761C658.258 436.308 656.116 436.581 653.61 436.581C650.215 436.581 647.298 436.103 644.86 435.146C642.444 434.166 640.883 433.334 640.177 432.65ZM673.843 432.65C673.136 431.99 672.988 431.374 673.398 430.805L674.936 428.651C675.438 427.968 676.178 428.002 677.158 428.754C678.503 429.779 679.995 430.6 681.636 431.215C683.299 431.83 685.19 432.138 687.31 432.138C688.563 432.138 689.679 431.99 690.659 431.693C691.639 431.374 692.493 430.793 693.223 429.95C693.975 429.107 694.351 427.979 694.351 426.566C694.351 425.746 694.168 424.971 693.804 424.242C693.462 423.513 692.915 422.932 692.163 422.499C691.434 422.043 690.716 421.69 690.01 421.439C688.848 421.007 687.686 420.653 686.523 420.38C685.384 420.084 683.88 419.639 682.012 419.047C680.758 418.66 679.574 418.113 678.457 417.406C677.34 416.677 676.361 415.697 675.518 414.467C674.697 413.236 674.287 411.539 674.287 409.374C674.287 407.164 674.959 405.261 676.304 403.666C677.648 402.071 679.334 400.989 681.362 400.419C683.39 399.826 685.361 399.53 687.275 399.53C690.101 399.53 692.368 399.861 694.077 400.521C695.809 401.16 697.301 401.923 698.555 402.812C699.284 403.336 699.386 403.939 698.862 404.623L697.324 406.674C696.846 407.335 696.105 407.312 695.102 406.605C694.259 406.013 693.063 405.455 691.514 404.931C689.964 404.407 688.608 404.145 687.446 404.145C686.011 404.145 684.78 404.304 683.755 404.623C682.729 404.942 681.898 405.489 681.26 406.264C680.622 407.038 680.303 407.95 680.303 408.998C680.303 409.796 680.428 410.513 680.679 411.151C680.929 411.767 681.396 412.336 682.08 412.86C682.764 413.384 683.721 413.806 684.951 414.125C686.865 414.626 688.608 415.082 690.181 415.492C691.776 415.902 693.211 416.404 694.487 416.996C696.151 417.771 697.427 418.625 698.315 419.56C699.227 420.494 699.853 421.508 700.195 422.602C700.537 423.673 700.708 424.869 700.708 426.19C700.708 428.629 699.979 430.691 698.52 432.377C697.085 434.063 695.478 435.191 693.701 435.761C691.924 436.308 689.782 436.581 687.275 436.581C683.88 436.581 680.963 436.103 678.525 435.146C676.11 434.166 674.549 433.334 673.843 432.65ZM706.961 418.056C706.961 412.701 708.374 408.28 711.2 404.794C714.048 401.285 718.207 399.53 723.675 399.53C729.144 399.53 733.291 401.285 736.117 404.794C738.965 408.28 740.389 412.701 740.389 418.056C740.389 423.41 738.965 427.842 736.117 431.352C733.291 434.838 729.144 436.581 723.675 436.581C718.207 436.581 714.048 434.838 711.2 431.352C708.374 427.842 706.961 423.41 706.961 418.056ZM713.319 418.056C713.319 422.841 714.265 426.384 716.156 428.686C718.047 430.987 720.554 432.138 723.675 432.138C726.797 432.138 729.304 430.987 731.195 428.686C733.086 426.384 734.032 422.841 734.032 418.056C734.032 413.271 733.086 409.727 731.195 407.426C729.304 405.124 726.797 403.974 723.675 403.974C720.554 403.974 718.047 405.124 716.156 407.426C714.265 409.727 713.319 413.271 713.319 418.056ZM747.6 418.056C747.6 412.701 748.921 408.28 751.565 404.794C754.231 401.285 758.298 399.53 763.767 399.53C767.458 399.53 770.272 400.191 772.209 401.513C774.169 402.812 775.582 404.145 776.447 405.512C776.926 406.264 776.823 406.868 776.14 407.323L773.986 408.725C773.303 409.203 772.619 408.896 771.936 407.802C771.275 406.754 770.341 405.854 769.133 405.102C767.948 404.35 766.159 403.974 763.767 403.974C760.645 403.974 758.23 405.124 756.521 407.426C754.812 409.727 753.957 413.271 753.957 418.056C753.957 422.841 754.812 426.384 756.521 428.686C758.23 430.987 760.645 432.138 763.767 432.138C766.296 432.138 768.233 431.659 769.577 430.702C770.922 429.722 771.902 428.663 772.517 427.523C773.109 426.452 773.781 426.145 774.533 426.601L776.823 427.968C777.507 428.378 777.61 428.993 777.131 429.813C776.561 430.793 775.263 432.172 773.235 433.949C771.229 435.704 768.073 436.581 763.767 436.581C758.298 436.581 754.231 434.838 751.565 431.352C748.921 427.842 747.6 423.41 747.6 418.056ZM787.554 436C786.529 436 786.016 435.487 786.016 434.462V401.649C786.016 400.624 786.529 400.111 787.554 400.111H790.494C791.519 400.111 792.032 400.624 792.032 401.649V434.462C792.032 435.487 791.519 436 790.494 436H787.554ZM787.554 393.617C786.529 393.617 786.016 393.104 786.016 392.079V389.14C786.016 388.114 786.529 387.602 787.554 387.602H790.494C791.519 387.602 792.032 388.114 792.032 389.14V392.079C792.032 393.104 791.519 393.617 790.494 393.617H787.554ZM801.191 426.43C801.191 422.374 803.082 419.4 806.865 417.509C810.67 415.618 816.344 414.512 823.886 414.193V411.869C823.886 409.727 823.396 407.882 822.416 406.332C821.459 404.76 819.545 403.974 816.674 403.974C814.851 403.974 813.393 404.156 812.299 404.521C811.205 404.862 810.203 405.329 809.291 405.922C808.403 406.492 807.548 407.232 806.728 408.144C806.113 408.827 805.532 408.861 804.985 408.246L803.207 406.195C802.706 405.626 802.877 404.942 803.72 404.145C804.928 403.005 806.101 402.151 807.241 401.581C808.38 401.011 809.793 400.533 811.479 400.146C813.188 399.735 814.92 399.53 816.674 399.53C821.437 399.53 824.832 400.761 826.86 403.222C828.888 405.66 829.902 409.009 829.902 413.271V434.462C829.902 435.487 829.389 436 828.364 436H825.287C824.399 436 823.954 435.487 823.954 434.462V432.787H823.886C822.086 434.2 820.32 435.191 818.588 435.761C816.879 436.308 814.965 436.581 812.846 436.581C809.109 436.581 806.227 435.692 804.199 433.915C802.193 432.115 801.191 429.62 801.191 426.43ZM807.411 426.566C807.411 427.979 807.708 429.118 808.3 429.984C808.893 430.827 809.713 431.374 810.761 431.625C811.809 431.853 812.903 431.967 814.042 431.967C815.797 431.967 817.46 431.796 819.033 431.454C820.605 431.112 822.223 430.212 823.886 428.754V418.671C819.283 419.013 816.002 419.434 814.042 419.936C812.083 420.414 810.488 421.257 809.257 422.465C808.027 423.65 807.411 425.017 807.411 426.566ZM839.3 404.623C838.274 404.623 837.762 404.224 837.762 403.427V401.308C837.762 400.51 838.274 400.111 839.3 400.111H843.333V397.035C843.333 396.579 843.447 396.146 843.675 395.736L846.067 391.396C846.5 390.598 846.853 390.199 847.127 390.199H848.323C849.007 390.199 849.349 390.598 849.349 391.396V400.111H856.629C857.654 400.111 858.167 400.51 858.167 401.308V403.427C858.167 404.224 857.654 404.623 856.629 404.623H849.349V426.396C849.349 428.788 849.702 430.349 850.408 431.078C851.137 431.785 852.003 432.138 853.006 432.138C853.781 432.138 854.703 431.91 855.774 431.454C856.868 430.998 857.62 430.611 858.03 430.292C858.44 429.973 858.759 430.076 858.987 430.6L860.115 433.231C860.297 433.687 860.161 434.052 859.705 434.325C858.816 434.849 857.518 435.362 855.809 435.863C854.1 436.342 852.391 436.581 850.682 436.581C848.312 436.581 846.489 435.727 845.213 434.018C843.96 432.309 843.333 429.893 843.333 426.771V404.623H839.3ZM869.889 436C868.864 436 868.351 435.487 868.351 434.462V401.649C868.351 400.624 868.864 400.111 869.889 400.111H872.829C873.854 400.111 874.367 400.624 874.367 401.649V434.462C874.367 435.487 873.854 436 872.829 436H869.889ZM869.889 393.617C868.864 393.617 868.351 393.104 868.351 392.079V389.14C868.351 388.114 868.864 387.602 869.889 387.602H872.829C873.854 387.602 874.367 388.114 874.367 389.14V392.079C874.367 393.104 873.854 393.617 872.829 393.617H869.889ZM883.526 418.056C883.526 412.701 884.938 408.28 887.764 404.794C890.612 401.285 894.771 399.53 900.239 399.53C905.708 399.53 909.855 401.285 912.681 404.794C915.529 408.28 916.953 412.701 916.953 418.056C916.953 423.41 915.529 427.842 912.681 431.352C909.855 434.838 905.708 436.581 900.239 436.581C894.771 436.581 890.612 434.838 887.764 431.352C884.938 427.842 883.526 423.41 883.526 418.056ZM889.883 418.056C889.883 422.841 890.829 426.384 892.72 428.686C894.611 430.987 897.118 432.138 900.239 432.138C903.361 432.138 905.868 430.987 907.759 428.686C909.65 426.384 910.596 422.841 910.596 418.056C910.596 413.271 909.65 409.727 907.759 407.426C905.868 405.124 903.361 403.974 900.239 403.974C897.118 403.974 894.611 405.124 892.72 407.426C890.829 409.727 889.883 413.271 889.883 418.056ZM927.65 436C926.625 436 926.112 435.487 926.112 434.462V401.649C926.112 400.624 926.625 400.111 927.65 400.111H930.521C931.547 400.111 932.059 400.624 932.059 401.649V404.384H932.196C933.677 402.743 935.272 401.524 936.981 400.727C938.69 399.929 940.821 399.53 943.373 399.53C947.52 399.53 950.494 400.704 952.294 403.051C954.117 405.375 955.028 408.565 955.028 412.621V434.462C955.028 435.487 954.515 436 953.49 436H950.551C949.525 436 949.012 435.487 949.012 434.462V414.262C949.012 409.796 948.272 406.97 946.791 405.785C945.31 404.577 943.43 403.974 941.151 403.974C938.189 403.974 935.944 404.862 934.418 406.64C932.891 408.394 932.128 411.413 932.128 415.697V434.462C932.128 435.487 931.615 436 930.59 436H927.65Z" fill="white"/>
<defs>
<clipPath id="clip0_2181_104">
<rect width="740.497" height="769" fill="white" transform="translate(19.5356 29.6477) rotate(1.45569)"/>
</clipPath>
</defs>
</svg>
