<svg width="1085" height="1677" viewBox="0 0 1085 1677" fill="none" xmlns="http://www.w3.org/2000/svg">
<rect x="90.6785" width="983" height="598" fill="#0A0A0A"/>
<g clip-path="url(#clip0_2180_18)">
<path d="M544.711 59.4768C533.358 60.5887 523.584 65.442 516.292 73.3593C512.138 77.9553 506.367 88.0119 507.326 89.0366C508.189 89.9588 518.806 86.8275 525.286 83.6912C536.052 78.563 544.308 71.4704 550.35 62.321C551.274 60.844 551.703 59.4544 551.315 59.2445C550.926 59.0346 547.969 59.1595 544.711 59.4768Z" fill="white"/>
<path d="M555.498 65.1524C553.955 67.714 552.817 69.8858 553.011 69.9908C553.107 70.0933 556.703 71.9852 560.884 74.0921C569.828 78.6208 577.032 85.8061 581.817 95.1307L585.202 101.419L586.382 97.6474C587.126 95.4657 587.687 92.779 587.715 91.6794C587.743 90.5797 588.263 89.4926 588.858 89.3077C590.943 88.6604 585.103 78.2087 579.633 72.5679C574.257 67.1296 566.793 62.4385 561.31 61.1988C558.468 60.6264 558.067 60.9163 555.498 65.1524Z" fill="white"/>
<path d="M401.658 69.7461C355.321 75.6709 313.762 95.1214 278.678 127.141C269.905 135.22 254.699 152.339 250.897 158.545C250.486 159.235 252.986 161.599 256.854 164.398L263.528 169.169L269.431 161.617C277.783 150.725 300.076 129.885 311.703 121.878C341.466 101.627 371.497 90.1865 405.276 86.2434C417.916 84.864 440.859 84.9469 453.13 86.4591C461.866 87.5814 461.564 87.8738 462.338 76.7899L462.687 70.7969L457.784 69.972C447.388 68.3074 413.909 68.1569 401.658 69.7461Z" fill="white"/>
<path d="M473.247 73.766C472.033 75.0355 470.791 77.4048 470.455 78.9968C469.465 83.0729 471.617 103.034 474.27 114.905C477.192 127.784 481.21 136.288 489.047 145.691C496.885 154.993 497.887 158.219 496.782 170.695C494.873 191.553 490.521 203.947 482.141 212.037C472.652 221.198 459.844 225.274 441.933 224.819C431.403 224.552 430.913 224.439 430.379 222.225C429.224 217.294 429.63 216.804 435.651 216.257C443.252 215.55 450.427 212.231 455.086 207.148C461.158 200.7 462.118 197.823 461.067 188.794L460.079 181.166L463.817 177.46C469.17 172.194 468.966 168.588 463.115 162.437C460.524 159.771 456.634 153.97 454.293 149.209C446.804 133.914 431.602 119.823 417.252 114.857C411.59 112.912 408.156 112.425 396.641 112.132C384.536 111.825 382.068 112.062 376.406 114.019C362.796 118.675 354.023 126.754 345.953 142.054C343.573 146.595 341.117 150.234 340.329 150.214C339.64 150.197 338.141 151.059 337.132 152.033C335.214 153.885 335.115 153.883 330.455 151.264C326.279 148.957 324.906 148.722 316.337 148.804C307.669 148.884 306.182 149.246 299.008 152.565C292.628 155.604 289.115 158.216 280.13 166.89C268.222 178.191 264.121 180.688 254.926 182.155C232.875 185.696 200.904 168.878 186.223 145.898C185.182 144.271 183.632 143.231 182.156 143.194C173.594 142.976 173.784 166.488 182.565 185.218C195.456 212.754 219.314 231.066 250.566 237.462C273.099 242.036 293.283 238.347 312.203 226.224C323.615 218.912 335.967 205.621 338.931 197.494L339.996 194.32L343.248 198.104C346.786 202.295 359.402 209.618 369.548 213.377L376.28 215.849L376.162 228.249L376.142 240.653L371.135 243.927C363.826 248.643 355.621 257.637 351.786 265.142C347.127 274.127 347.055 280.827 351.268 301.041C357.246 329.302 358.286 342.632 355.196 351.857C352.952 358.802 342.696 374.847 336.947 380.202C330.491 386.24 319.321 391.758 297.754 399.513C276.587 407.078 273.003 408.587 267.395 412.246C264.99 413.885 262.696 415.027 262.31 414.717C260.663 413.675 249.61 395.188 245.024 385.769C231.831 358.525 225.29 333.051 223.708 302.3C222.994 287.778 223.953 273.297 226.802 254.164L227.411 249.578L221.731 248.333C218.501 247.551 214.976 246.761 213.899 246.533C211.941 246.083 211.633 246.576 210.504 252.249C206.089 274.844 205.905 305.349 209.993 330.461C221.428 399.774 264.324 459.483 325.931 492.059C347.408 503.308 368.301 510.441 393.3 514.877C406.535 517.214 440.692 517.782 454.824 515.841C538.221 504.756 962.91 479.336 990.825 400.02C1010.99 342.913 1007.85 280.514 982.24 226.346C976.821 214.804 963.115 192.249 961.069 191.396C959.315 190.652 947.466 199.654 948.314 201.176C948.692 201.785 950.968 205.244 953.435 208.908C970.133 233.84 981.822 266.048 986.207 298.87C988.097 313.622 987.309 344.612 984.574 359.248C976.234 404.55 941.429 472.088 924.449 473.757C907.468 475.426 496.452 493.691 450.815 499.233C432.047 501.457 406.273 500.402 387.954 496.636C381.489 495.271 376.104 494.034 375.912 493.829C375.72 493.624 379.408 488.016 384.01 481.331C388.709 474.648 395.769 464.224 399.76 458.323C403.753 452.323 409.757 444.673 412.998 441.154C421.602 431.97 428.619 423.245 435.065 413.706C442.128 403.182 445.545 396.566 451.738 381.519L456.673 369.44L464.365 365.134C474.056 359.679 481.83 352.174 485.972 344.176C488.663 339.043 489.423 336.262 489.889 329.571C490.63 319.787 489.033 312.844 484.22 304.619C482.52 301.775 481.407 299.046 481.811 298.656C482.212 298.366 494.081 292.466 508.239 285.623C536.953 271.748 542.848 268.397 550.006 261.877C556.356 256.136 558.206 253.082 561.604 243.365C567.03 227.498 579.671 175.702 579.856 168.405C579.943 165.006 583.575 161.597 591.35 157.893C594.141 156.564 597.24 154.742 598.346 153.87C603.782 149.206 607.15 136.788 608.329 117.512C609.157 104.328 609.016 102.124 607.52 98.9852C606.491 96.8584 604.954 95.3188 603.68 95.0864C601.424 94.7289 601.424 94.7289 601.071 108.624C600.703 123.12 598.586 136.67 595.65 143.698C594.186 147.062 592.876 148.229 586.991 151.18C578.811 155.274 573.479 159.74 572.799 163.224C572.471 164.516 571.433 170.491 570.294 176.565C567.871 190.507 558.566 227.283 554.403 239.981C549.182 255.554 544.46 259.235 508.468 276.626C496.503 282.424 484.137 288.512 480.945 290.131L475.254 293.188L471.325 288.887L467.296 284.683L478.261 279.46C490.224 273.762 503.614 266.1 509.941 261.259C521.187 252.742 530.602 238.776 536.131 222.712C537.411 218.843 540.026 212.807 541.988 209.256C549.846 194.551 557.115 172.028 557.386 161.332C557.475 157.833 557.379 157.73 553.738 157.638L549.998 157.543L548.695 166.212C547.283 175.28 543.084 189.377 541.903 189.347C541.509 189.337 540.871 187.321 540.639 184.814C540.309 182.305 537.26 174.425 533.9 167.137C527.83 154.079 527.833 153.979 521.815 150.525C518.616 148.543 515.699 147.068 515.497 147.263C515.295 147.458 518.194 153.534 521.945 160.931C532.361 181.202 533.548 184.834 533.261 196.13C532.848 208.524 529.808 219.65 523.081 232.483C516.561 244.922 510.281 251.764 498.468 259.367C480.246 271.107 456.055 281.396 414.64 295.148C400.438 299.889 388.514 304.088 388.014 304.375C387.206 305.155 388.916 311.5 389.999 311.528C391.376 311.563 435.971 296.691 447.206 292.475C453.371 290.131 458.736 288.267 459.228 288.279C459.819 288.294 463.949 292.4 468.45 297.416C478.602 308.678 481.879 315.363 482.117 325.372C482.453 339.285 474.883 350.397 459.305 358.904C451.115 363.397 449.182 365.849 444.438 378.132C437.051 397.551 425.978 414.775 409.154 433.554C404.388 438.935 398.394 446.185 396.039 449.726C393.586 453.265 386.735 463.194 380.804 471.846C365.569 493.966 368.183 491.832 359.69 488.915C346.806 484.386 326.585 474.069 314.385 465.857C301.701 457.332 281.29 439.007 272.889 428.591C268.115 422.667 267.929 422.263 269.546 420.603C272.078 417.867 281.539 413.706 300.019 407.273C334.302 395.14 344.026 388.385 355.766 368.176C359.368 362.066 362.698 355.048 363.364 352.064C366.016 340.728 364.719 325.89 358.829 298.032C355.311 281.437 355.378 274.937 359.101 267.929C366.238 254.506 388.757 240.273 411.151 234.84C417.293 233.396 423.806 232.861 438.876 232.744C460.055 232.482 464.507 231.695 475.472 226.472C483.25 222.668 492.941 213.311 496.579 205.801C500.211 198.491 503.535 183.971 504.655 170.895C505.808 156.52 504.449 151.884 496.04 141.767C487.056 131.035 483.335 122.438 480.597 106.163C478.709 95.2117 477.682 81.3811 478.593 80.4039C479.603 79.4293 485.958 85.0925 490.825 91.2182C492.825 93.8698 494.836 96.1217 495.131 96.1292C495.525 96.1392 496.076 93.8524 496.543 90.9633C497.356 86.0824 497.266 85.78 493.721 81.8887C485.097 72.4666 477.396 69.37 473.247 73.766ZM408.331 121.032L414.503 122.289L415.075 126.905C415.806 133.026 414.479 146.497 412.315 154.144C407.55 171.128 396.788 183.859 381.341 191.069C372.67 195.15 363.247 197.812 358.228 197.684C354.685 197.594 349.934 194.672 349.212 192.053C348.037 187.922 349.288 161.945 351.048 154.688C357.647 127.547 378.843 114.981 408.331 121.032ZM438.284 139.799C442.401 144.405 446.198 150.003 448.158 154.255C449.934 158.001 453.148 163.284 455.345 165.941L459.455 170.847L455.914 174.558C452.373 178.269 452.269 178.467 452.695 184.98C452.997 188.589 453.39 192.5 453.655 193.707C454.469 196.529 448.674 203.684 443.589 206.155C440.995 207.49 437.038 208.19 432.011 208.362C421.958 208.707 420.746 209.876 421.525 217.999C421.837 221.208 422.16 224.017 422.25 224.319C422.245 224.519 420.163 225.066 417.395 225.496C410.18 226.513 399.468 229.542 392.2 232.658C388.715 234.17 385.434 235.387 385.04 235.377C384.548 235.365 384.264 231.056 384.396 225.858C384.764 211.363 383.818 209.838 372.691 205.954L368.785 204.654L374.942 202.61C392.524 196.655 406.902 185.016 414.053 170.994C419.546 160.23 421.614 152.48 422.767 138.104L423.655 126.423L427.619 129.325C429.842 130.982 434.645 135.705 438.284 139.799ZM328.364 159.913C332.787 164.127 333.682 167.651 333.561 180.152C333.512 189.854 333.285 191.048 330.584 196.581C326.542 204.481 313.628 216.657 303.742 222.008C299.649 224.204 292.681 227.128 288.313 228.518C268.556 234.818 240.516 229.904 219.291 216.461C201.945 205.416 186.677 182.321 184.199 163.552C183.788 160.341 183.562 157.634 183.764 157.439C183.966 157.244 186.178 159.301 188.674 161.865C195.584 168.943 206.108 177.213 212.908 180.887C226.412 188.132 245.511 192.219 256.89 190.107C267.279 188.171 272.874 185.012 282.773 175.26C293.583 164.531 297.494 161.73 305.055 158.721C309.232 157.126 312.792 156.517 317.91 156.647C324.405 156.812 325.286 157.034 328.364 159.913Z" fill="white"/>
<path d="M545.641 77.106C543.107 79.9425 533.992 86.0129 527.415 89.0468C520.437 92.3706 519.72 93.4527 519.507 101.85C519.416 105.449 519.605 105.754 522.164 105.819C525.706 105.909 535.515 103.557 540.79 101.391C548.058 98.2742 560.294 85.681 560.408 81.1824C560.438 79.9828 550.999 75.5416 548.342 75.474C547.555 75.454 546.356 76.1238 545.641 77.106Z" fill="white"/>
<path d="M563.074 88.6527C556.88 99.899 544.165 108.079 528.832 110.79C524.381 111.577 520.621 112.282 520.421 112.377C520.023 112.567 522.522 118.832 523.756 120.664C524.987 122.596 538.957 119.25 548.724 114.697C560.585 109.096 573.134 95.8106 571.502 90.2673C571.232 89.2601 569.802 87.4232 568.353 86.286L565.651 84.1167L563.074 88.6527Z" fill="white"/>
<path d="M507.663 95.1475C504.996 95.4798 504.892 95.6772 504.725 102.275C504.415 114.471 508.196 124.57 516.526 133.885C522.175 140.231 523.437 140.963 523.516 137.864C523.556 136.264 524.255 135.882 527.109 135.955L530.751 136.047L526.8 132.646C517.066 124.296 513.711 116.808 514.038 103.912C514.297 93.7155 514.678 94.2254 507.663 95.1475Z" fill="white"/>
<path d="M573.483 101.421C566.52 111.948 554.597 119.948 539.317 124.461C528.304 127.682 528.297 127.982 537.623 133.021C543.643 136.375 543.84 136.38 549.091 135.113C561.381 132.024 574.118 122.944 579.182 113.57L581.355 109.424L579.428 103.873C578.424 100.747 577.214 98.015 576.825 97.8051C576.439 97.4952 574.92 99.1571 573.483 101.421Z" fill="white"/>
<path d="M588.992 107.317C583.854 119.591 574.125 130.447 563.147 136.17C555.861 139.986 544.278 142.393 534.335 142.24L525.872 142.025L530.151 144.134C553.988 155.544 583.29 141.784 590.547 115.86C591.522 112.383 592.237 107.5 592.106 104.896L591.933 100.09L588.992 107.317Z" fill="white"/>
</g>
<path d="M595.54 284C593.945 284 593.147 283.146 593.147 281.437V237.55C593.147 235.841 593.945 234.986 595.54 234.986H600.598C602.558 234.986 604.039 235.784 605.042 237.379L622.473 265.372H622.713C622.599 264.005 622.542 262.638 622.542 261.271V237.55C622.542 235.841 623.339 234.986 624.934 234.986H630.13C631.725 234.986 632.522 235.841 632.522 237.55V281.437C632.522 283.146 631.725 284 630.13 284H625.413C623.453 284 621.972 283.202 620.969 281.607L603.196 253.102H602.957C603.071 254.469 603.128 255.836 603.128 257.203V281.437C603.128 283.146 602.33 284 600.735 284H595.54ZM642.296 266.056C642.296 260.405 643.709 255.904 646.535 252.555C649.36 249.205 653.405 247.53 658.668 247.53C663.043 247.53 666.666 249.068 669.537 252.145C672.431 255.198 673.878 260.086 673.878 266.808C673.878 267.833 673.411 268.346 672.477 268.346H648.654C649.041 272.743 650.226 275.808 652.208 277.54C654.191 279.249 656.435 280.104 658.942 280.104C661.585 280.104 663.613 279.659 665.026 278.771C666.438 277.882 667.475 277.005 668.136 276.139C668.865 275.182 669.572 274.999 670.255 275.592L672.272 277.335C672.796 277.791 672.796 278.417 672.272 279.215C671.839 279.876 670.597 280.935 668.546 282.394C666.518 283.852 663.317 284.581 658.942 284.581C653.245 284.581 649.041 282.906 646.329 279.557C643.641 276.207 642.296 271.707 642.296 266.056ZM648.517 263.902H667.828C667.737 260.712 666.917 257.921 665.368 255.528C663.818 253.113 661.539 251.905 658.532 251.905C655.888 251.905 653.644 252.794 651.798 254.571C649.952 256.326 648.859 259.436 648.517 263.902ZM681.431 252.623C680.405 252.623 679.893 252.224 679.893 251.427V249.308C679.893 248.51 680.405 248.111 681.431 248.111H685.464V245.035C685.464 244.579 685.578 244.146 685.806 243.736L688.198 239.396C688.631 238.598 688.984 238.199 689.258 238.199H690.454C691.138 238.199 691.479 238.598 691.479 239.396V248.111H698.76C699.785 248.111 700.298 248.51 700.298 249.308V251.427C700.298 252.224 699.785 252.623 698.76 252.623H691.479V274.396C691.479 276.788 691.833 278.349 692.539 279.078C693.268 279.785 694.134 280.138 695.137 280.138C695.911 280.138 696.834 279.91 697.905 279.454C698.999 278.998 699.751 278.611 700.161 278.292C700.571 277.973 700.89 278.076 701.118 278.6L702.246 281.231C702.428 281.687 702.292 282.052 701.836 282.325C700.947 282.849 699.648 283.362 697.939 283.863C696.23 284.342 694.521 284.581 692.812 284.581C690.443 284.581 688.62 283.727 687.344 282.018C686.09 280.309 685.464 277.893 685.464 274.771V252.623H681.431ZM712.02 284C710.995 284 710.482 283.487 710.482 282.462V235.089C710.482 234.063 710.995 233.551 712.02 233.551H714.96C715.985 233.551 716.498 234.063 716.498 235.089V250.333C716.498 251.017 716.475 251.7 716.429 252.384H716.566C718.047 250.743 719.642 249.524 721.351 248.727C723.06 247.929 725.191 247.53 727.743 247.53C731.89 247.53 734.863 248.704 736.664 251.051C738.487 253.375 739.398 256.565 739.398 260.621V282.462C739.398 283.487 738.885 284 737.86 284H734.92C733.895 284 733.382 283.487 733.382 282.462V262.262C733.382 257.796 732.642 254.97 731.161 253.785C729.68 252.577 727.8 251.974 725.521 251.974C722.559 251.974 720.314 252.862 718.788 254.64C717.261 256.394 716.498 259.413 716.498 263.697V282.462C716.498 283.487 715.985 284 714.96 284H712.02ZM748.488 266.056C748.488 260.405 749.901 255.904 752.727 252.555C755.552 249.205 759.597 247.53 764.861 247.53C769.236 247.53 772.859 249.068 775.73 252.145C778.624 255.198 780.07 260.086 780.07 266.808C780.07 267.833 779.603 268.346 778.669 268.346H754.846C755.233 272.743 756.418 275.808 758.401 277.54C760.383 279.249 762.627 280.104 765.134 280.104C767.777 280.104 769.805 279.659 771.218 278.771C772.631 277.882 773.667 277.005 774.328 276.139C775.057 275.182 775.764 274.999 776.447 275.592L778.464 277.335C778.988 277.791 778.988 278.417 778.464 279.215C778.031 279.876 776.789 280.935 774.738 282.394C772.71 283.852 769.509 284.581 765.134 284.581C759.437 284.581 755.233 282.906 752.522 279.557C749.833 276.207 748.488 271.707 748.488 266.056ZM754.709 263.902H774.021C773.93 260.712 773.109 257.921 771.56 255.528C770.01 253.113 767.732 251.905 764.724 251.905C762.081 251.905 759.836 252.794 757.99 254.571C756.145 256.326 755.051 259.436 754.709 263.902ZM790.904 284C789.879 284 789.366 283.487 789.366 282.462V249.649C789.366 248.624 789.879 248.111 790.904 248.111H793.775C794.801 248.111 795.313 248.624 795.313 249.649V253.751H795.45C796.544 251.7 797.831 250.151 799.312 249.103C800.793 248.054 802.639 247.53 804.849 247.53C806.308 247.53 807.333 247.656 807.926 247.906C808.45 248.111 808.643 248.453 808.507 248.932L807.72 251.734C807.607 252.145 807.31 252.304 806.832 252.213C806.034 252.053 805.282 251.974 804.576 251.974C801.91 251.974 799.711 253.181 797.979 255.597C796.247 257.989 795.382 261.259 795.382 265.406V282.462C795.382 283.487 794.869 284 793.844 284H790.904ZM816.982 284C815.956 284 815.444 283.487 815.444 282.462V239.806C815.444 239.35 815.558 238.917 815.785 238.507L818.178 234.166C818.611 233.368 818.964 232.97 819.238 232.97H820.434C821.118 232.97 821.459 233.368 821.459 234.166V282.462C821.459 283.487 820.947 284 819.921 284H816.982ZM830.618 274.43C830.618 270.374 832.509 267.4 836.292 265.509C840.097 263.618 845.771 262.512 853.313 262.193V259.869C853.313 257.727 852.824 255.882 851.844 254.332C850.887 252.76 848.973 251.974 846.102 251.974C844.279 251.974 842.82 252.156 841.727 252.521C840.633 252.862 839.63 253.329 838.719 253.922C837.83 254.492 836.976 255.232 836.155 256.144C835.54 256.827 834.959 256.861 834.412 256.246L832.635 254.195C832.133 253.626 832.304 252.942 833.147 252.145C834.355 251.005 835.529 250.151 836.668 249.581C837.807 249.011 839.22 248.533 840.906 248.146C842.615 247.735 844.347 247.53 846.102 247.53C850.864 247.53 854.259 248.761 856.287 251.222C858.315 253.66 859.329 257.009 859.329 261.271V282.462C859.329 283.487 858.816 284 857.791 284H854.715C853.826 284 853.382 283.487 853.382 282.462V280.787H853.313C851.513 282.2 849.747 283.191 848.016 283.761C846.307 284.308 844.393 284.581 842.273 284.581C838.536 284.581 835.654 283.692 833.626 281.915C831.621 280.115 830.618 277.62 830.618 274.43ZM836.839 274.566C836.839 275.979 837.135 277.118 837.727 277.984C838.32 278.827 839.14 279.374 840.188 279.625C841.237 279.853 842.33 279.967 843.47 279.967C845.224 279.967 846.888 279.796 848.46 279.454C850.032 279.112 851.65 278.212 853.313 276.754V266.671C848.711 267.013 845.429 267.434 843.47 267.936C841.51 268.414 839.915 269.257 838.685 270.465C837.454 271.65 836.839 273.017 836.839 274.566ZM872.008 284C870.983 284 870.47 283.487 870.47 282.462V249.649C870.47 248.624 870.983 248.111 872.008 248.111H874.879C875.905 248.111 876.418 248.624 876.418 249.649V252.384H876.554C878.035 250.743 879.63 249.524 881.339 248.727C883.048 247.929 885.179 247.53 887.731 247.53C891.878 247.53 894.852 248.704 896.652 251.051C898.475 253.375 899.386 256.565 899.386 260.621V282.462C899.386 283.487 898.874 284 897.848 284H894.909C893.883 284 893.371 283.487 893.371 282.462V262.262C893.371 257.796 892.63 254.97 891.149 253.785C889.668 252.577 887.788 251.974 885.509 251.974C882.547 251.974 880.303 252.862 878.776 254.64C877.249 256.394 876.486 259.413 876.486 263.697V282.462C876.486 283.487 875.973 284 874.948 284H872.008ZM908.477 266.056C908.477 261.157 909.662 256.85 912.031 253.136C914.401 249.399 917.865 247.53 922.422 247.53C925.042 247.53 927.139 247.963 928.711 248.829C930.283 249.695 931.696 250.88 932.949 252.384H933.018C932.972 251.7 932.949 251.005 932.949 250.299V235.089C932.949 234.063 933.462 233.551 934.487 233.551H937.427C938.452 233.551 938.965 234.063 938.965 235.089V282.462C938.965 283.487 938.452 284 937.427 284H934.556C933.736 284 933.291 283.487 933.223 282.462L933.018 279.728H932.949C931.696 281.231 930.283 282.416 928.711 283.282C927.139 284.148 925.042 284.581 922.422 284.581C917.865 284.581 914.401 282.724 912.031 279.01C909.662 275.273 908.477 270.955 908.477 266.056ZM914.834 266.056C914.834 270.248 915.552 273.644 916.987 276.241C918.446 278.839 920.907 280.138 924.37 280.138C926.831 280.138 928.871 279.306 930.488 277.643C932.129 275.956 932.949 273.404 932.949 269.986V262.125C932.949 258.707 932.129 256.166 930.488 254.503C928.871 252.817 926.831 251.974 924.37 251.974C920.907 251.974 918.446 253.272 916.987 255.87C915.552 258.468 914.834 261.863 914.834 266.056ZM948.705 280.65C947.998 279.99 947.85 279.374 948.26 278.805L949.799 276.651C950.3 275.968 951.04 276.002 952.02 276.754C953.365 277.779 954.857 278.6 956.498 279.215C958.161 279.83 960.052 280.138 962.172 280.138C963.425 280.138 964.541 279.99 965.521 279.693C966.501 279.374 967.356 278.793 968.085 277.95C968.837 277.107 969.213 275.979 969.213 274.566C969.213 273.746 969.03 272.971 968.666 272.242C968.324 271.513 967.777 270.932 967.025 270.499C966.296 270.043 965.578 269.69 964.872 269.439C963.71 269.007 962.548 268.653 961.385 268.38C960.246 268.084 958.742 267.639 956.874 267.047C955.621 266.66 954.436 266.113 953.319 265.406C952.203 264.677 951.223 263.697 950.38 262.467C949.559 261.236 949.149 259.539 949.149 257.374C949.149 255.164 949.821 253.261 951.166 251.666C952.51 250.071 954.196 248.989 956.224 248.419C958.252 247.826 960.223 247.53 962.137 247.53C964.963 247.53 967.23 247.861 968.939 248.521C970.671 249.16 972.163 249.923 973.417 250.812C974.146 251.336 974.248 251.939 973.724 252.623L972.186 254.674C971.708 255.335 970.967 255.312 969.965 254.605C969.122 254.013 967.925 253.455 966.376 252.931C964.826 252.407 963.47 252.145 962.308 252.145C960.873 252.145 959.642 252.304 958.617 252.623C957.592 252.942 956.76 253.489 956.122 254.264C955.484 255.038 955.165 255.95 955.165 256.998C955.165 257.796 955.29 258.513 955.541 259.151C955.791 259.767 956.259 260.336 956.942 260.86C957.626 261.384 958.583 261.806 959.813 262.125C961.727 262.626 963.47 263.082 965.043 263.492C966.638 263.902 968.073 264.404 969.349 264.996C971.013 265.771 972.289 266.625 973.177 267.56C974.089 268.494 974.716 269.508 975.057 270.602C975.399 271.673 975.57 272.869 975.57 274.19C975.57 276.629 974.841 278.691 973.383 280.377C971.947 282.063 970.341 283.191 968.563 283.761C966.786 284.308 964.644 284.581 962.137 284.581C958.742 284.581 955.826 284.103 953.387 283.146C950.972 282.166 949.411 281.334 948.705 280.65ZM590.618 335.493C590.618 327.632 592.612 321.388 596.599 316.763C600.587 312.137 606.341 309.824 613.86 309.824C618.19 309.824 621.858 310.496 624.866 311.841C627.874 313.185 629.993 315.133 631.223 317.686C632.044 319.372 631.907 320.511 630.813 321.104L626.712 323.291C625.276 324.066 624.091 323.633 623.157 321.992C622.565 320.944 621.459 319.998 619.842 319.155C618.247 318.312 616.367 317.891 614.202 317.891C609.417 317.891 606.067 319.406 604.153 322.437C602.239 325.444 601.282 329.797 601.282 335.493C601.282 341.19 602.239 345.553 604.153 348.584C606.067 351.592 609.417 353.096 614.202 353.096C616.777 353.096 618.941 352.515 620.696 351.353C622.473 350.19 623.704 349.085 624.387 348.037C625.504 346.328 626.689 345.895 627.942 346.738L632.044 349.473C633.16 350.225 633.274 351.364 632.385 352.891C631.064 355.169 628.797 357.118 625.584 358.735C622.371 360.353 618.463 361.162 613.86 361.162C606.455 361.162 600.724 358.849 596.668 354.224C592.635 349.598 590.618 343.354 590.618 335.493ZM640.451 350.43C640.451 346.374 642.342 343.4 646.124 341.509C649.93 339.618 655.604 338.512 663.146 338.193V335.869C663.146 333.727 662.656 331.882 661.676 330.332C660.719 328.76 658.805 327.974 655.934 327.974C654.111 327.974 652.653 328.156 651.559 328.521C650.465 328.862 649.463 329.329 648.551 329.922C647.662 330.492 646.808 331.232 645.988 332.144C645.372 332.827 644.791 332.861 644.244 332.246L642.467 330.195C641.966 329.626 642.137 328.942 642.98 328.145C644.188 327.005 645.361 326.151 646.5 325.581C647.64 325.011 649.052 324.533 650.739 324.146C652.448 323.735 654.179 323.53 655.934 323.53C660.696 323.53 664.091 324.761 666.119 327.222C668.147 329.66 669.161 333.009 669.161 337.271V358.462C669.161 359.487 668.649 360 667.623 360H664.547C663.659 360 663.214 359.487 663.214 358.462V356.787H663.146C661.346 358.2 659.58 359.191 657.848 359.761C656.139 360.308 654.225 360.581 652.106 360.581C648.369 360.581 645.486 359.692 643.458 357.915C641.453 356.115 640.451 353.62 640.451 350.43ZM646.671 350.566C646.671 351.979 646.967 353.118 647.56 353.984C648.152 354.827 648.973 355.374 650.021 355.625C651.069 355.853 652.163 355.967 653.302 355.967C655.057 355.967 656.72 355.796 658.292 355.454C659.865 355.112 661.482 354.212 663.146 352.754V342.671C658.543 343.013 655.262 343.434 653.302 343.936C651.342 344.414 649.747 345.257 648.517 346.465C647.286 347.65 646.671 349.017 646.671 350.566ZM678.56 328.623C677.534 328.623 677.021 328.224 677.021 327.427V325.308C677.021 324.51 677.534 324.111 678.56 324.111H682.593V321.035C682.593 320.579 682.707 320.146 682.935 319.736L685.327 315.396C685.76 314.598 686.113 314.199 686.387 314.199H687.583C688.267 314.199 688.608 314.598 688.608 315.396V324.111H695.889C696.914 324.111 697.427 324.51 697.427 325.308V327.427C697.427 328.224 696.914 328.623 695.889 328.623H688.608V350.396C688.608 352.788 688.962 354.349 689.668 355.078C690.397 355.785 691.263 356.138 692.266 356.138C693.04 356.138 693.963 355.91 695.034 355.454C696.128 354.998 696.88 354.611 697.29 354.292C697.7 353.973 698.019 354.076 698.247 354.6L699.375 357.231C699.557 357.687 699.421 358.052 698.965 358.325C698.076 358.849 696.777 359.362 695.068 359.863C693.359 360.342 691.65 360.581 689.941 360.581C687.572 360.581 685.749 359.727 684.473 358.018C683.219 356.309 682.593 353.893 682.593 350.771V328.623H678.56ZM705.663 342.056C705.663 336.701 706.984 332.28 709.627 328.794C712.294 325.285 716.361 323.53 721.83 323.53C725.521 323.53 728.335 324.191 730.272 325.513C732.232 326.812 733.644 328.145 734.51 329.512C734.989 330.264 734.886 330.868 734.203 331.323L732.049 332.725C731.366 333.203 730.682 332.896 729.999 331.802C729.338 330.754 728.404 329.854 727.196 329.102C726.011 328.35 724.222 327.974 721.83 327.974C718.708 327.974 716.293 329.124 714.584 331.426C712.875 333.727 712.02 337.271 712.02 342.056C712.02 346.841 712.875 350.384 714.584 352.686C716.293 354.987 718.708 356.138 721.83 356.138C724.359 356.138 726.296 355.659 727.64 354.702C728.985 353.722 729.964 352.663 730.58 351.523C731.172 350.452 731.844 350.145 732.596 350.601L734.886 351.968C735.57 352.378 735.672 352.993 735.194 353.813C734.624 354.793 733.325 356.172 731.297 357.949C729.292 359.704 726.136 360.581 721.83 360.581C716.361 360.581 712.294 358.838 709.627 355.352C706.984 351.842 705.663 347.41 705.663 342.056ZM745.617 360C744.592 360 744.079 359.487 744.079 358.462V311.089C744.079 310.063 744.592 309.551 745.617 309.551H748.557C749.582 309.551 750.095 310.063 750.095 311.089V326.333C750.095 327.017 750.072 327.7 750.027 328.384H750.163C751.644 326.743 753.239 325.524 754.948 324.727C756.657 323.929 758.788 323.53 761.34 323.53C765.487 323.53 768.461 324.704 770.261 327.051C772.084 329.375 772.995 332.565 772.995 336.621V358.462C772.995 359.487 772.483 360 771.457 360H768.518C767.492 360 766.98 359.487 766.98 358.462V338.262C766.98 333.796 766.239 330.97 764.758 329.785C763.277 328.577 761.397 327.974 759.118 327.974C756.156 327.974 753.912 328.862 752.385 330.64C750.858 332.394 750.095 335.413 750.095 339.697V358.462C750.095 359.487 749.582 360 748.557 360H745.617ZM785.572 360C784.547 360 784.034 359.487 784.034 358.462V311.089C784.034 310.063 784.547 309.551 785.572 309.551H788.511C789.537 309.551 790.05 310.063 790.05 311.089V326.299C790.05 327.005 790.027 327.7 789.981 328.384H790.05C791.303 326.88 792.716 325.695 794.288 324.829C795.86 323.963 797.956 323.53 800.577 323.53C805.134 323.53 808.598 325.399 810.968 329.136C813.337 332.85 814.522 337.157 814.522 342.056C814.522 346.955 813.337 351.273 810.968 355.01C808.598 358.724 805.134 360.581 800.577 360.581C797.956 360.581 795.86 360.148 794.288 359.282C792.716 358.416 791.303 357.231 790.05 355.728H789.981L789.776 358.462C789.708 359.487 789.263 360 788.443 360H785.572ZM790.05 345.986C790.05 349.404 790.858 351.956 792.476 353.643C794.117 355.306 796.168 356.138 798.629 356.138C802.092 356.138 804.542 354.839 805.977 352.241C807.436 349.644 808.165 346.248 808.165 342.056C808.165 337.863 807.436 334.468 805.977 331.87C804.542 329.272 802.092 327.974 798.629 327.974C796.168 327.974 794.117 328.817 792.476 330.503C790.858 332.166 790.05 334.707 790.05 338.125V345.986ZM821.767 350.43C821.767 346.374 823.658 343.4 827.441 341.509C831.246 339.618 836.92 338.512 844.462 338.193V335.869C844.462 333.727 843.972 331.882 842.993 330.332C842.035 328.76 840.121 327.974 837.25 327.974C835.427 327.974 833.969 328.156 832.875 328.521C831.782 328.862 830.779 329.329 829.868 329.922C828.979 330.492 828.124 331.232 827.304 332.144C826.689 332.827 826.108 332.861 825.561 332.246L823.784 330.195C823.282 329.626 823.453 328.942 824.296 328.145C825.504 327.005 826.677 326.151 827.817 325.581C828.956 325.011 830.369 324.533 832.055 324.146C833.764 323.735 835.496 323.53 837.25 323.53C842.013 323.53 845.408 324.761 847.436 327.222C849.464 329.66 850.478 333.009 850.478 337.271V358.462C850.478 359.487 849.965 360 848.94 360H845.864C844.975 360 844.531 359.487 844.531 358.462V356.787H844.462C842.662 358.2 840.896 359.191 839.164 359.761C837.455 360.308 835.541 360.581 833.422 360.581C829.685 360.581 826.803 359.692 824.775 357.915C822.77 356.115 821.767 353.62 821.767 350.43ZM827.988 350.566C827.988 351.979 828.284 353.118 828.876 353.984C829.469 354.827 830.289 355.374 831.337 355.625C832.385 355.853 833.479 355.967 834.618 355.967C836.373 355.967 838.036 355.796 839.609 355.454C841.181 355.112 842.799 354.212 844.462 352.754V342.671C839.859 343.013 836.578 343.434 834.618 343.936C832.659 344.414 831.064 345.257 829.833 346.465C828.603 347.65 827.988 349.017 827.988 350.566ZM863.157 360C862.132 360 861.619 359.487 861.619 358.462V315.806C861.619 315.35 861.733 314.917 861.961 314.507L864.353 310.166C864.786 309.368 865.14 308.97 865.413 308.97H866.609C867.293 308.97 867.635 309.368 867.635 310.166V358.462C867.635 359.487 867.122 360 866.097 360H863.157ZM880.28 360C879.254 360 878.742 359.487 878.742 358.462V315.806C878.742 315.35 878.856 314.917 879.084 314.507L881.476 310.166C881.909 309.368 882.262 308.97 882.536 308.97H883.732C884.416 308.97 884.757 309.368 884.757 310.166V358.462C884.757 359.487 884.245 360 883.219 360H880.28ZM591.609 436C589.969 436 589.433 435.248 590.003 433.744L606.751 389.755C607.457 387.909 608.528 386.986 609.964 386.986H614.749C616.184 386.986 617.255 387.909 617.962 389.755L634.71 433.744C635.279 435.248 634.744 436 633.103 436H627.669C626.165 436 625.117 435.214 624.524 433.642L621.038 424.447H603.675L600.188 433.642C599.596 435.214 598.548 436 597.044 436H591.609ZM606.853 415.971H617.859L613.655 405.102C613.154 403.826 612.846 402.903 612.732 402.333C612.641 401.741 612.538 400.875 612.425 399.735H612.288C612.174 400.875 612.06 401.741 611.946 402.333C611.855 402.903 611.559 403.826 611.057 405.102L606.853 415.971ZM640.177 432.65C639.471 431.99 639.323 431.374 639.733 430.805L641.271 428.651C641.772 427.968 642.513 428.002 643.493 428.754C644.837 429.779 646.329 430.6 647.97 431.215C649.633 431.83 651.525 432.138 653.644 432.138C654.897 432.138 656.014 431.99 656.994 431.693C657.973 431.374 658.828 430.793 659.557 429.95C660.309 429.107 660.685 427.979 660.685 426.566C660.685 425.746 660.503 424.971 660.138 424.242C659.796 423.513 659.249 422.932 658.497 422.499C657.768 422.043 657.05 421.69 656.344 421.439C655.182 421.007 654.02 420.653 652.858 420.38C651.718 420.084 650.215 419.639 648.346 419.047C647.093 418.66 645.908 418.113 644.791 417.406C643.675 416.677 642.695 415.697 641.852 414.467C641.032 413.236 640.621 411.539 640.621 409.374C640.621 407.164 641.294 405.261 642.638 403.666C643.982 402.071 645.669 400.989 647.697 400.419C649.725 399.826 651.696 399.53 653.61 399.53C656.435 399.53 658.702 399.861 660.411 400.521C662.143 401.16 663.636 401.923 664.889 402.812C665.618 403.336 665.721 403.939 665.197 404.623L663.659 406.674C663.18 407.335 662.439 407.312 661.437 406.605C660.594 406.013 659.397 405.455 657.848 404.931C656.299 404.407 654.943 404.145 653.781 404.145C652.345 404.145 651.115 404.304 650.089 404.623C649.064 404.942 648.232 405.489 647.594 406.264C646.956 407.038 646.637 407.95 646.637 408.998C646.637 409.796 646.762 410.513 647.013 411.151C647.264 411.767 647.731 412.336 648.414 412.86C649.098 413.384 650.055 413.806 651.285 414.125C653.2 414.626 654.943 415.082 656.515 415.492C658.11 415.902 659.546 416.404 660.822 416.996C662.485 417.771 663.761 418.625 664.65 419.56C665.561 420.494 666.188 421.508 666.53 422.602C666.871 423.673 667.042 424.869 667.042 426.19C667.042 428.629 666.313 430.691 664.855 432.377C663.419 434.063 661.813 435.191 660.035 435.761C658.258 436.308 656.116 436.581 653.61 436.581C650.215 436.581 647.298 436.103 644.86 435.146C642.444 434.166 640.883 433.334 640.177 432.65ZM673.843 432.65C673.136 431.99 672.988 431.374 673.398 430.805L674.936 428.651C675.438 427.968 676.178 428.002 677.158 428.754C678.503 429.779 679.995 430.6 681.636 431.215C683.299 431.83 685.19 432.138 687.31 432.138C688.563 432.138 689.679 431.99 690.659 431.693C691.639 431.374 692.493 430.793 693.223 429.95C693.975 429.107 694.351 427.979 694.351 426.566C694.351 425.746 694.168 424.971 693.804 424.242C693.462 423.513 692.915 422.932 692.163 422.499C691.434 422.043 690.716 421.69 690.01 421.439C688.848 421.007 687.686 420.653 686.523 420.38C685.384 420.084 683.88 419.639 682.012 419.047C680.758 418.66 679.574 418.113 678.457 417.406C677.34 416.677 676.361 415.697 675.518 414.467C674.697 413.236 674.287 411.539 674.287 409.374C674.287 407.164 674.959 405.261 676.304 403.666C677.648 402.071 679.334 400.989 681.362 400.419C683.39 399.826 685.361 399.53 687.275 399.53C690.101 399.53 692.368 399.861 694.077 400.521C695.809 401.16 697.301 401.923 698.555 402.812C699.284 403.336 699.386 403.939 698.862 404.623L697.324 406.674C696.846 407.335 696.105 407.312 695.102 406.605C694.259 406.013 693.063 405.455 691.514 404.931C689.964 404.407 688.608 404.145 687.446 404.145C686.011 404.145 684.78 404.304 683.755 404.623C682.729 404.942 681.898 405.489 681.26 406.264C680.622 407.038 680.303 407.95 680.303 408.998C680.303 409.796 680.428 410.513 680.679 411.151C680.929 411.767 681.396 412.336 682.08 412.86C682.764 413.384 683.721 413.806 684.951 414.125C686.865 414.626 688.608 415.082 690.181 415.492C691.776 415.902 693.211 416.404 694.487 416.996C696.151 417.771 697.427 418.625 698.315 419.56C699.227 420.494 699.853 421.508 700.195 422.602C700.537 423.673 700.708 424.869 700.708 426.19C700.708 428.629 699.979 430.691 698.52 432.377C697.085 434.063 695.478 435.191 693.701 435.761C691.924 436.308 689.782 436.581 687.275 436.581C683.88 436.581 680.963 436.103 678.525 435.146C676.11 434.166 674.549 433.334 673.843 432.65ZM706.961 418.056C706.961 412.701 708.374 408.28 711.2 404.794C714.048 401.285 718.207 399.53 723.675 399.53C729.144 399.53 733.291 401.285 736.117 404.794C738.965 408.28 740.389 412.701 740.389 418.056C740.389 423.41 738.965 427.842 736.117 431.352C733.291 434.838 729.144 436.581 723.675 436.581C718.207 436.581 714.048 434.838 711.2 431.352C708.374 427.842 706.961 423.41 706.961 418.056ZM713.319 418.056C713.319 422.841 714.265 426.384 716.156 428.686C718.047 430.987 720.554 432.138 723.675 432.138C726.797 432.138 729.304 430.987 731.195 428.686C733.086 426.384 734.032 422.841 734.032 418.056C734.032 413.271 733.086 409.727 731.195 407.426C729.304 405.124 726.797 403.974 723.675 403.974C720.554 403.974 718.047 405.124 716.156 407.426C714.265 409.727 713.319 413.271 713.319 418.056ZM747.6 418.056C747.6 412.701 748.921 408.28 751.565 404.794C754.231 401.285 758.298 399.53 763.767 399.53C767.458 399.53 770.272 400.191 772.209 401.513C774.169 402.812 775.582 404.145 776.447 405.512C776.926 406.264 776.823 406.868 776.14 407.323L773.986 408.725C773.303 409.203 772.619 408.896 771.936 407.802C771.275 406.754 770.341 405.854 769.133 405.102C767.948 404.35 766.159 403.974 763.767 403.974C760.645 403.974 758.23 405.124 756.521 407.426C754.812 409.727 753.957 413.271 753.957 418.056C753.957 422.841 754.812 426.384 756.521 428.686C758.23 430.987 760.645 432.138 763.767 432.138C766.296 432.138 768.233 431.659 769.577 430.702C770.922 429.722 771.902 428.663 772.517 427.523C773.109 426.452 773.781 426.145 774.533 426.601L776.823 427.968C777.507 428.378 777.61 428.993 777.131 429.813C776.561 430.793 775.263 432.172 773.235 433.949C771.229 435.704 768.073 436.581 763.767 436.581C758.298 436.581 754.231 434.838 751.565 431.352C748.921 427.842 747.6 423.41 747.6 418.056ZM787.554 436C786.529 436 786.016 435.487 786.016 434.462V401.649C786.016 400.624 786.529 400.111 787.554 400.111H790.494C791.519 400.111 792.032 400.624 792.032 401.649V434.462C792.032 435.487 791.519 436 790.494 436H787.554ZM787.554 393.617C786.529 393.617 786.016 393.104 786.016 392.079V389.14C786.016 388.114 786.529 387.602 787.554 387.602H790.494C791.519 387.602 792.032 388.114 792.032 389.14V392.079C792.032 393.104 791.519 393.617 790.494 393.617H787.554ZM801.191 426.43C801.191 422.374 803.082 419.4 806.865 417.509C810.67 415.618 816.344 414.512 823.886 414.193V411.869C823.886 409.727 823.396 407.882 822.416 406.332C821.459 404.76 819.545 403.974 816.674 403.974C814.851 403.974 813.393 404.156 812.299 404.521C811.205 404.862 810.203 405.329 809.291 405.922C808.403 406.492 807.548 407.232 806.728 408.144C806.113 408.827 805.532 408.861 804.985 408.246L803.207 406.195C802.706 405.626 802.877 404.942 803.72 404.145C804.928 403.005 806.101 402.151 807.241 401.581C808.38 401.011 809.793 400.533 811.479 400.146C813.188 399.735 814.92 399.53 816.674 399.53C821.437 399.53 824.832 400.761 826.86 403.222C828.888 405.66 829.902 409.009 829.902 413.271V434.462C829.902 435.487 829.389 436 828.364 436H825.287C824.399 436 823.954 435.487 823.954 434.462V432.787H823.886C822.086 434.2 820.32 435.191 818.588 435.761C816.879 436.308 814.965 436.581 812.846 436.581C809.109 436.581 806.227 435.692 804.199 433.915C802.193 432.115 801.191 429.62 801.191 426.43ZM807.411 426.566C807.411 427.979 807.708 429.118 808.3 429.984C808.893 430.827 809.713 431.374 810.761 431.625C811.809 431.853 812.903 431.967 814.042 431.967C815.797 431.967 817.46 431.796 819.033 431.454C820.605 431.112 822.223 430.212 823.886 428.754V418.671C819.283 419.013 816.002 419.434 814.042 419.936C812.083 420.414 810.488 421.257 809.257 422.465C808.027 423.65 807.411 425.017 807.411 426.566ZM839.3 404.623C838.274 404.623 837.762 404.224 837.762 403.427V401.308C837.762 400.51 838.274 400.111 839.3 400.111H843.333V397.035C843.333 396.579 843.447 396.146 843.675 395.736L846.067 391.396C846.5 390.598 846.853 390.199 847.127 390.199H848.323C849.007 390.199 849.349 390.598 849.349 391.396V400.111H856.629C857.654 400.111 858.167 400.51 858.167 401.308V403.427C858.167 404.224 857.654 404.623 856.629 404.623H849.349V426.396C849.349 428.788 849.702 430.349 850.408 431.078C851.137 431.785 852.003 432.138 853.006 432.138C853.781 432.138 854.703 431.91 855.774 431.454C856.868 430.998 857.62 430.611 858.03 430.292C858.44 429.973 858.759 430.076 858.987 430.6L860.115 433.231C860.297 433.687 860.161 434.052 859.705 434.325C858.816 434.849 857.518 435.362 855.809 435.863C854.1 436.342 852.391 436.581 850.682 436.581C848.312 436.581 846.489 435.727 845.213 434.018C843.96 432.309 843.333 429.893 843.333 426.771V404.623H839.3ZM869.889 436C868.864 436 868.351 435.487 868.351 434.462V401.649C868.351 400.624 868.864 400.111 869.889 400.111H872.829C873.854 400.111 874.367 400.624 874.367 401.649V434.462C874.367 435.487 873.854 436 872.829 436H869.889ZM869.889 393.617C868.864 393.617 868.351 393.104 868.351 392.079V389.14C868.351 388.114 868.864 387.602 869.889 387.602H872.829C873.854 387.602 874.367 388.114 874.367 389.14V392.079C874.367 393.104 873.854 393.617 872.829 393.617H869.889ZM883.526 418.056C883.526 412.701 884.938 408.28 887.764 404.794C890.612 401.285 894.771 399.53 900.239 399.53C905.708 399.53 909.855 401.285 912.681 404.794C915.529 408.28 916.953 412.701 916.953 418.056C916.953 423.41 915.529 427.842 912.681 431.352C909.855 434.838 905.708 436.581 900.239 436.581C894.771 436.581 890.612 434.838 887.764 431.352C884.938 427.842 883.526 423.41 883.526 418.056ZM889.883 418.056C889.883 422.841 890.829 426.384 892.72 428.686C894.611 430.987 897.118 432.138 900.239 432.138C903.361 432.138 905.868 430.987 907.759 428.686C909.65 426.384 910.596 422.841 910.596 418.056C910.596 413.271 909.65 409.727 907.759 407.426C905.868 405.124 903.361 403.974 900.239 403.974C897.118 403.974 894.611 405.124 892.72 407.426C890.829 409.727 889.883 413.271 889.883 418.056ZM927.65 436C926.625 436 926.112 435.487 926.112 434.462V401.649C926.112 400.624 926.625 400.111 927.65 400.111H930.521C931.547 400.111 932.059 400.624 932.059 401.649V404.384H932.196C933.677 402.743 935.272 401.524 936.981 400.727C938.69 399.929 940.821 399.53 943.373 399.53C947.52 399.53 950.494 400.704 952.294 403.051C954.117 405.375 955.028 408.565 955.028 412.621V434.462C955.028 435.487 954.515 436 953.49 436H950.551C949.525 436 949.012 435.487 949.012 434.462V414.262C949.012 409.796 948.272 406.97 946.791 405.785C945.31 404.577 943.43 403.974 941.151 403.974C938.189 403.974 935.944 404.862 934.418 406.64C932.891 408.394 932.128 411.413 932.128 415.697V434.462C932.128 435.487 931.615 436 930.59 436H927.65Z" fill="white"/>
<rect x="101.678" y="859" width="983" height="598" fill="#FF2D48"/>
<g clip-path="url(#clip1_2180_18)">
<path d="M555.711 918.477C544.358 919.589 534.583 924.442 527.292 932.359C523.138 936.955 517.367 947.012 518.326 948.037C519.189 948.959 529.805 945.828 536.286 942.691C547.052 937.563 555.307 930.47 561.35 921.321C562.274 919.844 562.703 918.454 562.315 918.244C561.926 918.035 558.969 918.159 555.711 918.477Z" fill="white"/>
<path d="M566.498 924.152C564.955 926.714 563.817 928.886 564.011 928.991C564.107 929.093 567.703 930.985 571.884 933.092C580.828 937.621 588.032 944.806 592.817 954.131L596.202 960.419L597.382 956.647C598.126 954.466 598.687 951.779 598.715 950.679C598.743 949.58 599.263 948.493 599.858 948.308C601.943 947.66 596.103 937.209 590.633 931.568C585.257 926.13 577.793 921.438 572.31 920.199C569.468 919.626 569.067 919.916 566.498 924.152Z" fill="white"/>
<path d="M412.658 928.746C366.321 934.671 324.762 954.121 289.678 986.141C280.905 994.22 265.699 1011.34 261.897 1017.54C261.486 1018.23 263.986 1020.6 267.854 1023.4L274.528 1028.17L280.431 1020.62C288.783 1009.73 311.076 988.885 322.703 980.878C352.466 960.627 382.497 949.187 416.276 945.243C428.916 943.864 451.859 943.947 464.13 945.459C472.866 946.581 472.564 946.874 473.338 935.79L473.687 929.797L468.784 928.972C458.388 927.307 424.909 927.157 412.658 928.746Z" fill="white"/>
<path d="M484.247 932.766C483.033 934.036 481.791 936.405 481.455 937.997C480.465 942.073 482.617 962.034 485.27 973.905C488.192 986.784 492.21 995.288 500.047 1004.69C507.885 1013.99 508.887 1017.22 507.782 1029.7C505.873 1050.55 501.521 1062.95 493.141 1071.04C483.652 1080.2 470.844 1084.27 452.933 1083.82C442.403 1083.55 441.913 1083.44 441.379 1081.22C440.224 1076.29 440.63 1075.8 446.651 1075.26C454.252 1074.55 461.427 1071.23 466.086 1066.15C472.158 1059.7 473.118 1056.82 472.067 1047.79L471.079 1040.17L474.817 1036.46C480.17 1031.19 479.966 1027.59 474.115 1021.44C471.524 1018.77 467.634 1012.97 465.293 1008.21C457.804 992.914 442.602 978.823 428.252 973.857C422.59 971.912 419.156 971.425 407.641 971.132C395.536 970.825 393.068 971.062 387.406 973.019C373.796 977.675 365.023 985.754 356.953 1001.05C354.573 1005.6 352.117 1009.23 351.329 1009.21C350.64 1009.2 349.141 1010.06 348.132 1011.03C346.214 1012.89 346.115 1012.88 341.455 1010.26C337.279 1007.96 335.906 1007.72 327.337 1007.8C318.669 1007.88 317.182 1008.25 310.008 1011.57C303.628 1014.6 300.115 1017.22 291.13 1025.89C279.222 1037.19 275.121 1039.69 265.926 1041.15C243.875 1044.7 211.904 1027.88 197.223 1004.9C196.182 1003.27 194.632 1002.23 193.156 1002.19C184.594 1001.98 184.784 1025.49 193.565 1044.22C206.456 1071.75 230.314 1090.07 261.566 1096.46C284.099 1101.04 304.283 1097.35 323.203 1085.22C334.615 1077.91 346.967 1064.62 349.931 1056.49L350.996 1053.32L354.248 1057.1C357.786 1061.29 370.402 1068.62 380.548 1072.38L387.28 1074.85L387.162 1087.25L387.142 1099.65L382.135 1102.93C374.826 1107.64 366.621 1116.64 362.786 1124.14C358.127 1133.13 358.055 1139.83 362.268 1160.04C368.246 1188.3 369.286 1201.63 366.196 1210.86C363.952 1217.8 353.696 1233.85 347.947 1239.2C341.491 1245.24 330.321 1250.76 308.754 1258.51C287.587 1266.08 284.003 1267.59 278.395 1271.25C275.99 1272.89 273.696 1274.03 273.31 1273.72C271.663 1272.68 260.61 1254.19 256.024 1244.77C242.831 1217.52 236.29 1192.05 234.708 1161.3C233.994 1146.78 234.953 1132.3 237.802 1113.16L238.411 1108.58L232.731 1107.33C229.501 1106.55 225.976 1105.76 224.899 1105.53C222.941 1105.08 222.633 1105.58 221.504 1111.25C217.089 1133.84 216.905 1164.35 220.993 1189.46C232.428 1258.77 275.324 1318.48 336.931 1351.06C358.408 1362.31 379.301 1369.44 404.3 1373.88C417.535 1376.21 451.692 1376.78 465.824 1374.84C549.221 1363.76 973.91 1338.34 1001.83 1259.02C1021.99 1201.91 1018.85 1139.51 993.24 1085.35C987.821 1073.8 974.115 1051.25 972.069 1050.4C970.315 1049.65 958.466 1058.65 959.314 1060.18C959.692 1060.79 961.968 1064.24 964.435 1067.91C981.133 1092.84 992.822 1125.05 997.207 1157.87C999.097 1172.62 998.309 1203.61 995.574 1218.25C987.234 1263.55 952.429 1331.09 935.449 1332.76C918.468 1334.43 507.452 1352.69 461.815 1358.23C443.047 1360.46 417.273 1359.4 398.954 1355.64C392.489 1354.27 387.104 1353.03 386.912 1352.83C386.72 1352.62 390.408 1347.02 395.01 1340.33C399.709 1333.65 406.769 1323.22 410.76 1317.32C414.753 1311.32 420.757 1303.67 423.998 1300.15C432.602 1290.97 439.619 1282.25 446.065 1272.71C453.128 1262.18 456.545 1255.57 462.738 1240.52L467.673 1228.44L475.365 1224.13C485.056 1218.68 492.83 1211.17 496.972 1203.18C499.663 1198.04 500.423 1195.26 500.889 1188.57C501.63 1178.79 500.033 1171.84 495.22 1163.62C493.52 1160.78 492.407 1158.05 492.811 1157.66C493.212 1157.37 505.081 1151.47 519.239 1144.62C547.953 1130.75 553.848 1127.4 561.006 1120.88C567.356 1115.14 569.206 1112.08 572.604 1102.37C578.03 1086.5 590.671 1034.7 590.856 1027.4C590.943 1024.01 594.575 1020.6 602.35 1016.89C605.141 1015.56 608.24 1013.74 609.346 1012.87C614.782 1008.21 618.15 995.788 619.329 976.512C620.157 963.328 620.016 961.124 618.52 957.985C617.491 955.858 615.954 954.319 614.68 954.086C612.424 953.729 612.424 953.729 612.071 967.624C611.703 982.12 609.586 995.67 606.65 1002.7C605.186 1006.06 603.876 1007.23 597.991 1010.18C589.811 1014.27 584.479 1018.74 583.799 1022.22C583.471 1023.52 582.433 1029.49 581.294 1035.56C578.871 1049.51 569.566 1086.28 565.403 1098.98C560.182 1114.55 555.46 1118.23 519.468 1135.63C507.503 1141.42 495.137 1147.51 491.945 1149.13L486.254 1152.19L482.325 1147.89L478.296 1143.68L489.261 1138.46C501.224 1132.76 514.614 1125.1 520.941 1120.26C532.187 1111.74 541.602 1097.78 547.131 1081.71C548.411 1077.84 551.026 1071.81 552.988 1068.26C560.846 1053.55 568.115 1031.03 568.386 1020.33C568.475 1016.83 568.379 1016.73 564.738 1016.64L560.998 1016.54L559.695 1025.21C558.283 1034.28 554.084 1048.38 552.903 1048.35C552.509 1048.34 551.871 1046.32 551.639 1043.81C551.309 1041.3 548.26 1033.42 544.9 1026.14C538.83 1013.08 538.833 1012.98 532.815 1009.52C529.616 1007.54 526.699 1006.07 526.497 1006.26C526.295 1006.46 529.194 1012.53 532.945 1019.93C543.361 1040.2 544.548 1043.83 544.261 1055.13C543.848 1067.52 540.808 1078.65 534.081 1091.48C527.561 1103.92 521.281 1110.76 509.468 1118.37C491.246 1130.11 467.055 1140.4 425.64 1154.15C411.438 1158.89 399.514 1163.09 399.014 1163.38C398.206 1164.15 399.916 1170.5 400.999 1170.53C402.376 1170.56 446.971 1155.69 458.206 1151.47C464.371 1149.13 469.736 1147.27 470.228 1147.28C470.819 1147.29 474.949 1151.4 479.45 1156.42C489.602 1167.68 492.879 1174.36 493.117 1184.37C493.453 1198.29 485.883 1209.4 470.305 1217.9C462.115 1222.4 460.182 1224.85 455.438 1237.13C448.051 1256.55 436.978 1273.78 420.154 1292.55C415.388 1297.93 409.394 1305.18 407.039 1308.73C404.586 1312.26 397.735 1322.19 391.804 1330.85C376.569 1352.97 379.183 1350.83 370.69 1347.92C357.806 1343.39 337.585 1333.07 325.385 1324.86C312.701 1316.33 292.29 1298.01 283.889 1287.59C279.115 1281.67 278.929 1281.26 280.546 1279.6C283.078 1276.87 292.539 1272.71 311.019 1266.27C345.302 1254.14 355.026 1247.38 366.766 1227.18C370.368 1221.07 373.698 1214.05 374.364 1211.06C377.016 1199.73 375.719 1184.89 369.829 1157.03C366.311 1140.44 366.378 1133.94 370.101 1126.93C377.238 1113.51 399.757 1099.27 422.151 1093.84C428.293 1092.4 434.806 1091.86 449.876 1091.74C471.055 1091.48 475.507 1090.69 486.472 1085.47C494.25 1081.67 503.941 1072.31 507.579 1064.8C511.211 1057.49 514.535 1042.97 515.655 1029.9C516.808 1015.52 515.449 1010.88 507.04 1000.77C498.056 990.035 494.335 981.438 491.597 965.163C489.709 954.212 488.682 940.381 489.593 939.404C490.603 938.429 496.958 944.093 501.825 950.218C503.825 952.87 505.836 955.122 506.131 955.129C506.525 955.139 507.076 952.852 507.543 949.963C508.356 945.082 508.266 944.78 504.721 940.889C496.097 931.467 488.396 928.37 484.247 932.766ZM419.331 980.032L425.503 981.289L426.075 985.905C426.806 992.026 425.479 1005.5 423.315 1013.14C418.55 1030.13 407.788 1042.86 392.341 1050.07C383.67 1054.15 374.247 1056.81 369.228 1056.68C365.685 1056.59 360.934 1053.67 360.212 1051.05C359.037 1046.92 360.288 1020.95 362.048 1013.69C368.647 986.547 389.843 973.981 419.331 980.032ZM449.284 998.799C453.401 1003.41 457.198 1009 459.158 1013.25C460.934 1017 464.148 1022.28 466.345 1024.94L470.455 1029.85L466.914 1033.56C463.373 1037.27 463.269 1037.47 463.695 1043.98C463.997 1047.59 464.39 1051.5 464.655 1052.71C465.469 1055.53 459.674 1062.68 454.589 1065.16C451.995 1066.49 448.038 1067.19 443.011 1067.36C432.958 1067.71 431.746 1068.88 432.525 1077C432.837 1080.21 433.16 1083.02 433.25 1083.32C433.245 1083.52 431.163 1084.07 428.395 1084.5C421.18 1085.51 410.468 1088.54 403.2 1091.66C399.715 1093.17 396.434 1094.39 396.04 1094.38C395.548 1094.36 395.264 1090.06 395.396 1084.86C395.764 1070.36 394.818 1068.84 383.691 1064.95L379.785 1063.65L385.942 1061.61C403.524 1055.65 417.902 1044.02 425.053 1029.99C430.546 1019.23 432.614 1011.48 433.767 997.104L434.655 985.423L438.619 988.325C440.842 989.982 445.645 994.705 449.284 998.799ZM339.364 1018.91C343.787 1023.13 344.682 1026.65 344.561 1039.15C344.512 1048.85 344.285 1050.05 341.584 1055.58C337.542 1063.48 324.628 1075.66 314.742 1081.01C310.649 1083.2 303.681 1086.13 299.313 1087.52C279.556 1093.82 251.516 1088.9 230.291 1075.46C212.945 1064.42 197.677 1041.32 195.199 1022.55C194.788 1019.34 194.562 1016.63 194.764 1016.44C194.966 1016.24 197.178 1018.3 199.674 1020.87C206.584 1027.94 217.108 1036.21 223.908 1039.89C237.412 1047.13 256.511 1051.22 267.89 1049.11C278.279 1047.17 283.874 1044.01 293.773 1034.26C304.583 1023.53 308.494 1020.73 316.055 1017.72C320.232 1016.13 323.792 1015.52 328.91 1015.65C335.405 1015.81 336.286 1016.03 339.364 1018.91Z" fill="white"/>
<path d="M556.641 936.106C554.107 938.943 544.992 945.013 538.415 948.047C531.437 951.371 530.72 952.453 530.507 960.85C530.416 964.449 530.605 964.754 533.164 964.819C536.706 964.909 546.515 962.557 551.79 960.391C559.058 957.274 571.294 944.681 571.408 940.182C571.438 938.983 561.999 934.542 559.342 934.474C558.555 934.454 557.356 935.124 556.641 936.106Z" fill="white"/>
<path d="M574.074 947.653C567.88 958.899 555.165 967.079 539.832 969.79C535.381 970.577 531.621 971.282 531.421 971.377C531.023 971.567 533.522 977.832 534.756 979.664C535.987 981.596 549.957 978.25 559.724 973.697C571.585 968.096 584.134 954.811 582.502 949.267C582.232 948.26 580.802 946.423 579.353 945.286L576.651 943.117L574.074 947.653Z" fill="white"/>
<path d="M518.663 954.147C515.996 954.48 515.892 954.677 515.725 961.275C515.415 973.471 519.196 983.57 527.526 992.885C533.175 999.231 534.437 999.963 534.516 996.864C534.556 995.264 535.255 994.882 538.109 994.955L541.751 995.047L537.8 991.646C528.066 983.296 524.711 975.808 525.038 962.912C525.297 952.716 525.678 953.225 518.663 954.147Z" fill="white"/>
<path d="M584.483 960.421C577.52 970.948 565.597 978.948 550.317 983.461C539.304 986.682 539.297 986.982 548.623 992.021C554.643 995.375 554.84 995.38 560.091 994.113C572.381 991.024 585.118 981.944 590.182 972.57L592.355 968.424L590.428 962.873C589.424 959.747 588.214 957.015 587.825 956.805C587.439 956.495 585.92 958.157 584.483 960.421Z" fill="white"/>
<path d="M599.992 966.317C594.854 978.591 585.125 989.447 574.147 995.17C566.861 998.986 555.278 1001.39 545.335 1001.24L536.872 1001.02L541.151 1003.13C564.988 1014.54 594.29 1000.78 601.547 974.86C602.522 971.383 603.237 966.5 603.106 963.896L602.933 959.09L599.992 966.317Z" fill="white"/>
</g>
<path d="M606.54 1143C604.945 1143 604.147 1142.15 604.147 1140.44V1096.55C604.147 1094.84 604.945 1093.99 606.54 1093.99H611.598C613.558 1093.99 615.039 1094.78 616.042 1096.38L633.473 1124.37H633.713C633.599 1123 633.542 1121.64 633.542 1120.27V1096.55C633.542 1094.84 634.339 1093.99 635.934 1093.99H641.13C642.725 1093.99 643.522 1094.84 643.522 1096.55V1140.44C643.522 1142.15 642.725 1143 641.13 1143H636.413C634.453 1143 632.972 1142.2 631.969 1140.61L614.196 1112.1H613.957C614.071 1113.47 614.128 1114.84 614.128 1116.2V1140.44C614.128 1142.15 613.33 1143 611.735 1143H606.54ZM653.296 1125.06C653.296 1119.4 654.709 1114.9 657.535 1111.55C660.36 1108.21 664.405 1106.53 669.668 1106.53C674.043 1106.53 677.666 1108.07 680.537 1111.14C683.431 1114.2 684.878 1119.09 684.878 1125.81C684.878 1126.83 684.411 1127.35 683.477 1127.35H659.654C660.041 1131.74 661.226 1134.81 663.208 1136.54C665.191 1138.25 667.435 1139.1 669.942 1139.1C672.585 1139.1 674.613 1138.66 676.026 1137.77C677.438 1136.88 678.475 1136 679.136 1135.14C679.865 1134.18 680.572 1134 681.255 1134.59L683.272 1136.33C683.796 1136.79 683.796 1137.42 683.272 1138.21C682.839 1138.88 681.597 1139.94 679.546 1141.39C677.518 1142.85 674.317 1143.58 669.942 1143.58C664.245 1143.58 660.041 1141.91 657.329 1138.56C654.641 1135.21 653.296 1130.71 653.296 1125.06ZM659.517 1122.9H678.828C678.737 1119.71 677.917 1116.92 676.368 1114.53C674.818 1112.11 672.539 1110.91 669.532 1110.91C666.888 1110.91 664.644 1111.79 662.798 1113.57C660.952 1115.33 659.859 1118.44 659.517 1122.9ZM692.431 1111.62C691.405 1111.62 690.893 1111.22 690.893 1110.43V1108.31C690.893 1107.51 691.405 1107.11 692.431 1107.11H696.464V1104.04C696.464 1103.58 696.578 1103.15 696.806 1102.74L699.198 1098.4C699.631 1097.6 699.984 1097.2 700.258 1097.2H701.454C702.138 1097.2 702.479 1097.6 702.479 1098.4V1107.11H709.76C710.785 1107.11 711.298 1107.51 711.298 1108.31V1110.43C711.298 1111.22 710.785 1111.62 709.76 1111.62H702.479V1133.4C702.479 1135.79 702.833 1137.35 703.539 1138.08C704.268 1138.78 705.134 1139.14 706.137 1139.14C706.911 1139.14 707.834 1138.91 708.905 1138.45C709.999 1138 710.751 1137.61 711.161 1137.29C711.571 1136.97 711.89 1137.08 712.118 1137.6L713.246 1140.23C713.428 1140.69 713.292 1141.05 712.836 1141.33C711.947 1141.85 710.648 1142.36 708.939 1142.86C707.23 1143.34 705.521 1143.58 703.812 1143.58C701.443 1143.58 699.62 1142.73 698.344 1141.02C697.09 1139.31 696.464 1136.89 696.464 1133.77V1111.62H692.431ZM723.02 1143C721.995 1143 721.482 1142.49 721.482 1141.46V1094.09C721.482 1093.06 721.995 1092.55 723.02 1092.55H725.96C726.985 1092.55 727.498 1093.06 727.498 1094.09V1109.33C727.498 1110.02 727.475 1110.7 727.429 1111.38H727.566C729.047 1109.74 730.642 1108.52 732.351 1107.73C734.06 1106.93 736.191 1106.53 738.743 1106.53C742.89 1106.53 745.863 1107.7 747.664 1110.05C749.487 1112.38 750.398 1115.57 750.398 1119.62V1141.46C750.398 1142.49 749.885 1143 748.86 1143H745.92C744.895 1143 744.382 1142.49 744.382 1141.46V1121.26C744.382 1116.8 743.642 1113.97 742.161 1112.79C740.68 1111.58 738.8 1110.97 736.521 1110.97C733.559 1110.97 731.314 1111.86 729.788 1113.64C728.261 1115.39 727.498 1118.41 727.498 1122.7V1141.46C727.498 1142.49 726.985 1143 725.96 1143H723.02ZM759.488 1125.06C759.488 1119.4 760.901 1114.9 763.727 1111.55C766.552 1108.21 770.597 1106.53 775.861 1106.53C780.236 1106.53 783.859 1108.07 786.73 1111.14C789.624 1114.2 791.07 1119.09 791.07 1125.81C791.07 1126.83 790.603 1127.35 789.669 1127.35H765.846C766.233 1131.74 767.418 1134.81 769.401 1136.54C771.383 1138.25 773.627 1139.1 776.134 1139.1C778.777 1139.1 780.805 1138.66 782.218 1137.77C783.631 1136.88 784.667 1136 785.328 1135.14C786.057 1134.18 786.764 1134 787.447 1134.59L789.464 1136.33C789.988 1136.79 789.988 1137.42 789.464 1138.21C789.031 1138.88 787.789 1139.94 785.738 1141.39C783.71 1142.85 780.509 1143.58 776.134 1143.58C770.437 1143.58 766.233 1141.91 763.522 1138.56C760.833 1135.21 759.488 1130.71 759.488 1125.06ZM765.709 1122.9H785.021C784.93 1119.71 784.109 1116.92 782.56 1114.53C781.01 1112.11 778.732 1110.91 775.724 1110.91C773.081 1110.91 770.836 1111.79 768.99 1113.57C767.145 1115.33 766.051 1118.44 765.709 1122.9ZM801.904 1143C800.879 1143 800.366 1142.49 800.366 1141.46V1108.65C800.366 1107.62 800.879 1107.11 801.904 1107.11H804.775C805.801 1107.11 806.313 1107.62 806.313 1108.65V1112.75H806.45C807.544 1110.7 808.831 1109.15 810.312 1108.1C811.793 1107.05 813.639 1106.53 815.849 1106.53C817.308 1106.53 818.333 1106.66 818.926 1106.91C819.45 1107.11 819.643 1107.45 819.507 1107.93L818.72 1110.73C818.607 1111.14 818.31 1111.3 817.832 1111.21C817.034 1111.05 816.282 1110.97 815.576 1110.97C812.91 1110.97 810.711 1112.18 808.979 1114.6C807.247 1116.99 806.382 1120.26 806.382 1124.41V1141.46C806.382 1142.49 805.869 1143 804.844 1143H801.904ZM827.982 1143C826.956 1143 826.444 1142.49 826.444 1141.46V1098.81C826.444 1098.35 826.558 1097.92 826.785 1097.51L829.178 1093.17C829.611 1092.37 829.964 1091.97 830.238 1091.97H831.434C832.118 1091.97 832.459 1092.37 832.459 1093.17V1141.46C832.459 1142.49 831.947 1143 830.921 1143H827.982ZM841.618 1133.43C841.618 1129.37 843.509 1126.4 847.292 1124.51C851.097 1122.62 856.771 1121.51 864.313 1121.19V1118.87C864.313 1116.73 863.824 1114.88 862.844 1113.33C861.887 1111.76 859.973 1110.97 857.102 1110.97C855.279 1110.97 853.82 1111.16 852.727 1111.52C851.633 1111.86 850.63 1112.33 849.719 1112.92C848.83 1113.49 847.976 1114.23 847.155 1115.14C846.54 1115.83 845.959 1115.86 845.412 1115.25L843.635 1113.2C843.133 1112.63 843.304 1111.94 844.147 1111.14C845.355 1110.01 846.529 1109.15 847.668 1108.58C848.807 1108.01 850.22 1107.53 851.906 1107.15C853.615 1106.74 855.347 1106.53 857.102 1106.53C861.864 1106.53 865.259 1107.76 867.287 1110.22C869.315 1112.66 870.329 1116.01 870.329 1120.27V1141.46C870.329 1142.49 869.816 1143 868.791 1143H865.715C864.826 1143 864.382 1142.49 864.382 1141.46V1139.79H864.313C862.513 1141.2 860.747 1142.19 859.016 1142.76C857.307 1143.31 855.393 1143.58 853.273 1143.58C849.536 1143.58 846.654 1142.69 844.626 1140.92C842.621 1139.11 841.618 1136.62 841.618 1133.43ZM847.839 1133.57C847.839 1134.98 848.135 1136.12 848.727 1136.98C849.32 1137.83 850.14 1138.37 851.188 1138.62C852.237 1138.85 853.33 1138.97 854.47 1138.97C856.224 1138.97 857.888 1138.8 859.46 1138.45C861.032 1138.11 862.65 1137.21 864.313 1135.75V1125.67C859.711 1126.01 856.429 1126.43 854.47 1126.94C852.51 1127.41 850.915 1128.26 849.685 1129.46C848.454 1130.65 847.839 1132.02 847.839 1133.57ZM883.008 1143C881.983 1143 881.47 1142.49 881.47 1141.46V1108.65C881.47 1107.62 881.983 1107.11 883.008 1107.11H885.879C886.905 1107.11 887.418 1107.62 887.418 1108.65V1111.38H887.554C889.035 1109.74 890.63 1108.52 892.339 1107.73C894.048 1106.93 896.179 1106.53 898.731 1106.53C902.878 1106.53 905.852 1107.7 907.652 1110.05C909.475 1112.38 910.386 1115.57 910.386 1119.62V1141.46C910.386 1142.49 909.874 1143 908.848 1143H905.909C904.883 1143 904.371 1142.49 904.371 1141.46V1121.26C904.371 1116.8 903.63 1113.97 902.149 1112.79C900.668 1111.58 898.788 1110.97 896.509 1110.97C893.547 1110.97 891.303 1111.86 889.776 1113.64C888.249 1115.39 887.486 1118.41 887.486 1122.7V1141.46C887.486 1142.49 886.973 1143 885.948 1143H883.008ZM919.477 1125.06C919.477 1120.16 920.662 1115.85 923.031 1112.14C925.401 1108.4 928.865 1106.53 933.422 1106.53C936.042 1106.53 938.139 1106.96 939.711 1107.83C941.283 1108.69 942.696 1109.88 943.949 1111.38H944.018C943.972 1110.7 943.949 1110.01 943.949 1109.3V1094.09C943.949 1093.06 944.462 1092.55 945.487 1092.55H948.427C949.452 1092.55 949.965 1093.06 949.965 1094.09V1141.46C949.965 1142.49 949.452 1143 948.427 1143H945.556C944.736 1143 944.291 1142.49 944.223 1141.46L944.018 1138.73H943.949C942.696 1140.23 941.283 1141.42 939.711 1142.28C938.139 1143.15 936.042 1143.58 933.422 1143.58C928.865 1143.58 925.401 1141.72 923.031 1138.01C920.662 1134.27 919.477 1129.95 919.477 1125.06ZM925.834 1125.06C925.834 1129.25 926.552 1132.64 927.987 1135.24C929.446 1137.84 931.907 1139.14 935.37 1139.14C937.831 1139.14 939.871 1138.31 941.488 1136.64C943.129 1134.96 943.949 1132.4 943.949 1128.99V1121.12C943.949 1117.71 943.129 1115.17 941.488 1113.5C939.871 1111.82 937.831 1110.97 935.37 1110.97C931.907 1110.97 929.446 1112.27 927.987 1114.87C926.552 1117.47 925.834 1120.86 925.834 1125.06ZM959.705 1139.65C958.998 1138.99 958.85 1138.37 959.26 1137.8L960.799 1135.65C961.3 1134.97 962.04 1135 963.02 1135.75C964.365 1136.78 965.857 1137.6 967.498 1138.21C969.161 1138.83 971.052 1139.14 973.172 1139.14C974.425 1139.14 975.541 1138.99 976.521 1138.69C977.501 1138.37 978.356 1137.79 979.085 1136.95C979.837 1136.11 980.213 1134.98 980.213 1133.57C980.213 1132.75 980.03 1131.97 979.666 1131.24C979.324 1130.51 978.777 1129.93 978.025 1129.5C977.296 1129.04 976.578 1128.69 975.872 1128.44C974.71 1128.01 973.548 1127.65 972.385 1127.38C971.246 1127.08 969.742 1126.64 967.874 1126.05C966.621 1125.66 965.436 1125.11 964.319 1124.41C963.203 1123.68 962.223 1122.7 961.38 1121.47C960.559 1120.24 960.149 1118.54 960.149 1116.37C960.149 1114.16 960.821 1112.26 962.166 1110.67C963.51 1109.07 965.196 1107.99 967.224 1107.42C969.252 1106.83 971.223 1106.53 973.137 1106.53C975.963 1106.53 978.23 1106.86 979.939 1107.52C981.671 1108.16 983.163 1108.92 984.417 1109.81C985.146 1110.34 985.248 1110.94 984.724 1111.62L983.186 1113.67C982.708 1114.33 981.967 1114.31 980.965 1113.61C980.122 1113.01 978.925 1112.45 977.376 1111.93C975.826 1111.41 974.47 1111.14 973.308 1111.14C971.873 1111.14 970.642 1111.3 969.617 1111.62C968.592 1111.94 967.76 1112.49 967.122 1113.26C966.484 1114.04 966.165 1114.95 966.165 1116C966.165 1116.8 966.29 1117.51 966.541 1118.15C966.791 1118.77 967.259 1119.34 967.942 1119.86C968.626 1120.38 969.583 1120.81 970.813 1121.12C972.727 1121.63 974.47 1122.08 976.043 1122.49C977.638 1122.9 979.073 1123.4 980.349 1124C982.013 1124.77 983.289 1125.63 984.177 1126.56C985.089 1127.49 985.716 1128.51 986.057 1129.6C986.399 1130.67 986.57 1131.87 986.57 1133.19C986.57 1135.63 985.841 1137.69 984.383 1139.38C982.947 1141.06 981.341 1142.19 979.563 1142.76C977.786 1143.31 975.644 1143.58 973.137 1143.58C969.742 1143.58 966.826 1143.1 964.387 1142.15C961.972 1141.17 960.411 1140.33 959.705 1139.65ZM601.618 1194.49C601.618 1186.63 603.612 1180.39 607.599 1175.76C611.587 1171.14 617.341 1168.82 624.86 1168.82C629.19 1168.82 632.858 1169.5 635.866 1170.84C638.874 1172.19 640.993 1174.13 642.223 1176.69C643.044 1178.37 642.907 1179.51 641.813 1180.1L637.712 1182.29C636.276 1183.07 635.091 1182.63 634.157 1180.99C633.565 1179.94 632.459 1179 630.842 1178.16C629.247 1177.31 627.367 1176.89 625.202 1176.89C620.417 1176.89 617.067 1178.41 615.153 1181.44C613.239 1184.44 612.282 1188.8 612.282 1194.49C612.282 1200.19 613.239 1204.55 615.153 1207.58C617.067 1210.59 620.417 1212.1 625.202 1212.1C627.777 1212.1 629.941 1211.51 631.696 1210.35C633.473 1209.19 634.704 1208.09 635.387 1207.04C636.504 1205.33 637.689 1204.9 638.942 1205.74L643.044 1208.47C644.16 1209.22 644.274 1210.36 643.385 1211.89C642.064 1214.17 639.797 1216.12 636.584 1217.74C633.371 1219.35 629.463 1220.16 624.86 1220.16C617.455 1220.16 611.724 1217.85 607.668 1213.22C603.635 1208.6 601.618 1202.35 601.618 1194.49ZM651.451 1209.43C651.451 1205.37 653.342 1202.4 657.124 1200.51C660.93 1198.62 666.604 1197.51 674.146 1197.19V1194.87C674.146 1192.73 673.656 1190.88 672.676 1189.33C671.719 1187.76 669.805 1186.97 666.934 1186.97C665.111 1186.97 663.653 1187.16 662.559 1187.52C661.465 1187.86 660.463 1188.33 659.551 1188.92C658.662 1189.49 657.808 1190.23 656.988 1191.14C656.372 1191.83 655.791 1191.86 655.244 1191.25L653.467 1189.2C652.966 1188.63 653.137 1187.94 653.98 1187.14C655.188 1186.01 656.361 1185.15 657.5 1184.58C658.64 1184.01 660.052 1183.53 661.739 1183.15C663.448 1182.74 665.179 1182.53 666.934 1182.53C671.696 1182.53 675.091 1183.76 677.119 1186.22C679.147 1188.66 680.161 1192.01 680.161 1196.27V1217.46C680.161 1218.49 679.649 1219 678.623 1219H675.547C674.659 1219 674.214 1218.49 674.214 1217.46V1215.79H674.146C672.346 1217.2 670.58 1218.19 668.848 1218.76C667.139 1219.31 665.225 1219.58 663.106 1219.58C659.369 1219.58 656.486 1218.69 654.458 1216.92C652.453 1215.11 651.451 1212.62 651.451 1209.43ZM657.671 1209.57C657.671 1210.98 657.967 1212.12 658.56 1212.98C659.152 1213.83 659.973 1214.37 661.021 1214.62C662.069 1214.85 663.163 1214.97 664.302 1214.97C666.057 1214.97 667.72 1214.8 669.292 1214.45C670.865 1214.11 672.482 1213.21 674.146 1211.75V1201.67C669.543 1202.01 666.262 1202.43 664.302 1202.94C662.342 1203.41 660.747 1204.26 659.517 1205.46C658.286 1206.65 657.671 1208.02 657.671 1209.57ZM689.56 1187.62C688.534 1187.62 688.021 1187.22 688.021 1186.43V1184.31C688.021 1183.51 688.534 1183.11 689.56 1183.11H693.593V1180.04C693.593 1179.58 693.707 1179.15 693.935 1178.74L696.327 1174.4C696.76 1173.6 697.113 1173.2 697.387 1173.2H698.583C699.267 1173.2 699.608 1173.6 699.608 1174.4V1183.11H706.889C707.914 1183.11 708.427 1183.51 708.427 1184.31V1186.43C708.427 1187.22 707.914 1187.62 706.889 1187.62H699.608V1209.4C699.608 1211.79 699.962 1213.35 700.668 1214.08C701.397 1214.78 702.263 1215.14 703.266 1215.14C704.04 1215.14 704.963 1214.91 706.034 1214.45C707.128 1214 707.88 1213.61 708.29 1213.29C708.7 1212.97 709.019 1213.08 709.247 1213.6L710.375 1216.23C710.557 1216.69 710.421 1217.05 709.965 1217.33C709.076 1217.85 707.777 1218.36 706.068 1218.86C704.359 1219.34 702.65 1219.58 700.941 1219.58C698.572 1219.58 696.749 1218.73 695.473 1217.02C694.219 1215.31 693.593 1212.89 693.593 1209.77V1187.62H689.56ZM716.663 1201.06C716.663 1195.7 717.984 1191.28 720.627 1187.79C723.294 1184.28 727.361 1182.53 732.83 1182.53C736.521 1182.53 739.335 1183.19 741.272 1184.51C743.232 1185.81 744.644 1187.14 745.51 1188.51C745.989 1189.26 745.886 1189.87 745.203 1190.32L743.049 1191.72C742.366 1192.2 741.682 1191.9 740.999 1190.8C740.338 1189.75 739.404 1188.85 738.196 1188.1C737.011 1187.35 735.222 1186.97 732.83 1186.97C729.708 1186.97 727.293 1188.12 725.584 1190.43C723.875 1192.73 723.02 1196.27 723.02 1201.06C723.02 1205.84 723.875 1209.38 725.584 1211.69C727.293 1213.99 729.708 1215.14 732.83 1215.14C735.359 1215.14 737.296 1214.66 738.64 1213.7C739.985 1212.72 740.964 1211.66 741.58 1210.52C742.172 1209.45 742.844 1209.14 743.596 1209.6L745.886 1210.97C746.57 1211.38 746.672 1211.99 746.194 1212.81C745.624 1213.79 744.325 1215.17 742.297 1216.95C740.292 1218.7 737.136 1219.58 732.83 1219.58C727.361 1219.58 723.294 1217.84 720.627 1214.35C717.984 1210.84 716.663 1206.41 716.663 1201.06ZM756.617 1219C755.592 1219 755.079 1218.49 755.079 1217.46V1170.09C755.079 1169.06 755.592 1168.55 756.617 1168.55H759.557C760.582 1168.55 761.095 1169.06 761.095 1170.09V1185.33C761.095 1186.02 761.072 1186.7 761.027 1187.38H761.163C762.644 1185.74 764.239 1184.52 765.948 1183.73C767.657 1182.93 769.788 1182.53 772.34 1182.53C776.487 1182.53 779.461 1183.7 781.261 1186.05C783.084 1188.38 783.995 1191.57 783.995 1195.62V1217.46C783.995 1218.49 783.483 1219 782.457 1219H779.518C778.492 1219 777.98 1218.49 777.98 1217.46V1197.26C777.98 1192.8 777.239 1189.97 775.758 1188.79C774.277 1187.58 772.397 1186.97 770.118 1186.97C767.156 1186.97 764.912 1187.86 763.385 1189.64C761.858 1191.39 761.095 1194.41 761.095 1198.7V1217.46C761.095 1218.49 760.582 1219 759.557 1219H756.617ZM796.572 1219C795.547 1219 795.034 1218.49 795.034 1217.46V1170.09C795.034 1169.06 795.547 1168.55 796.572 1168.55H799.511C800.537 1168.55 801.05 1169.06 801.05 1170.09V1185.3C801.05 1186.01 801.027 1186.7 800.981 1187.38H801.05C802.303 1185.88 803.716 1184.69 805.288 1183.83C806.86 1182.96 808.956 1182.53 811.577 1182.53C816.134 1182.53 819.598 1184.4 821.968 1188.14C824.337 1191.85 825.522 1196.16 825.522 1201.06C825.522 1205.95 824.337 1210.27 821.968 1214.01C819.598 1217.72 816.134 1219.58 811.577 1219.58C808.956 1219.58 806.86 1219.15 805.288 1218.28C803.716 1217.42 802.303 1216.23 801.05 1214.73H800.981L800.776 1217.46C800.708 1218.49 800.263 1219 799.443 1219H796.572ZM801.05 1204.99C801.05 1208.4 801.858 1210.96 803.476 1212.64C805.117 1214.31 807.168 1215.14 809.629 1215.14C813.092 1215.14 815.542 1213.84 816.977 1211.24C818.436 1208.64 819.165 1205.25 819.165 1201.06C819.165 1196.86 818.436 1193.47 816.977 1190.87C815.542 1188.27 813.092 1186.97 809.629 1186.97C807.168 1186.97 805.117 1187.82 803.476 1189.5C801.858 1191.17 801.05 1193.71 801.05 1197.12V1204.99ZM832.767 1209.43C832.767 1205.37 834.658 1202.4 838.441 1200.51C842.246 1198.62 847.92 1197.51 855.462 1197.19V1194.87C855.462 1192.73 854.972 1190.88 853.993 1189.33C853.035 1187.76 851.121 1186.97 848.25 1186.97C846.427 1186.97 844.969 1187.16 843.875 1187.52C842.782 1187.86 841.779 1188.33 840.868 1188.92C839.979 1189.49 839.124 1190.23 838.304 1191.14C837.689 1191.83 837.108 1191.86 836.561 1191.25L834.784 1189.2C834.282 1188.63 834.453 1187.94 835.296 1187.14C836.504 1186.01 837.677 1185.15 838.817 1184.58C839.956 1184.01 841.369 1183.53 843.055 1183.15C844.764 1182.74 846.496 1182.53 848.25 1182.53C853.013 1182.53 856.408 1183.76 858.436 1186.22C860.464 1188.66 861.478 1192.01 861.478 1196.27V1217.46C861.478 1218.49 860.965 1219 859.94 1219H856.864C855.975 1219 855.531 1218.49 855.531 1217.46V1215.79H855.462C853.662 1217.2 851.896 1218.19 850.164 1218.76C848.455 1219.31 846.541 1219.58 844.422 1219.58C840.685 1219.58 837.803 1218.69 835.775 1216.92C833.77 1215.11 832.767 1212.62 832.767 1209.43ZM838.988 1209.57C838.988 1210.98 839.284 1212.12 839.876 1212.98C840.469 1213.83 841.289 1214.37 842.337 1214.62C843.385 1214.85 844.479 1214.97 845.618 1214.97C847.373 1214.97 849.036 1214.8 850.609 1214.45C852.181 1214.11 853.799 1213.21 855.462 1211.75V1201.67C850.859 1202.01 847.578 1202.43 845.618 1202.94C843.659 1203.41 842.064 1204.26 840.833 1205.46C839.603 1206.65 838.988 1208.02 838.988 1209.57ZM874.157 1219C873.132 1219 872.619 1218.49 872.619 1217.46V1174.81C872.619 1174.35 872.733 1173.92 872.961 1173.51L875.353 1169.17C875.786 1168.37 876.14 1167.97 876.413 1167.97H877.609C878.293 1167.97 878.635 1168.37 878.635 1169.17V1217.46C878.635 1218.49 878.122 1219 877.097 1219H874.157ZM891.28 1219C890.254 1219 889.742 1218.49 889.742 1217.46V1174.81C889.742 1174.35 889.856 1173.92 890.084 1173.51L892.476 1169.17C892.909 1168.37 893.262 1167.97 893.536 1167.97H894.732C895.416 1167.97 895.757 1168.37 895.757 1169.17V1217.46C895.757 1218.49 895.245 1219 894.219 1219H891.28ZM602.609 1295C600.969 1295 600.433 1294.25 601.003 1292.74L617.751 1248.75C618.457 1246.91 619.528 1245.99 620.964 1245.99H625.749C627.184 1245.99 628.255 1246.91 628.962 1248.75L645.71 1292.74C646.279 1294.25 645.744 1295 644.103 1295H638.669C637.165 1295 636.117 1294.21 635.524 1292.64L632.038 1283.45H614.675L611.188 1292.64C610.596 1294.21 609.548 1295 608.044 1295H602.609ZM617.853 1274.97H628.859L624.655 1264.1C624.154 1262.83 623.846 1261.9 623.732 1261.33C623.641 1260.74 623.538 1259.87 623.425 1258.74H623.288C623.174 1259.87 623.06 1260.74 622.946 1261.33C622.855 1261.9 622.559 1262.83 622.057 1264.1L617.853 1274.97ZM651.177 1291.65C650.471 1290.99 650.323 1290.37 650.733 1289.8L652.271 1287.65C652.772 1286.97 653.513 1287 654.493 1287.75C655.837 1288.78 657.329 1289.6 658.97 1290.21C660.633 1290.83 662.525 1291.14 664.644 1291.14C665.897 1291.14 667.014 1290.99 667.994 1290.69C668.973 1290.37 669.828 1289.79 670.557 1288.95C671.309 1288.11 671.685 1286.98 671.685 1285.57C671.685 1284.75 671.503 1283.97 671.138 1283.24C670.796 1282.51 670.249 1281.93 669.497 1281.5C668.768 1281.04 668.05 1280.69 667.344 1280.44C666.182 1280.01 665.02 1279.65 663.858 1279.38C662.718 1279.08 661.215 1278.64 659.346 1278.05C658.093 1277.66 656.908 1277.11 655.791 1276.41C654.675 1275.68 653.695 1274.7 652.852 1273.47C652.032 1272.24 651.621 1270.54 651.621 1268.37C651.621 1266.16 652.294 1264.26 653.638 1262.67C654.982 1261.07 656.669 1259.99 658.697 1259.42C660.725 1258.83 662.696 1258.53 664.61 1258.53C667.435 1258.53 669.702 1258.86 671.411 1259.52C673.143 1260.16 674.636 1260.92 675.889 1261.81C676.618 1262.34 676.721 1262.94 676.197 1263.62L674.659 1265.67C674.18 1266.33 673.439 1266.31 672.437 1265.61C671.594 1265.01 670.397 1264.45 668.848 1263.93C667.299 1263.41 665.943 1263.14 664.781 1263.14C663.345 1263.14 662.115 1263.3 661.089 1263.62C660.064 1263.94 659.232 1264.49 658.594 1265.26C657.956 1266.04 657.637 1266.95 657.637 1268C657.637 1268.8 657.762 1269.51 658.013 1270.15C658.264 1270.77 658.731 1271.34 659.414 1271.86C660.098 1272.38 661.055 1272.81 662.285 1273.12C664.2 1273.63 665.943 1274.08 667.515 1274.49C669.11 1274.9 670.546 1275.4 671.822 1276C673.485 1276.77 674.761 1277.63 675.65 1278.56C676.561 1279.49 677.188 1280.51 677.53 1281.6C677.871 1282.67 678.042 1283.87 678.042 1285.19C678.042 1287.63 677.313 1289.69 675.855 1291.38C674.419 1293.06 672.813 1294.19 671.035 1294.76C669.258 1295.31 667.116 1295.58 664.61 1295.58C661.215 1295.58 658.298 1295.1 655.86 1294.15C653.444 1293.17 651.883 1292.33 651.177 1291.65ZM684.843 1291.65C684.136 1290.99 683.988 1290.37 684.398 1289.8L685.936 1287.65C686.438 1286.97 687.178 1287 688.158 1287.75C689.503 1288.78 690.995 1289.6 692.636 1290.21C694.299 1290.83 696.19 1291.14 698.31 1291.14C699.563 1291.14 700.679 1290.99 701.659 1290.69C702.639 1290.37 703.493 1289.79 704.223 1288.95C704.975 1288.11 705.351 1286.98 705.351 1285.57C705.351 1284.75 705.168 1283.97 704.804 1283.24C704.462 1282.51 703.915 1281.93 703.163 1281.5C702.434 1281.04 701.716 1280.69 701.01 1280.44C699.848 1280.01 698.686 1279.65 697.523 1279.38C696.384 1279.08 694.88 1278.64 693.012 1278.05C691.758 1277.66 690.574 1277.11 689.457 1276.41C688.34 1275.68 687.361 1274.7 686.518 1273.47C685.697 1272.24 685.287 1270.54 685.287 1268.37C685.287 1266.16 685.959 1264.26 687.304 1262.67C688.648 1261.07 690.334 1259.99 692.362 1259.42C694.39 1258.83 696.361 1258.53 698.275 1258.53C701.101 1258.53 703.368 1258.86 705.077 1259.52C706.809 1260.16 708.301 1260.92 709.555 1261.81C710.284 1262.34 710.386 1262.94 709.862 1263.62L708.324 1265.67C707.846 1266.33 707.105 1266.31 706.102 1265.61C705.259 1265.01 704.063 1264.45 702.514 1263.93C700.964 1263.41 699.608 1263.14 698.446 1263.14C697.011 1263.14 695.78 1263.3 694.755 1263.62C693.729 1263.94 692.898 1264.49 692.26 1265.26C691.622 1266.04 691.303 1266.95 691.303 1268C691.303 1268.8 691.428 1269.51 691.679 1270.15C691.929 1270.77 692.396 1271.34 693.08 1271.86C693.764 1272.38 694.721 1272.81 695.951 1273.12C697.865 1273.63 699.608 1274.08 701.181 1274.49C702.776 1274.9 704.211 1275.4 705.487 1276C707.151 1276.77 708.427 1277.63 709.315 1278.56C710.227 1279.49 710.853 1280.51 711.195 1281.6C711.537 1282.67 711.708 1283.87 711.708 1285.19C711.708 1287.63 710.979 1289.69 709.52 1291.38C708.085 1293.06 706.478 1294.19 704.701 1294.76C702.924 1295.31 700.782 1295.58 698.275 1295.58C694.88 1295.58 691.963 1295.1 689.525 1294.15C687.11 1293.17 685.549 1292.33 684.843 1291.65ZM717.961 1277.06C717.961 1271.7 719.374 1267.28 722.2 1263.79C725.048 1260.28 729.207 1258.53 734.675 1258.53C740.144 1258.53 744.291 1260.28 747.117 1263.79C749.965 1267.28 751.389 1271.7 751.389 1277.06C751.389 1282.41 749.965 1286.84 747.117 1290.35C744.291 1293.84 740.144 1295.58 734.675 1295.58C729.207 1295.58 725.048 1293.84 722.2 1290.35C719.374 1286.84 717.961 1282.41 717.961 1277.06ZM724.319 1277.06C724.319 1281.84 725.265 1285.38 727.156 1287.69C729.047 1289.99 731.554 1291.14 734.675 1291.14C737.797 1291.14 740.304 1289.99 742.195 1287.69C744.086 1285.38 745.032 1281.84 745.032 1277.06C745.032 1272.27 744.086 1268.73 742.195 1266.43C740.304 1264.12 737.797 1262.97 734.675 1262.97C731.554 1262.97 729.047 1264.12 727.156 1266.43C725.265 1268.73 724.319 1272.27 724.319 1277.06ZM758.6 1277.06C758.6 1271.7 759.921 1267.28 762.565 1263.79C765.231 1260.28 769.298 1258.53 774.767 1258.53C778.458 1258.53 781.272 1259.19 783.209 1260.51C785.169 1261.81 786.582 1263.14 787.447 1264.51C787.926 1265.26 787.823 1265.87 787.14 1266.32L784.986 1267.72C784.303 1268.2 783.619 1267.9 782.936 1266.8C782.275 1265.75 781.341 1264.85 780.133 1264.1C778.948 1263.35 777.159 1262.97 774.767 1262.97C771.645 1262.97 769.23 1264.12 767.521 1266.43C765.812 1268.73 764.957 1272.27 764.957 1277.06C764.957 1281.84 765.812 1285.38 767.521 1287.69C769.23 1289.99 771.645 1291.14 774.767 1291.14C777.296 1291.14 779.233 1290.66 780.577 1289.7C781.922 1288.72 782.902 1287.66 783.517 1286.52C784.109 1285.45 784.781 1285.14 785.533 1285.6L787.823 1286.97C788.507 1287.38 788.61 1287.99 788.131 1288.81C787.561 1289.79 786.263 1291.17 784.235 1292.95C782.229 1294.7 779.073 1295.58 774.767 1295.58C769.298 1295.58 765.231 1293.84 762.565 1290.35C759.921 1286.84 758.6 1282.41 758.6 1277.06ZM798.554 1295C797.529 1295 797.016 1294.49 797.016 1293.46V1260.65C797.016 1259.62 797.529 1259.11 798.554 1259.11H801.494C802.519 1259.11 803.032 1259.62 803.032 1260.65V1293.46C803.032 1294.49 802.519 1295 801.494 1295H798.554ZM798.554 1252.62C797.529 1252.62 797.016 1252.1 797.016 1251.08V1248.14C797.016 1247.11 797.529 1246.6 798.554 1246.6H801.494C802.519 1246.6 803.032 1247.11 803.032 1248.14V1251.08C803.032 1252.1 802.519 1252.62 801.494 1252.62H798.554ZM812.191 1285.43C812.191 1281.37 814.082 1278.4 817.865 1276.51C821.67 1274.62 827.344 1273.51 834.886 1273.19V1270.87C834.886 1268.73 834.396 1266.88 833.416 1265.33C832.459 1263.76 830.545 1262.97 827.674 1262.97C825.851 1262.97 824.393 1263.16 823.299 1263.52C822.205 1263.86 821.203 1264.33 820.291 1264.92C819.403 1265.49 818.548 1266.23 817.728 1267.14C817.113 1267.83 816.532 1267.86 815.985 1267.25L814.207 1265.2C813.706 1264.63 813.877 1263.94 814.72 1263.14C815.928 1262.01 817.101 1261.15 818.241 1260.58C819.38 1260.01 820.793 1259.53 822.479 1259.15C824.188 1258.74 825.92 1258.53 827.674 1258.53C832.437 1258.53 835.832 1259.76 837.86 1262.22C839.888 1264.66 840.902 1268.01 840.902 1272.27V1293.46C840.902 1294.49 840.389 1295 839.364 1295H836.287C835.399 1295 834.954 1294.49 834.954 1293.46V1291.79H834.886C833.086 1293.2 831.32 1294.19 829.588 1294.76C827.879 1295.31 825.965 1295.58 823.846 1295.58C820.109 1295.58 817.227 1294.69 815.199 1292.92C813.193 1291.11 812.191 1288.62 812.191 1285.43ZM818.411 1285.57C818.411 1286.98 818.708 1288.12 819.3 1288.98C819.893 1289.83 820.713 1290.37 821.761 1290.62C822.809 1290.85 823.903 1290.97 825.042 1290.97C826.797 1290.97 828.46 1290.8 830.033 1290.45C831.605 1290.11 833.223 1289.21 834.886 1287.75V1277.67C830.283 1278.01 827.002 1278.43 825.042 1278.94C823.083 1279.41 821.488 1280.26 820.257 1281.46C819.027 1282.65 818.411 1284.02 818.411 1285.57ZM850.3 1263.62C849.274 1263.62 848.762 1263.22 848.762 1262.43V1260.31C848.762 1259.51 849.274 1259.11 850.3 1259.11H854.333V1256.04C854.333 1255.58 854.447 1255.15 854.675 1254.74L857.067 1250.4C857.5 1249.6 857.853 1249.2 858.127 1249.2H859.323C860.007 1249.2 860.349 1249.6 860.349 1250.4V1259.11H867.629C868.654 1259.11 869.167 1259.51 869.167 1260.31V1262.43C869.167 1263.22 868.654 1263.62 867.629 1263.62H860.349V1285.4C860.349 1287.79 860.702 1289.35 861.408 1290.08C862.137 1290.78 863.003 1291.14 864.006 1291.14C864.781 1291.14 865.703 1290.91 866.774 1290.45C867.868 1290 868.62 1289.61 869.03 1289.29C869.44 1288.97 869.759 1289.08 869.987 1289.6L871.115 1292.23C871.297 1292.69 871.161 1293.05 870.705 1293.33C869.816 1293.85 868.518 1294.36 866.809 1294.86C865.1 1295.34 863.391 1295.58 861.682 1295.58C859.312 1295.58 857.489 1294.73 856.213 1293.02C854.96 1291.31 854.333 1288.89 854.333 1285.77V1263.62H850.3ZM880.889 1295C879.864 1295 879.351 1294.49 879.351 1293.46V1260.65C879.351 1259.62 879.864 1259.11 880.889 1259.11H883.829C884.854 1259.11 885.367 1259.62 885.367 1260.65V1293.46C885.367 1294.49 884.854 1295 883.829 1295H880.889ZM880.889 1252.62C879.864 1252.62 879.351 1252.1 879.351 1251.08V1248.14C879.351 1247.11 879.864 1246.6 880.889 1246.6H883.829C884.854 1246.6 885.367 1247.11 885.367 1248.14V1251.08C885.367 1252.1 884.854 1252.62 883.829 1252.62H880.889ZM894.526 1277.06C894.526 1271.7 895.938 1267.28 898.764 1263.79C901.612 1260.28 905.771 1258.53 911.239 1258.53C916.708 1258.53 920.855 1260.28 923.681 1263.79C926.529 1267.28 927.953 1271.7 927.953 1277.06C927.953 1282.41 926.529 1286.84 923.681 1290.35C920.855 1293.84 916.708 1295.58 911.239 1295.58C905.771 1295.58 901.612 1293.84 898.764 1290.35C895.938 1286.84 894.526 1282.41 894.526 1277.06ZM900.883 1277.06C900.883 1281.84 901.829 1285.38 903.72 1287.69C905.611 1289.99 908.118 1291.14 911.239 1291.14C914.361 1291.14 916.868 1289.99 918.759 1287.69C920.65 1285.38 921.596 1281.84 921.596 1277.06C921.596 1272.27 920.65 1268.73 918.759 1266.43C916.868 1264.12 914.361 1262.97 911.239 1262.97C908.118 1262.97 905.611 1264.12 903.72 1266.43C901.829 1268.73 900.883 1272.27 900.883 1277.06ZM938.65 1295C937.625 1295 937.112 1294.49 937.112 1293.46V1260.65C937.112 1259.62 937.625 1259.11 938.65 1259.11H941.521C942.547 1259.11 943.059 1259.62 943.059 1260.65V1263.38H943.196C944.677 1261.74 946.272 1260.52 947.981 1259.73C949.69 1258.93 951.821 1258.53 954.373 1258.53C958.52 1258.53 961.494 1259.7 963.294 1262.05C965.117 1264.38 966.028 1267.57 966.028 1271.62V1293.46C966.028 1294.49 965.515 1295 964.49 1295H961.551C960.525 1295 960.012 1294.49 960.012 1293.46V1273.26C960.012 1268.8 959.272 1265.97 957.791 1264.79C956.31 1263.58 954.43 1262.97 952.151 1262.97C949.189 1262.97 946.944 1263.86 945.418 1265.64C943.891 1267.39 943.128 1270.41 943.128 1274.7V1293.46C943.128 1294.49 942.615 1295 941.59 1295H938.65Z" fill="white"/>
<defs>
<clipPath id="clip0_2180_18">
<rect width="740.497" height="769" fill="white" transform="translate(19.5356 29.6477) rotate(1.45569)"/>
</clipPath>
<clipPath id="clip1_2180_18">
<rect width="740.497" height="769" fill="white" transform="translate(30.5356 888.648) rotate(1.45569)"/>
</clipPath>
</defs>
</svg>
