<svg width="894" height="513" viewBox="0 0 894 513" fill="none" xmlns="http://www.w3.org/2000/svg">
<g clip-path="url(#clip0_2186_23)">
<path d="M377.711 25.7602C366.357 26.8722 356.583 31.7255 349.292 39.6428C345.137 44.2387 339.367 54.2954 340.326 55.3201C341.189 56.2423 351.805 53.111 358.286 49.9746C369.052 44.8464 377.307 37.7539 383.35 28.6044C384.274 27.1274 384.703 25.7379 384.314 25.5279C383.926 25.318 380.968 25.4429 377.711 25.7602Z" fill="white"/>
<path d="M388.497 31.4358C386.955 33.9975 385.817 36.1693 386.011 36.2742C386.107 36.3767 389.702 38.2687 393.883 40.3755C402.828 44.9042 410.031 52.0895 414.817 61.4141L418.202 67.7022L419.381 63.9309C420.126 61.7491 420.687 59.0625 420.715 57.9628C420.743 56.8632 421.263 55.7761 421.858 55.5911C423.943 54.9439 418.103 44.4921 412.633 38.8514C407.256 33.413 399.793 28.7219 394.31 27.4822C391.468 26.9098 391.067 27.1997 388.497 31.4358Z" fill="white"/>
<path d="M234.658 36.0295C188.321 41.9543 146.762 61.4048 111.678 93.4238C102.905 101.504 87.6986 118.623 83.8972 124.828C83.4858 125.518 85.9861 127.882 89.8541 130.681L96.5278 135.453L102.431 127.9C110.783 117.009 133.076 96.1683 144.703 88.1611C174.466 67.9106 204.497 56.4699 238.276 52.5267C250.916 51.1474 273.859 51.2302 286.13 52.7425C294.866 53.8648 294.564 54.1572 295.338 43.0732L295.687 37.0802L290.784 36.2554C280.388 34.5907 246.909 34.4402 234.658 36.0295Z" fill="white"/>
<path d="M306.247 40.0494C305.033 41.319 303.791 43.6882 303.455 45.2802C302.465 49.3564 304.617 69.3175 307.269 81.1887C310.192 94.0671 314.21 102.572 322.046 111.974C329.885 121.276 330.886 124.503 329.781 136.979C327.873 157.837 323.52 170.23 315.141 178.32C305.651 187.482 292.844 191.558 274.933 191.103C264.403 190.835 263.913 190.723 263.379 188.508C262.224 183.577 262.63 183.088 268.651 182.54C276.252 181.833 283.426 178.514 288.086 173.431C294.158 166.983 295.117 164.107 294.067 155.077L293.079 147.45L296.817 143.743C302.17 138.478 301.966 134.871 296.115 128.721C293.524 126.054 289.634 120.253 287.293 115.492C279.803 100.197 264.602 86.1064 250.252 81.1402C244.59 79.1957 241.156 78.7084 229.641 78.4158C217.536 78.1081 215.068 78.3455 209.405 80.3023C195.796 84.9581 187.023 93.0378 178.953 108.338C176.572 112.879 174.116 116.518 173.329 116.498C172.64 116.48 171.141 117.342 170.132 118.317C168.213 120.169 168.115 120.166 163.455 117.547C159.279 115.24 157.906 115.005 149.336 115.088C140.668 115.167 139.182 115.53 132.007 118.849C125.628 121.887 122.114 124.499 113.13 133.174C101.222 144.475 97.121 146.971 87.9254 148.438C65.8749 151.979 33.9033 135.162 19.2233 112.181C18.1813 110.554 16.6321 109.515 15.1559 109.477C6.59393 109.259 6.78425 132.772 15.5652 151.501C28.4553 179.037 52.3138 197.349 83.5656 203.745C106.099 208.319 126.282 204.631 145.203 192.507C156.615 185.195 168.967 171.905 171.931 163.777L172.996 160.603L176.248 164.387C179.785 168.578 192.401 175.901 202.547 179.66L209.28 182.132L209.161 194.533L209.142 206.936L204.135 210.21C196.826 214.926 188.621 223.921 184.786 231.426C180.126 240.41 180.055 247.11 184.268 267.324C190.246 295.585 191.286 308.916 188.196 318.14C185.951 325.085 175.696 341.13 169.947 346.486C163.491 352.524 152.321 358.042 130.754 365.796C109.586 373.361 106.003 374.871 100.395 378.529C97.99 380.169 95.696 381.311 95.3099 381.001C93.6623 379.959 82.6102 361.472 78.0242 352.052C64.8312 324.808 58.2897 299.334 56.7077 268.584C55.9935 254.061 56.9523 239.581 59.802 220.447L60.411 215.861L54.7309 214.616C51.501 213.834 47.9759 213.044 46.8984 212.817C44.9403 212.367 44.6324 212.859 43.5035 218.532C39.0886 241.127 38.9043 271.633 42.9931 296.745C54.4277 366.057 97.3236 425.766 158.93 458.342C180.408 469.591 201.301 476.724 226.3 481.161C239.535 483.498 273.692 484.066 287.824 482.124C371.22 471.039 795.91 445.62 823.825 366.303C843.987 309.197 840.846 246.797 815.239 192.629C809.821 181.088 796.115 158.532 794.069 157.68C792.315 156.935 780.466 165.937 781.314 167.459C781.692 168.069 783.967 171.528 786.435 175.192C803.133 200.124 814.821 232.331 819.207 265.153C821.097 279.906 820.309 310.896 817.574 325.531C809.234 370.834 774.429 438.372 757.449 440.041C740.468 441.71 329.452 459.974 283.814 465.517C265.047 467.741 239.273 466.686 220.953 462.919C214.489 461.554 209.104 460.317 208.912 460.112C208.72 459.907 212.408 454.299 217.009 447.614C221.709 440.931 228.769 430.507 232.759 424.607C236.753 418.606 242.757 410.956 245.998 407.437C254.602 398.253 261.618 389.528 268.065 379.989C275.127 369.465 278.545 362.85 284.738 347.802L289.673 335.724L297.365 331.418C307.056 325.962 314.83 318.457 318.972 310.46C321.663 305.327 322.423 302.545 322.888 295.855C323.629 286.07 322.033 279.128 317.22 270.903C315.52 268.059 314.407 265.329 314.811 264.939C315.212 264.65 327.081 258.749 341.239 251.907C369.953 238.032 375.848 234.68 383.006 228.16C389.356 222.42 391.206 219.366 394.604 209.649C400.03 193.781 412.671 141.986 412.856 134.688C412.943 131.289 416.574 127.881 424.35 124.177C427.141 122.847 430.24 121.025 431.345 120.153C436.782 115.49 440.15 103.071 441.329 83.7952C442.157 70.6119 442.016 68.4076 440.52 65.2686C439.491 63.1418 437.954 61.6023 436.68 61.3698C434.424 61.0124 434.424 61.0124 434.071 74.9079C433.702 89.4032 431.585 102.954 428.65 109.982C427.185 113.345 425.875 114.512 419.99 117.464C411.811 121.557 406.478 126.023 405.799 129.507C405.471 130.799 404.433 136.775 403.293 142.848C400.871 156.791 391.566 193.566 387.403 206.265C382.182 221.837 377.46 225.518 341.467 242.91C329.503 248.708 317.137 254.795 313.944 256.415L308.253 259.471L304.325 255.17L300.296 250.966L311.261 245.743C323.223 240.045 336.614 232.383 342.941 227.542C354.187 219.025 363.602 205.06 369.131 188.995C370.411 185.126 373.026 179.091 374.987 175.539C382.845 160.834 390.114 138.312 390.386 127.615C390.475 124.116 390.379 124.014 386.738 123.921L382.998 123.826L381.695 132.496C380.282 141.563 376.084 155.661 374.903 155.631C374.509 155.621 373.871 153.604 373.639 151.097C373.309 148.588 370.259 140.708 366.899 133.42C360.83 120.362 360.833 120.262 354.815 116.808C351.616 114.826 348.699 113.352 348.497 113.546C348.295 113.741 351.193 119.817 354.944 127.215C365.36 147.486 366.548 151.117 366.261 162.414C365.848 174.807 362.808 185.933 356.08 198.767C349.56 211.205 343.281 218.048 331.467 225.65C313.246 237.391 289.055 247.68 247.64 261.432C233.437 266.173 221.513 270.371 221.014 270.659C220.206 271.438 221.916 277.784 222.998 277.811C224.376 277.846 268.97 262.974 280.206 258.758C286.371 256.414 291.736 254.55 292.228 254.562C292.818 254.577 296.949 258.684 301.45 263.7C311.602 274.961 314.879 281.647 315.117 291.656C315.453 305.569 307.883 316.68 292.304 325.187C284.115 329.681 282.182 332.132 277.438 344.416C270.051 363.834 258.978 381.059 242.153 399.837C237.388 405.218 231.394 412.468 229.039 416.009C226.585 419.548 219.735 429.477 213.804 438.129C198.568 460.25 201.183 458.115 192.69 455.199C179.806 450.67 159.585 440.353 147.385 432.14C134.701 423.615 114.29 405.291 105.888 394.874C101.115 388.951 100.928 388.546 102.546 386.887C105.078 384.15 114.539 379.989 133.019 373.556C167.302 361.423 177.026 354.668 188.766 334.46C192.368 328.349 195.698 321.332 196.364 318.348C199.016 307.011 197.719 292.174 191.829 264.315C188.311 247.72 188.378 241.22 192.101 234.212C199.237 220.789 221.756 206.557 244.15 201.124C250.293 199.68 256.806 199.145 271.876 199.028C293.055 198.766 297.506 197.978 308.472 192.755C316.25 188.952 325.941 179.595 329.579 172.085C333.211 164.775 336.534 150.254 337.655 137.179C338.808 122.803 337.448 118.167 329.039 108.05C320.055 97.3187 316.335 88.7214 313.597 72.4466C311.709 61.4951 310.682 47.6645 311.593 46.6874C312.602 45.7127 318.958 51.376 323.825 57.5016C325.825 60.1533 327.836 62.4051 328.131 62.4126C328.525 62.4226 329.075 60.1359 329.543 57.2468C330.356 52.3659 330.265 52.0635 326.72 48.1722C318.097 38.7501 310.396 35.6534 306.247 40.0494ZM241.331 87.3156L247.503 88.5728L248.075 93.1888C248.806 99.3093 247.479 112.78 245.315 120.427C240.55 137.412 229.788 150.143 214.341 157.353C205.669 161.434 196.247 164.095 191.227 163.967C187.685 163.877 182.933 160.956 182.212 158.337C181.037 154.205 182.288 128.229 184.048 120.971C190.646 93.8301 211.843 81.2645 241.331 87.3156ZM271.283 106.083C275.401 110.689 279.198 116.287 281.158 120.538C282.933 124.284 286.147 129.568 288.345 132.224L292.455 137.13L288.914 140.842C285.373 144.553 285.269 144.75 285.695 151.263C285.997 154.872 286.39 158.783 286.655 159.99C287.469 162.812 281.674 169.967 276.589 172.439C273.995 173.773 270.038 174.473 265.011 174.645C254.958 174.99 253.746 176.16 254.524 184.282C254.837 187.491 255.159 190.3 255.25 190.602C255.245 190.802 253.163 191.35 250.395 191.78C243.18 192.797 232.468 195.825 225.2 198.942C221.714 200.454 218.434 201.671 218.04 201.661C217.548 201.648 217.264 197.34 217.396 192.141C217.764 177.646 216.818 176.122 205.69 172.238L201.784 170.938L207.942 168.894C225.524 162.938 239.902 151.3 247.053 137.277C252.546 126.513 254.614 118.763 255.767 104.388L256.655 92.7066L260.618 95.6082C262.841 97.2652 267.645 101.989 271.283 106.083ZM161.364 126.197C165.787 130.41 166.682 133.934 166.561 146.435C166.512 156.137 166.284 157.332 163.583 162.865C159.542 170.765 146.627 182.941 136.742 188.291C132.649 190.488 125.681 193.412 121.313 194.801C101.556 201.101 73.516 196.188 52.2911 182.744C34.9443 171.7 19.6763 148.604 17.199 129.835C16.7882 126.624 16.5616 123.917 16.7635 123.722C16.9654 123.528 19.1781 125.584 21.6733 128.149C28.5838 135.226 39.1077 143.496 45.9078 147.17C59.412 154.416 78.5112 158.502 89.8898 156.391C100.279 154.454 105.874 151.295 115.773 141.543C126.582 130.815 130.494 128.013 138.055 125.004C142.232 123.41 145.792 122.8 150.91 122.93C157.405 123.095 158.286 123.318 161.364 126.197Z" fill="white"/>
<path d="M378.641 43.3893C376.107 46.2258 366.992 52.2962 360.415 55.3301C353.437 58.6539 352.72 59.7361 352.507 68.1334C352.415 71.7322 352.605 72.0371 355.163 72.1021C358.706 72.1922 368.515 69.8406 373.79 67.6739C381.058 64.5575 393.293 51.9643 393.408 47.4657C393.438 46.2661 383.999 41.8249 381.342 41.7574C380.554 41.7374 379.356 42.4071 378.641 43.3893Z" fill="white"/>
<path d="M396.074 54.9361C389.88 66.1824 377.165 74.362 361.832 77.0734C357.381 77.8606 353.621 78.5653 353.421 78.6602C353.023 78.8502 355.522 85.1157 356.756 86.9476C357.987 88.8795 371.957 85.5334 381.724 80.98C393.585 75.3795 406.134 62.094 404.502 56.5508C404.232 55.5436 402.802 53.7066 401.353 52.5695L398.651 50.4001L396.074 54.9361Z" fill="white"/>
<path d="M340.663 61.4309C337.996 61.7633 337.892 61.9607 337.724 68.5586C337.414 80.7546 341.195 90.8539 349.526 100.169C355.175 106.514 356.437 107.246 356.515 104.147C356.556 102.548 357.255 102.166 360.109 102.238L363.75 102.331L359.799 98.9292C350.065 90.5792 346.71 83.0915 347.038 70.1957C347.297 59.999 347.678 60.5088 340.663 61.4309Z" fill="white"/>
<path d="M406.483 67.7047C399.519 78.2312 387.597 86.2309 372.317 90.7442C361.304 93.9654 361.297 94.2653 370.622 99.3039C376.643 102.658 376.839 102.663 382.091 101.396C394.381 98.3071 407.118 89.2277 412.182 79.8534L414.355 75.7072L412.428 70.1565C411.424 67.03 410.213 64.2983 409.825 64.0884C409.439 63.7785 407.919 65.4404 406.483 67.7047Z" fill="white"/>
<path d="M421.992 73.6006C416.854 85.8741 407.125 96.7304 396.147 102.453C388.861 106.269 377.278 108.676 367.335 108.523L358.872 108.308L363.151 110.418C386.988 121.827 416.29 108.067 423.547 82.1429C424.522 78.6665 425.237 73.7831 425.106 71.1789L424.933 66.373L421.992 73.6006Z" fill="white"/>
</g>
<path d="M428.54 250.283C426.944 250.283 426.147 249.429 426.147 247.72V203.833C426.147 202.124 426.944 201.27 428.54 201.27H433.598C435.558 201.27 437.039 202.067 438.042 203.662L455.473 231.655H455.712C455.598 230.288 455.542 228.921 455.542 227.554V203.833C455.542 202.124 456.339 201.27 457.934 201.27H463.129C464.724 201.27 465.522 202.124 465.522 203.833V247.72C465.522 249.429 464.724 250.283 463.129 250.283H458.413C456.453 250.283 454.972 249.486 453.969 247.891L436.196 219.385H435.957C436.07 220.752 436.127 222.119 436.127 223.486V247.72C436.127 249.429 435.33 250.283 433.735 250.283H428.54ZM475.296 232.339C475.296 226.688 476.709 222.188 479.534 218.838C482.36 215.488 486.404 213.814 491.668 213.814C496.043 213.814 499.666 215.352 502.537 218.428C505.431 221.481 506.878 226.369 506.878 233.091C506.878 234.116 506.411 234.629 505.477 234.629H481.653C482.041 239.027 483.226 242.092 485.208 243.823C487.191 245.532 489.435 246.387 491.942 246.387C494.585 246.387 496.613 245.943 498.025 245.054C499.438 244.165 500.475 243.288 501.136 242.422C501.865 241.465 502.571 241.283 503.255 241.875L505.272 243.618C505.796 244.074 505.796 244.701 505.272 245.498C504.839 246.159 503.597 247.219 501.546 248.677C499.518 250.135 496.317 250.864 491.942 250.864C486.245 250.864 482.041 249.19 479.329 245.84C476.64 242.49 475.296 237.99 475.296 232.339ZM481.517 230.186H500.828C500.737 226.996 499.917 224.204 498.367 221.812C496.818 219.396 494.539 218.189 491.531 218.189C488.888 218.189 486.644 219.077 484.798 220.855C482.952 222.609 481.858 225.72 481.517 230.186ZM514.43 218.906C513.405 218.906 512.892 218.508 512.892 217.71V215.591C512.892 214.793 513.405 214.395 514.43 214.395H518.464V211.318C518.464 210.863 518.578 210.43 518.805 210.02L521.198 205.679C521.631 204.881 521.984 204.483 522.258 204.483H523.454C524.137 204.483 524.479 204.881 524.479 205.679V214.395H531.759C532.785 214.395 533.298 214.793 533.298 215.591V217.71C533.298 218.508 532.785 218.906 531.759 218.906H524.479V240.679C524.479 243.071 524.832 244.632 525.539 245.361C526.268 246.068 527.134 246.421 528.136 246.421C528.911 246.421 529.834 246.193 530.905 245.737C531.999 245.282 532.751 244.894 533.161 244.575C533.571 244.256 533.89 244.359 534.118 244.883L535.246 247.515C535.428 247.97 535.291 248.335 534.836 248.609C533.947 249.133 532.648 249.645 530.939 250.147C529.23 250.625 527.521 250.864 525.812 250.864C523.442 250.864 521.62 250.01 520.343 248.301C519.09 246.592 518.464 244.177 518.464 241.055V218.906H514.43ZM545.02 250.283C543.994 250.283 543.482 249.771 543.482 248.745V201.372C543.482 200.347 543.994 199.834 545.02 199.834H547.959C548.985 199.834 549.497 200.347 549.497 201.372V216.616C549.497 217.3 549.475 217.984 549.429 218.667H549.566C551.047 217.026 552.642 215.807 554.351 215.01C556.06 214.212 558.19 213.814 560.742 213.814C564.89 213.814 567.863 214.987 569.663 217.334C571.486 219.658 572.398 222.848 572.398 226.904V248.745C572.398 249.771 571.885 250.283 570.86 250.283H567.92C566.895 250.283 566.382 249.771 566.382 248.745V228.545C566.382 224.079 565.642 221.253 564.16 220.068C562.679 218.861 560.799 218.257 558.521 218.257C555.559 218.257 553.314 219.146 551.787 220.923C550.261 222.678 549.497 225.697 549.497 229.981V248.745C549.497 249.771 548.985 250.283 547.959 250.283H545.02ZM581.488 232.339C581.488 226.688 582.901 222.188 585.726 218.838C588.552 215.488 592.597 213.814 597.86 213.814C602.235 213.814 605.858 215.352 608.729 218.428C611.623 221.481 613.07 226.369 613.07 233.091C613.07 234.116 612.603 234.629 611.669 234.629H587.846C588.233 239.027 589.418 242.092 591.4 243.823C593.383 245.532 595.627 246.387 598.134 246.387C600.777 246.387 602.805 245.943 604.218 245.054C605.63 244.165 606.667 243.288 607.328 242.422C608.057 241.465 608.764 241.283 609.447 241.875L611.464 243.618C611.988 244.074 611.988 244.701 611.464 245.498C611.031 246.159 609.789 247.219 607.738 248.677C605.71 250.135 602.509 250.864 598.134 250.864C592.437 250.864 588.233 249.19 585.521 245.84C582.833 242.49 581.488 237.99 581.488 232.339ZM587.709 230.186H607.02C606.929 226.996 606.109 224.204 604.559 221.812C603.01 219.396 600.731 218.189 597.724 218.189C595.08 218.189 592.836 219.077 590.99 220.855C589.144 222.609 588.051 225.72 587.709 230.186ZM623.904 250.283C622.878 250.283 622.366 249.771 622.366 248.745V215.933C622.366 214.907 622.878 214.395 623.904 214.395H626.775C627.8 214.395 628.313 214.907 628.313 215.933V220.034H628.45C629.543 217.984 630.831 216.434 632.312 215.386C633.793 214.338 635.639 213.814 637.849 213.814C639.307 213.814 640.333 213.939 640.925 214.19C641.449 214.395 641.643 214.736 641.506 215.215L640.72 218.018C640.606 218.428 640.31 218.587 639.832 218.496C639.034 218.337 638.282 218.257 637.576 218.257C634.91 218.257 632.711 219.465 630.979 221.88C629.247 224.273 628.381 227.542 628.381 231.69V248.745C628.381 249.771 627.869 250.283 626.843 250.283H623.904ZM649.982 250.283C648.956 250.283 648.443 249.771 648.443 248.745V206.089C648.443 205.633 648.557 205.2 648.785 204.79L651.178 200.449C651.611 199.652 651.964 199.253 652.237 199.253H653.434C654.117 199.253 654.459 199.652 654.459 200.449V248.745C654.459 249.771 653.946 250.283 652.921 250.283H649.982ZM663.618 240.713C663.618 236.657 665.509 233.683 669.292 231.792C673.097 229.901 678.771 228.796 686.313 228.477V226.152C686.313 224.011 685.823 222.165 684.843 220.615C683.886 219.043 681.972 218.257 679.101 218.257C677.278 218.257 675.82 218.439 674.726 218.804C673.633 219.146 672.63 219.613 671.718 220.205C670.83 220.775 669.975 221.515 669.155 222.427C668.54 223.11 667.959 223.145 667.412 222.529L665.634 220.479C665.133 219.909 665.304 219.225 666.147 218.428C667.355 217.289 668.528 216.434 669.668 215.864C670.807 215.295 672.22 214.816 673.906 214.429C675.615 214.019 677.347 213.814 679.101 213.814C683.864 213.814 687.259 215.044 689.287 217.505C691.315 219.943 692.329 223.293 692.329 227.554V248.745C692.329 249.771 691.816 250.283 690.791 250.283H687.715C686.826 250.283 686.382 249.771 686.382 248.745V247.07H686.313C684.513 248.483 682.747 249.474 681.015 250.044C679.306 250.591 677.392 250.864 675.273 250.864C671.536 250.864 668.654 249.976 666.626 248.198C664.62 246.398 663.618 243.903 663.618 240.713ZM669.839 240.85C669.839 242.262 670.135 243.402 670.727 244.268C671.32 245.111 672.14 245.658 673.188 245.908C674.236 246.136 675.33 246.25 676.469 246.25C678.224 246.25 679.887 246.079 681.46 245.737C683.032 245.396 684.65 244.496 686.313 243.037V232.954C681.71 233.296 678.429 233.718 676.469 234.219C674.51 234.697 672.915 235.54 671.684 236.748C670.454 237.933 669.839 239.3 669.839 240.85ZM705.008 250.283C703.983 250.283 703.47 249.771 703.47 248.745V215.933C703.47 214.907 703.983 214.395 705.008 214.395H707.879C708.905 214.395 709.417 214.907 709.417 215.933V218.667H709.554C711.035 217.026 712.63 215.807 714.339 215.01C716.048 214.212 718.179 213.814 720.731 213.814C724.878 213.814 727.852 214.987 729.652 217.334C731.475 219.658 732.386 222.848 732.386 226.904V248.745C732.386 249.771 731.873 250.283 730.848 250.283H727.909C726.883 250.283 726.37 249.771 726.37 248.745V228.545C726.37 224.079 725.63 221.253 724.149 220.068C722.668 218.861 720.788 218.257 718.509 218.257C715.547 218.257 713.302 219.146 711.776 220.923C710.249 222.678 709.486 225.697 709.486 229.981V248.745C709.486 249.771 708.973 250.283 707.948 250.283H705.008ZM741.476 232.339C741.476 227.44 742.661 223.133 745.031 219.419C747.401 215.682 750.864 213.814 755.422 213.814C758.042 213.814 760.139 214.247 761.711 215.112C763.283 215.978 764.696 217.163 765.949 218.667H766.017C765.972 217.984 765.949 217.289 765.949 216.582V201.372C765.949 200.347 766.462 199.834 767.487 199.834H770.427C771.452 199.834 771.965 200.347 771.965 201.372V248.745C771.965 249.771 771.452 250.283 770.427 250.283H767.556C766.735 250.283 766.291 249.771 766.223 248.745L766.017 246.011H765.949C764.696 247.515 763.283 248.7 761.711 249.566C760.139 250.431 758.042 250.864 755.422 250.864C750.864 250.864 747.401 249.007 745.031 245.293C742.661 241.556 741.476 237.238 741.476 232.339ZM747.834 232.339C747.834 236.532 748.552 239.927 749.987 242.525C751.446 245.122 753.906 246.421 757.37 246.421C759.831 246.421 761.87 245.589 763.488 243.926C765.129 242.24 765.949 239.688 765.949 236.27V228.408C765.949 224.99 765.129 222.45 763.488 220.786C761.87 219.1 759.831 218.257 757.37 218.257C753.906 218.257 751.446 219.556 749.987 222.153C748.552 224.751 747.834 228.146 747.834 232.339ZM781.705 246.934C780.998 246.273 780.85 245.658 781.26 245.088L782.798 242.935C783.3 242.251 784.04 242.285 785.02 243.037C786.364 244.063 787.857 244.883 789.498 245.498C791.161 246.113 793.052 246.421 795.171 246.421C796.425 246.421 797.541 246.273 798.521 245.977C799.501 245.658 800.355 245.077 801.084 244.234C801.836 243.39 802.212 242.262 802.212 240.85C802.212 240.029 802.03 239.255 801.666 238.526C801.324 237.796 800.777 237.215 800.025 236.782C799.296 236.327 798.578 235.973 797.872 235.723C796.709 235.29 795.547 234.937 794.385 234.663C793.246 234.367 791.742 233.923 789.874 233.33C788.62 232.943 787.435 232.396 786.319 231.69C785.202 230.96 784.222 229.981 783.379 228.75C782.559 227.52 782.149 225.822 782.149 223.657C782.149 221.447 782.821 219.544 784.166 217.949C785.51 216.354 787.196 215.272 789.224 214.702C791.252 214.11 793.223 213.814 795.137 213.814C797.963 213.814 800.23 214.144 801.939 214.805C803.671 215.443 805.163 216.206 806.417 217.095C807.146 217.619 807.248 218.223 806.724 218.906L805.186 220.957C804.708 221.618 803.967 221.595 802.964 220.889C802.121 220.296 800.925 219.738 799.375 219.214C797.826 218.69 796.47 218.428 795.308 218.428C793.873 218.428 792.642 218.587 791.617 218.906C790.591 219.225 789.76 219.772 789.122 220.547C788.484 221.322 788.165 222.233 788.165 223.281C788.165 224.079 788.29 224.797 788.541 225.435C788.791 226.05 789.258 226.62 789.942 227.144C790.625 227.668 791.583 228.089 792.813 228.408C794.727 228.91 796.47 229.365 798.042 229.776C799.638 230.186 801.073 230.687 802.349 231.279C804.013 232.054 805.289 232.909 806.177 233.843C807.089 234.777 807.715 235.791 808.057 236.885C808.399 237.956 808.57 239.152 808.57 240.474C808.57 242.912 807.841 244.974 806.382 246.66C804.947 248.346 803.34 249.474 801.563 250.044C799.786 250.591 797.644 250.864 795.137 250.864C791.742 250.864 788.825 250.386 786.387 249.429C783.972 248.449 782.411 247.617 781.705 246.934ZM423.618 301.776C423.618 293.915 425.611 287.672 429.599 283.046C433.587 278.42 439.34 276.108 446.86 276.108C451.189 276.108 454.858 276.78 457.866 278.124C460.874 279.469 462.993 281.417 464.223 283.969C465.043 285.655 464.907 286.794 463.813 287.387L459.711 289.574C458.276 290.349 457.091 289.916 456.157 288.276C455.564 287.227 454.459 286.282 452.841 285.439C451.246 284.595 449.366 284.174 447.202 284.174C442.417 284.174 439.067 285.689 437.153 288.72C435.239 291.728 434.282 296.08 434.282 301.776C434.282 307.473 435.239 311.837 437.153 314.867C439.067 317.875 442.417 319.379 447.202 319.379C449.777 319.379 451.941 318.798 453.696 317.636C455.473 316.474 456.704 315.369 457.387 314.32C458.504 312.611 459.689 312.179 460.942 313.022L465.043 315.756C466.16 316.508 466.274 317.647 465.385 319.174C464.064 321.453 461.796 323.401 458.583 325.019C455.371 326.637 451.463 327.445 446.86 327.445C439.454 327.445 433.723 325.133 429.667 320.507C425.634 315.881 423.618 309.638 423.618 301.776ZM473.45 316.713C473.45 312.657 475.342 309.683 479.124 307.792C482.929 305.901 488.603 304.796 496.146 304.477V302.152C496.146 300.011 495.656 298.165 494.676 296.615C493.719 295.043 491.805 294.257 488.934 294.257C487.111 294.257 485.652 294.439 484.559 294.804C483.465 295.146 482.462 295.613 481.551 296.205C480.662 296.775 479.808 297.515 478.987 298.427C478.372 299.11 477.791 299.145 477.244 298.529L475.467 296.479C474.966 295.909 475.136 295.225 475.98 294.428C477.187 293.289 478.361 292.434 479.5 291.864C480.639 291.295 482.052 290.816 483.738 290.429C485.447 290.019 487.179 289.814 488.934 289.814C493.696 289.814 497.091 291.044 499.119 293.505C501.147 295.943 502.161 299.293 502.161 303.554V324.745C502.161 325.771 501.649 326.283 500.623 326.283H497.547C496.658 326.283 496.214 325.771 496.214 324.745V323.07H496.146C494.345 324.483 492.58 325.474 490.848 326.044C489.139 326.591 487.225 326.864 485.106 326.864C481.369 326.864 478.486 325.976 476.458 324.198C474.453 322.398 473.45 319.903 473.45 316.713ZM479.671 316.85C479.671 318.262 479.967 319.402 480.56 320.268C481.152 321.111 481.972 321.658 483.021 321.908C484.069 322.136 485.163 322.25 486.302 322.25C488.056 322.25 489.72 322.079 491.292 321.737C492.864 321.396 494.482 320.496 496.146 319.037V308.954C491.543 309.296 488.261 309.718 486.302 310.219C484.342 310.697 482.747 311.54 481.517 312.748C480.286 313.933 479.671 315.3 479.671 316.85ZM511.559 294.906C510.534 294.906 510.021 294.508 510.021 293.71V291.591C510.021 290.793 510.534 290.395 511.559 290.395H515.592V287.318C515.592 286.863 515.706 286.43 515.934 286.02L518.327 281.679C518.76 280.881 519.113 280.483 519.386 280.483H520.583C521.266 280.483 521.608 280.881 521.608 281.679V290.395H528.888C529.914 290.395 530.426 290.793 530.426 291.591V293.71C530.426 294.508 529.914 294.906 528.888 294.906H521.608V316.679C521.608 319.071 521.961 320.632 522.668 321.361C523.397 322.068 524.263 322.421 525.265 322.421C526.04 322.421 526.963 322.193 528.034 321.737C529.128 321.282 529.88 320.894 530.29 320.575C530.7 320.256 531.019 320.359 531.247 320.883L532.375 323.515C532.557 323.97 532.42 324.335 531.965 324.609C531.076 325.133 529.777 325.645 528.068 326.147C526.359 326.625 524.65 326.864 522.941 326.864C520.571 326.864 518.748 326.01 517.472 324.301C516.219 322.592 515.592 320.177 515.592 317.055V294.906H511.559ZM538.662 308.339C538.662 302.984 539.984 298.564 542.627 295.077C545.293 291.568 549.361 289.814 554.829 289.814C558.521 289.814 561.335 290.474 563.272 291.796C565.231 293.095 566.644 294.428 567.51 295.795C567.989 296.547 567.886 297.151 567.202 297.607L565.049 299.008C564.366 299.486 563.682 299.179 562.998 298.085C562.338 297.037 561.403 296.137 560.196 295.385C559.011 294.633 557.222 294.257 554.829 294.257C551.708 294.257 549.292 295.408 547.583 297.709C545.874 300.011 545.02 303.554 545.02 308.339C545.02 313.124 545.874 316.667 547.583 318.969C549.292 321.27 551.708 322.421 554.829 322.421C557.359 322.421 559.296 321.943 560.64 320.985C561.984 320.006 562.964 318.946 563.579 317.807C564.172 316.736 564.844 316.428 565.596 316.884L567.886 318.251C568.57 318.661 568.672 319.276 568.194 320.097C567.624 321.077 566.325 322.455 564.297 324.233C562.292 325.987 559.136 326.864 554.829 326.864C549.361 326.864 545.293 325.121 542.627 321.635C539.984 318.126 538.662 313.694 538.662 308.339ZM578.617 326.283C577.592 326.283 577.079 325.771 577.079 324.745V277.372C577.079 276.347 577.592 275.834 578.617 275.834H581.557C582.582 275.834 583.095 276.347 583.095 277.372V292.616C583.095 293.3 583.072 293.984 583.026 294.667H583.163C584.644 293.026 586.239 291.807 587.948 291.01C589.657 290.212 591.788 289.814 594.34 289.814C598.487 289.814 601.461 290.987 603.261 293.334C605.084 295.658 605.995 298.848 605.995 302.904V324.745C605.995 325.771 605.482 326.283 604.457 326.283H601.517C600.492 326.283 599.979 325.771 599.979 324.745V304.545C599.979 300.079 599.239 297.253 597.758 296.068C596.277 294.861 594.397 294.257 592.118 294.257C589.156 294.257 586.911 295.146 585.385 296.923C583.858 298.678 583.095 301.697 583.095 305.981V324.745C583.095 325.771 582.582 326.283 581.557 326.283H578.617ZM618.572 326.283C617.546 326.283 617.034 325.771 617.034 324.745V277.372C617.034 276.347 617.546 275.834 618.572 275.834H621.511C622.537 275.834 623.049 276.347 623.049 277.372V292.582C623.049 293.289 623.027 293.984 622.981 294.667H623.049C624.303 293.163 625.715 291.978 627.288 291.112C628.86 290.247 630.956 289.814 633.577 289.814C638.134 289.814 641.597 291.682 643.967 295.419C646.337 299.133 647.522 303.44 647.522 308.339C647.522 313.238 646.337 317.556 643.967 321.293C641.597 325.007 638.134 326.864 633.577 326.864C630.956 326.864 628.86 326.431 627.288 325.566C625.715 324.7 624.303 323.515 623.049 322.011H622.981L622.776 324.745C622.708 325.771 622.263 326.283 621.443 326.283H618.572ZM623.049 312.27C623.049 315.688 623.858 318.24 625.476 319.926C627.117 321.589 629.167 322.421 631.628 322.421C635.092 322.421 637.542 321.122 638.977 318.525C640.435 315.927 641.165 312.532 641.165 308.339C641.165 304.146 640.435 300.751 638.977 298.153C637.542 295.556 635.092 294.257 631.628 294.257C629.167 294.257 627.117 295.1 625.476 296.786C623.858 298.45 623.049 300.99 623.049 304.408V312.27ZM654.767 316.713C654.767 312.657 656.658 309.683 660.441 307.792C664.246 305.901 669.92 304.796 677.462 304.477V302.152C677.462 300.011 676.972 298.165 675.992 296.615C675.035 295.043 673.121 294.257 670.25 294.257C668.427 294.257 666.969 294.439 665.875 294.804C664.781 295.146 663.779 295.613 662.867 296.205C661.979 296.775 661.124 297.515 660.304 298.427C659.689 299.11 659.108 299.145 658.561 298.529L656.783 296.479C656.282 295.909 656.453 295.225 657.296 294.428C658.504 293.289 659.677 292.434 660.816 291.864C661.956 291.295 663.369 290.816 665.055 290.429C666.764 290.019 668.496 289.814 670.25 289.814C675.012 289.814 678.408 291.044 680.436 293.505C682.464 295.943 683.478 299.293 683.478 303.554V324.745C683.478 325.771 682.965 326.283 681.94 326.283H678.863C677.975 326.283 677.53 325.771 677.53 324.745V323.07H677.462C675.662 324.483 673.896 325.474 672.164 326.044C670.455 326.591 668.541 326.864 666.422 326.864C662.685 326.864 659.803 325.976 657.775 324.198C655.769 322.398 654.767 319.903 654.767 316.713ZM660.987 316.85C660.987 318.262 661.284 319.402 661.876 320.268C662.469 321.111 663.289 321.658 664.337 321.908C665.385 322.136 666.479 322.25 667.618 322.25C669.373 322.25 671.036 322.079 672.608 321.737C674.181 321.396 675.799 320.496 677.462 319.037V308.954C672.859 309.296 669.578 309.718 667.618 310.219C665.659 310.697 664.064 311.54 662.833 312.748C661.603 313.933 660.987 315.3 660.987 316.85ZM696.157 326.283C695.132 326.283 694.619 325.771 694.619 324.745V282.089C694.619 281.633 694.733 281.2 694.961 280.79L697.353 276.449C697.786 275.652 698.139 275.253 698.413 275.253H699.609C700.293 275.253 700.634 275.652 700.634 276.449V324.745C700.634 325.771 700.122 326.283 699.096 326.283H696.157ZM713.28 326.283C712.254 326.283 711.742 325.771 711.742 324.745V282.089C711.742 281.633 711.855 281.2 712.083 280.79L714.476 276.449C714.909 275.652 715.262 275.253 715.535 275.253H716.732C717.415 275.253 717.757 275.652 717.757 276.449V324.745C717.757 325.771 717.244 326.283 716.219 326.283H713.28ZM424.609 402.283C422.968 402.283 422.433 401.531 423.002 400.027L439.75 356.038C440.457 354.193 441.528 353.27 442.963 353.27H447.749C449.184 353.27 450.255 354.193 450.961 356.038L467.709 400.027C468.279 401.531 467.744 402.283 466.103 402.283H460.668C459.165 402.283 458.116 401.497 457.524 399.925L454.038 390.731H436.674L433.188 399.925C432.596 401.497 431.547 402.283 430.043 402.283H424.609ZM439.853 382.254H450.859L446.655 371.385C446.153 370.109 445.846 369.186 445.732 368.616C445.641 368.024 445.538 367.158 445.424 366.019H445.288C445.174 367.158 445.06 368.024 444.946 368.616C444.855 369.186 444.558 370.109 444.057 371.385L439.853 382.254ZM473.177 398.934C472.47 398.273 472.322 397.658 472.733 397.088L474.271 394.935C474.772 394.251 475.512 394.285 476.492 395.037C477.837 396.063 479.329 396.883 480.97 397.498C482.633 398.113 484.525 398.421 486.644 398.421C487.897 398.421 489.013 398.273 489.993 397.977C490.973 397.658 491.828 397.077 492.557 396.234C493.309 395.39 493.685 394.262 493.685 392.85C493.685 392.029 493.502 391.255 493.138 390.526C492.796 389.796 492.249 389.215 491.497 388.782C490.768 388.327 490.05 387.973 489.344 387.723C488.182 387.29 487.02 386.937 485.858 386.663C484.718 386.367 483.214 385.923 481.346 385.33C480.093 384.943 478.908 384.396 477.791 383.69C476.675 382.96 475.695 381.981 474.852 380.75C474.031 379.52 473.621 377.822 473.621 375.657C473.621 373.447 474.293 371.544 475.638 369.949C476.982 368.354 478.668 367.272 480.696 366.702C482.724 366.11 484.695 365.814 486.609 365.814C489.435 365.814 491.702 366.144 493.411 366.805C495.143 367.443 496.636 368.206 497.889 369.095C498.618 369.619 498.72 370.223 498.196 370.906L496.658 372.957C496.18 373.618 495.439 373.595 494.437 372.889C493.594 372.296 492.397 371.738 490.848 371.214C489.298 370.69 487.942 370.428 486.78 370.428C485.345 370.428 484.114 370.587 483.089 370.906C482.064 371.225 481.232 371.772 480.594 372.547C479.956 373.322 479.637 374.233 479.637 375.281C479.637 376.079 479.762 376.797 480.013 377.435C480.263 378.05 480.731 378.62 481.414 379.144C482.098 379.668 483.055 380.089 484.285 380.408C486.199 380.91 487.942 381.365 489.515 381.776C491.11 382.186 492.545 382.687 493.821 383.279C495.485 384.054 496.761 384.909 497.65 385.843C498.561 386.777 499.188 387.791 499.529 388.885C499.871 389.956 500.042 391.152 500.042 392.474C500.042 394.912 499.313 396.974 497.855 398.66C496.419 400.346 494.813 401.474 493.035 402.044C491.258 402.591 489.116 402.864 486.609 402.864C483.214 402.864 480.298 402.386 477.859 401.429C475.444 400.449 473.883 399.617 473.177 398.934ZM506.842 398.934C506.136 398.273 505.988 397.658 506.398 397.088L507.936 394.935C508.438 394.251 509.178 394.285 510.158 395.037C511.502 396.063 512.995 396.883 514.635 397.498C516.299 398.113 518.19 398.421 520.309 398.421C521.563 398.421 522.679 398.273 523.659 397.977C524.639 397.658 525.493 397.077 526.222 396.234C526.974 395.39 527.35 394.262 527.35 392.85C527.35 392.029 527.168 391.255 526.803 390.526C526.462 389.796 525.915 389.215 525.163 388.782C524.434 388.327 523.716 387.973 523.009 387.723C521.847 387.29 520.685 386.937 519.523 386.663C518.384 386.367 516.88 385.923 515.011 385.33C513.758 384.943 512.573 384.396 511.457 383.69C510.34 382.96 509.36 381.981 508.517 380.75C507.697 379.52 507.287 377.822 507.287 375.657C507.287 373.447 507.959 371.544 509.303 369.949C510.648 368.354 512.334 367.272 514.362 366.702C516.39 366.11 518.361 365.814 520.275 365.814C523.101 365.814 525.368 366.144 527.077 366.805C528.809 367.443 530.301 368.206 531.554 369.095C532.284 369.619 532.386 370.223 531.862 370.906L530.324 372.957C529.845 373.618 529.105 373.595 528.102 372.889C527.259 372.296 526.063 371.738 524.513 371.214C522.964 370.69 521.608 370.428 520.446 370.428C519.01 370.428 517.78 370.587 516.755 370.906C515.729 371.225 514.897 371.772 514.259 372.547C513.621 373.322 513.302 374.233 513.302 375.281C513.302 376.079 513.428 376.797 513.678 377.435C513.929 378.05 514.396 378.62 515.08 379.144C515.763 379.668 516.72 380.089 517.951 380.408C519.865 380.91 521.608 381.365 523.18 381.776C524.775 382.186 526.211 382.687 527.487 383.279C529.15 384.054 530.426 384.909 531.315 385.843C532.227 386.777 532.853 387.791 533.195 388.885C533.537 389.956 533.708 391.152 533.708 392.474C533.708 394.912 532.979 396.974 531.52 398.66C530.085 400.346 528.478 401.474 526.701 402.044C524.924 402.591 522.782 402.864 520.275 402.864C516.88 402.864 513.963 402.386 511.525 401.429C509.11 400.449 507.549 399.617 506.842 398.934ZM539.961 384.339C539.961 378.984 541.374 374.564 544.2 371.077C547.048 367.568 551.206 365.814 556.675 365.814C562.144 365.814 566.291 367.568 569.117 371.077C571.965 374.564 573.389 378.984 573.389 384.339C573.389 389.694 571.965 394.126 569.117 397.635C566.291 401.121 562.144 402.864 556.675 402.864C551.206 402.864 547.048 401.121 544.2 397.635C541.374 394.126 539.961 389.694 539.961 384.339ZM546.319 384.339C546.319 389.124 547.264 392.667 549.156 394.969C551.047 397.27 553.553 398.421 556.675 398.421C559.797 398.421 562.303 397.27 564.195 394.969C566.086 392.667 567.032 389.124 567.032 384.339C567.032 379.554 566.086 376.011 564.195 373.709C562.303 371.408 559.797 370.257 556.675 370.257C553.553 370.257 551.047 371.408 549.156 373.709C547.264 376.011 546.319 379.554 546.319 384.339ZM580.6 384.339C580.6 378.984 581.921 374.564 584.564 371.077C587.23 367.568 591.298 365.814 596.767 365.814C600.458 365.814 603.272 366.474 605.209 367.796C607.169 369.095 608.581 370.428 609.447 371.795C609.926 372.547 609.823 373.151 609.14 373.607L606.986 375.008C606.303 375.486 605.619 375.179 604.935 374.085C604.275 373.037 603.34 372.137 602.133 371.385C600.948 370.633 599.159 370.257 596.767 370.257C593.645 370.257 591.229 371.408 589.52 373.709C587.811 376.011 586.957 379.554 586.957 384.339C586.957 389.124 587.811 392.667 589.52 394.969C591.229 397.27 593.645 398.421 596.767 398.421C599.296 398.421 601.233 397.943 602.577 396.985C603.921 396.006 604.901 394.946 605.517 393.807C606.109 392.736 606.781 392.428 607.533 392.884L609.823 394.251C610.507 394.661 610.609 395.276 610.131 396.097C609.561 397.077 608.262 398.455 606.234 400.233C604.229 401.987 601.073 402.864 596.767 402.864C591.298 402.864 587.23 401.121 584.564 397.635C581.921 394.126 580.6 389.694 580.6 384.339ZM620.554 402.283C619.529 402.283 619.016 401.771 619.016 400.745V367.933C619.016 366.907 619.529 366.395 620.554 366.395H623.494C624.519 366.395 625.032 366.907 625.032 367.933V400.745C625.032 401.771 624.519 402.283 623.494 402.283H620.554ZM620.554 359.901C619.529 359.901 619.016 359.388 619.016 358.362V355.423C619.016 354.398 619.529 353.885 620.554 353.885H623.494C624.519 353.885 625.032 354.398 625.032 355.423V358.362C625.032 359.388 624.519 359.901 623.494 359.901H620.554ZM634.191 392.713C634.191 388.657 636.082 385.683 639.864 383.792C643.67 381.901 649.344 380.796 656.886 380.477V378.152C656.886 376.011 656.396 374.165 655.416 372.615C654.459 371.043 652.545 370.257 649.674 370.257C647.851 370.257 646.393 370.439 645.299 370.804C644.205 371.146 643.203 371.613 642.291 372.205C641.402 372.775 640.548 373.515 639.728 374.427C639.112 375.11 638.531 375.145 637.984 374.529L636.207 372.479C635.706 371.909 635.877 371.225 636.72 370.428C637.928 369.289 639.101 368.434 640.24 367.864C641.38 367.295 642.792 366.816 644.479 366.429C646.188 366.019 647.919 365.814 649.674 365.814C654.436 365.814 657.831 367.044 659.859 369.505C661.887 371.943 662.901 375.293 662.901 379.554V400.745C662.901 401.771 662.389 402.283 661.363 402.283H658.287C657.399 402.283 656.954 401.771 656.954 400.745V399.07H656.886C655.086 400.483 653.32 401.474 651.588 402.044C649.879 402.591 647.965 402.864 645.846 402.864C642.109 402.864 639.226 401.976 637.198 400.198C635.193 398.398 634.191 395.903 634.191 392.713ZM640.411 392.85C640.411 394.262 640.707 395.402 641.3 396.268C641.892 397.111 642.713 397.658 643.761 397.908C644.809 398.136 645.903 398.25 647.042 398.25C648.797 398.25 650.46 398.079 652.032 397.737C653.605 397.396 655.222 396.496 656.886 395.037V384.954C652.283 385.296 649.002 385.718 647.042 386.219C645.082 386.697 643.487 387.54 642.257 388.748C641.026 389.933 640.411 391.3 640.411 392.85ZM672.3 370.906C671.274 370.906 670.761 370.508 670.761 369.71V367.591C670.761 366.793 671.274 366.395 672.3 366.395H676.333V363.318C676.333 362.863 676.447 362.43 676.675 362.02L679.067 357.679C679.5 356.881 679.853 356.483 680.127 356.483H681.323C682.007 356.483 682.348 356.881 682.348 357.679V366.395H689.629C690.654 366.395 691.167 366.793 691.167 367.591V369.71C691.167 370.508 690.654 370.906 689.629 370.906H682.348V392.679C682.348 395.071 682.702 396.632 683.408 397.361C684.137 398.068 685.003 398.421 686.006 398.421C686.78 398.421 687.703 398.193 688.774 397.737C689.868 397.282 690.62 396.894 691.03 396.575C691.44 396.256 691.759 396.359 691.987 396.883L693.115 399.515C693.297 399.97 693.161 400.335 692.705 400.609C691.816 401.133 690.517 401.645 688.808 402.147C687.099 402.625 685.39 402.864 683.681 402.864C681.312 402.864 679.489 402.01 678.213 400.301C676.959 398.592 676.333 396.177 676.333 393.055V370.906H672.3ZM702.889 402.283C701.864 402.283 701.351 401.771 701.351 400.745V367.933C701.351 366.907 701.864 366.395 702.889 366.395H705.828C706.854 366.395 707.367 366.907 707.367 367.933V400.745C707.367 401.771 706.854 402.283 705.828 402.283H702.889ZM702.889 359.901C701.864 359.901 701.351 359.388 701.351 358.362V355.423C701.351 354.398 701.864 353.885 702.889 353.885H705.828C706.854 353.885 707.367 354.398 707.367 355.423V358.362C707.367 359.388 706.854 359.901 705.828 359.901H702.889ZM716.525 384.339C716.525 378.984 717.938 374.564 720.764 371.077C723.612 367.568 727.77 365.814 733.239 365.814C738.708 365.814 742.855 367.568 745.681 371.077C748.529 374.564 749.953 378.984 749.953 384.339C749.953 389.694 748.529 394.126 745.681 397.635C742.855 401.121 738.708 402.864 733.239 402.864C727.77 402.864 723.612 401.121 720.764 397.635C717.938 394.126 716.525 389.694 716.525 384.339ZM722.883 384.339C722.883 389.124 723.828 392.667 725.72 394.969C727.611 397.27 730.117 398.421 733.239 398.421C736.361 398.421 738.867 397.27 740.759 394.969C742.65 392.667 743.596 389.124 743.596 384.339C743.596 379.554 742.65 376.011 740.759 373.709C738.867 371.408 736.361 370.257 733.239 370.257C730.117 370.257 727.611 371.408 725.72 373.709C723.828 376.011 722.883 379.554 722.883 384.339ZM760.65 402.283C759.625 402.283 759.112 401.771 759.112 400.745V367.933C759.112 366.907 759.625 366.395 760.65 366.395H763.521C764.546 366.395 765.059 366.907 765.059 367.933V370.667H765.196C766.677 369.026 768.272 367.807 769.981 367.01C771.69 366.212 773.82 365.814 776.373 365.814C780.52 365.814 783.493 366.987 785.293 369.334C787.116 371.658 788.028 374.848 788.028 378.904V400.745C788.028 401.771 787.515 402.283 786.49 402.283H783.55C782.525 402.283 782.012 401.771 782.012 400.745V380.545C782.012 376.079 781.272 373.253 779.791 372.068C778.309 370.861 776.43 370.257 774.151 370.257C771.189 370.257 768.944 371.146 767.417 372.923C765.891 374.678 765.127 377.697 765.127 381.981V400.745C765.127 401.771 764.615 402.283 763.589 402.283H760.65Z" fill="white"/>
<defs>
<clipPath id="clip0_2186_23">
<rect width="580.328" height="498.092" fill="white" transform="translate(12.6533) rotate(1.45569)"/>
</clipPath>
</defs>
</svg>
